<svg width="582" height="380" xmlns="http://www.w3.org/2000/svg" xmlns:xlink="http://www.w3.org/1999/xlink" overflow="hidden"><defs><clipPath id="clip0"><rect x="337" y="146" width="582" height="380"/></clipPath></defs><g clip-path="url(#clip0)" transform="translate(-337 -146)"><path d="M576.5 163.5C576.5 154.664 583.664 147.5 592.5 147.5L656.5 147.5C665.336 147.5 672.5 154.664 672.5 163.5L672.5 227.5C672.5 236.336 665.336 243.5 656.5 243.5L592.5 243.5C583.664 243.5 576.5 236.336 576.5 227.5Z" stroke="#2F528F" stroke-width="1.33333" stroke-miterlimit="8" fill="#ED7D31" fill-rule="evenodd"/><text fill="#FFFFFF" font-family="DengXian,DengXian_MSFontService,sans-serif" font-weight="400" font-size="24" transform="translate(600 203)">应用</text><path d="M576.5 317.5C576.5 308.664 583.664 301.5 592.5 301.5L656.5 301.5C665.336 301.5 672.5 308.664 672.5 317.5L672.5 381.5C672.5 390.336 665.336 397.5 656.5 397.5L592.5 397.5C583.664 397.5 576.5 390.336 576.5 381.5Z" stroke="#2F528F" stroke-width="1.33333" stroke-miterlimit="8" fill="#8497B0" fill-rule="evenodd"/><text fill="#FFFFFF" font-family="DengXian,DengXian_MSFontService,sans-serif" font-weight="400" font-size="24" transform="translate(593.833 357)">Nginx</text><path d="M338.5 445.5C338.5 436.664 345.664 429.5 354.5 429.5L457.5 429.5C466.336 429.5 473.5 436.664 473.5 445.5L473.5 509.5C473.5 518.336 466.336 525.5 457.5 525.5L354.5 525.5C345.664 525.5 338.5 518.336 338.5 509.5Z" stroke="#2F528F" stroke-width="1.33333" stroke-miterlimit="8" fill="#00B050" fill-rule="evenodd"/><text fill="#FFFFFF" font-family="DengXian,DengXian_MSFontService,sans-serif" font-weight="400" font-size="24" transform="translate(360.667 485)">Tomcat1</text><path d="M783.5 445.5C783.5 436.664 790.664 429.5 799.5 429.5L902.5 429.5C911.336 429.5 918.5 436.664 918.5 445.5L918.5 509.5C918.5 518.336 911.336 525.5 902.5 525.5L799.5 525.5C790.664 525.5 783.5 518.336 783.5 509.5Z" stroke="#2F528F" stroke-width="1.33333" stroke-miterlimit="8" fill="#00B050" fill-rule="evenodd"/><text fill="#FFFFFF" font-family="DengXian,DengXian_MSFontService,sans-serif" font-weight="400" font-size="24" transform="translate(805.667 485)">Tomcat2</text><path d="M624.833 243.5 624.833 294.833 624.167 294.833 624.167 243.5ZM628.5 293.5 624.5 301.5 620.5 293.5Z"/><path d="M0.0483024-0.329815 211.952 30.7041 211.855 31.3638-0.0483024 0.329815ZM211.164 26.883 218.5 32 210.005 34.7985Z" transform="matrix(-1 0 0 1 624 397.5)"/><path d="M624.547 397.17 844.446 428.237 844.352 428.897 624.453 397.83ZM843.638 424.42 851 429.5 842.519 432.342Z"/></g></svg>