<svg height="455" xmlns="http://www.w3.org/2000/svg" xmlns:xlink="http://www.w3.org/1999/xlink" width="550" viewBox="0 0 550 455">
    <defs/>
    <g transform="translate(-206.50,-105.00)">
        <g transform="translate(207.50,107.22)" id="group1">
            <path stroke-width="1" d="M11.0,.0L537.0,.0C543.1,.0,548.0,4.9,548.0,11.0L548.0,198.8C548.0,204.9,543.1,209.8,537.0,209.8L11.0,209.8C4.9,209.8,.0,204.9,.0,198.8L.0,11.0C.0,4.9,4.9,.0,11.0,.0z" fill="none" stroke="#000000" id="shape2"/>
            <g transform="translate(10.00,0.00)" id="shape3">
                <text style="fill:#ffffff;font-family:Times New Roman;font-size:16.00pt" xml:space="preserve">
                    <tspan x="201.0" y="23.0">运行时数据区</tspan>
                </text>
            </g>
        </g>
        <g transform="translate(224.00,148.22)" id="shape4">
            <path d="M119.0,64.4L119.0,7.0C119.0,3.1,115.9,.0,112.0,.0L7.0,.0C3.1,.0,.0,3.1,.0,7.0L.0,64.4C.0,68.3,3.1,71.4,7.0,71.4L112.0,71.4C115.9,71.4,119.0,68.3,119.0,64.4z" fill="#f3655d" fill-rule="nonzero" stroke="#f3655d"/>
            <text style="fill:#ffffff;font-family:Times New Roman;font-size:16.00pt" xml:space="preserve">
                <tspan x="28.0" y="32.0">方法区</tspan>
                <tspan x="6.0" y="56.0">Method Area</tspan>
            </text>
        </g>
        <g transform="translate(402.50,148.22)" id="shape5">
            <path d="M119.0,64.4L119.0,7.0C119.0,3.1,115.9,.0,112.0,.0L7.0,.0C3.1,.0,.0,3.1,.0,7.0L.0,64.4C.0,68.3,3.1,71.4,7.0,71.4L112.0,71.4C115.9,71.4,119.0,68.3,119.0,64.4z" fill="#4cccf3" fill-rule="nonzero" stroke="#f3655d"/>
            <text style="fill:#ffffff;font-family:Times New Roman;font-size:16.00pt" xml:space="preserve">
                <tspan x="17.5" y="31.7">虚拟机栈</tspan>
                <tspan x="18.0" y="55.7">VM Stack</tspan>
            </text>
        </g>
        <g transform="translate(544.00,148.22)" id="shape6">
            <path d="M188.5,64.4L188.5,7.0C188.5,3.1,185.4,.0,181.5,.0L7.0,.0C3.1,.0,.0,3.1,.0,7.0L.0,64.4C.0,68.3,3.1,71.4,7.0,71.4L181.5,71.4C185.4,71.4,188.5,68.3,188.5,64.4z" fill="#4cccf3" fill-rule="nonzero" stroke="#f3655d"/>
            <text style="fill:#ffffff;font-family:Times New Roman;font-size:16.00pt" xml:space="preserve">
                <tspan x="41.8" y="31.7">本地方法栈</tspan>
                <tspan x="7.3" y="55.7">Native Method Stack</tspan>
            </text>
        </g>
        <g transform="translate(224.00,242.00)" id="shape7">
            <path d="M119.0,53.0L119.0,7.0C119.0,3.1,115.9,.0,112.0,.0L7.0,.0C3.1,.0,.0,3.1,.0,7.0L.0,53.0C.0,56.9,3.1,60.0,7.0,60.0L112.0,60.0C115.9,60.0,119.0,56.9,119.0,53.0z" fill="#f3655d" fill-rule="nonzero" stroke="#f3655d"/>
            <text style="fill:#ffffff;font-family:Times New Roman;font-size:16.00pt" xml:space="preserve">
                <tspan x="49.0" y="26.0">堆</tspan>
                <tspan x="38.0" y="50.0">Heap</tspan>
            </text>
        </g>
        <g transform="translate(402.50,242.00)" id="shape8">
            <path d="M330.0,53.0L330.0,7.0C330.0,3.1,326.9,.0,323.0,.0L7.0,.0C3.1,.0,.0,3.1,.0,7.0L.0,53.0C.0,56.9,3.1,60.0,7.0,60.0L323.0,60.0C326.9,60.0,330.0,56.9,330.0,53.0z" fill="#4cccf3" fill-rule="nonzero" stroke="#f3655d"/>
            <text style="fill:#ffffff;font-family:Times New Roman;font-size:16.00pt" xml:space="preserve">
                <tspan x="112.5" y="26.0">程序计数器</tspan>
                <tspan x="55.5" y="50.0">Program Counter Register</tspan>
            </text>
        </g>
        <path d="M27.7,.0L27.7,33.6L44.0,29.2L22.0,60.0L.0,29.2L16.3,33.6L16.3,.0L27.7,.0" fill="#2e8ca5" transform="translate(221.00,324.38)" fill-rule="nonzero" stroke="#2e8ca5" id="shape9"/>
        <path d="M27.7,.0L27.7,33.6L44.0,29.2L22.0,60.0L.0,29.2L16.3,33.6L16.3,.0L27.7,.0" fill="#2e8ca5" transform="matrix(-1.00,0.00,0.00,-1.00,324.0,384.4)" fill-rule="nonzero" stroke="#2e8ca5" id="shape10"/>
        <path d="M27.7,.0L27.7,33.6L44.0,29.2L22.0,60.0L.0,29.2L16.3,33.6L16.3,.0L27.7,.0" fill="#2e8ca5" transform="translate(428.00,324.38)" fill-rule="nonzero" stroke="#2e8ca5" id="shape11"/>
        <path d="M27.7,.0L27.7,33.6L44.0,29.2L22.0,60.0L.0,29.2L16.3,33.6L16.3,.0L27.7,.0" fill="#2e8ca5" transform="matrix(-1.00,0.00,0.00,-1.00,551.0,384.4)" fill-rule="nonzero" stroke="#2e8ca5" id="shape12"/>
        <g transform="translate(207.50,397.00)" id="shape13">
            <path d="M116.5,53.0L116.5,7.0C116.5,3.1,113.4,.0,109.5,.0L7.0,.0C3.1,.0,.0,3.1,.0,7.0L.0,53.0C.0,56.9,3.1,60.0,7.0,60.0L109.5,60.0C113.4,60.0,116.5,56.9,116.5,53.0z" fill="#9b9b9b" fill-rule="nonzero" stroke="#f3655d"/>
            <text style="fill:#ffffff;font-family:Times New Roman;font-size:16.00pt" xml:space="preserve">
                <tspan x="16.3" y="38.0">执行引擎</tspan>
            </text>
        </g>
        <path d="M27.7,.0L27.7,33.6L44.0,29.2L22.0,60.0L.0,29.2L16.3,33.6L16.3,.0L27.7,.0" fill="#2e8ca5" transform="matrix(0.00,-1.00,1.00,0.00,333.8,449.0)" fill-rule="nonzero" stroke="#2e8ca5" id="shape14"/>
        <g transform="translate(399.88,397.00)" id="shape15">
            <path d="M162.3,53.0L162.3,7.0C162.3,3.1,159.1,.0,155.3,.0L7.0,.0C3.1,.0,.0,3.1,.0,7.0L.0,53.0C.0,56.9,3.1,60.0,7.0,60.0L155.3,60.0C159.1,60.0,162.3,56.9,162.3,53.0z" fill="#9b9b9b" fill-rule="nonzero" stroke="#f3655d"/>
            <text style="fill:#ffffff;font-family:Times New Roman;font-size:16.00pt" xml:space="preserve">
                <tspan x="28.6" y="38.0">本地库接口</tspan>
            </text>
        </g>
        <g transform="translate(627.00,395.00)" id="shape16">
            <path d="M128.5,53.0L128.5,7.0C128.5,3.1,125.4,.0,121.5,.0L7.0,.0C3.1,.0,.0,3.1,.0,7.0L.0,53.0C.0,56.9,3.1,60.0,7.0,60.0L121.5,60.0C125.4,60.0,128.5,56.9,128.5,53.0z" fill="#9b9b9b" fill-rule="nonzero" stroke="#f3655d"/>
            <text style="fill:#ffffff;font-family:Times New Roman;font-size:16.00pt" xml:space="preserve">
                <tspan x="11.8" y="38.0">本地方法库</tspan>
            </text>
        </g>
        <path d="M27.7,.0L27.7,33.6L44.0,29.2L22.0,60.0L.0,29.2L16.3,33.6L16.3,.0L27.7,.0" fill="#2e8ca5" transform="matrix(0.00,-1.00,1.00,0.00,567.0,449.0)" fill-rule="nonzero" stroke="#2e8ca5" id="shape17"/>
        <g transform="translate(207.50,484.00)" id="shape18">
            <path d="M41.5,23.4L41.5,7.0C41.5,3.1,38.4,.0,34.5,.0L7.0,.0C3.1,.0,.0,3.1,.0,7.0L.0,23.4C.0,27.3,3.1,30.4,7.0,30.4L34.5,30.4C38.4,30.4,41.5,27.3,41.5,23.4z" fill="#f3655d" fill-rule="nonzero" stroke="#f3655d"/>
            <text style="fill:#ffffff;font-family:Times New Roman;font-size:16.00pt" xml:space="preserve"/>
        </g>
        <path d="M41.5,23.4L41.5,7.0C41.5,3.1,38.4,.0,34.5,.0L7.0,.0C3.1,.0,.0,3.1,.0,7.0L.0,23.4C.0,27.3,3.1,30.4,7.0,30.4L34.5,30.4C38.4,30.4,41.5,27.3,41.5,23.4z" fill="#4cccf3" transform="translate(207.50,529.00)" fill-rule="nonzero" stroke="#f3655d" id="shape19"/>
        <path d="M7.7,11.6L7.7,17.1L13.3,17.1L13.3,11.6L7.7,11.6zM.0,18.8C.0,17.4,.0,15.1,.0,11.9C.0,8.7,.0,6.3,.0,4.7L1.3,5.3L6.6,5.3C6.6,3.0,6.5,1.3,6.5,.2L8.4,1.1L7.7,1.6L7.7,5.3L13.2,5.3L13.9,4.4L15.2,5.6L14.4,6.2L14.4,15.2C14.4,16.8,14.5,17.8,14.5,18.3L13.3,18.8L13.3,17.6L1.2,17.6L1.2,18.5L.0,18.8zM1.2,5.8L1.2,11.1L6.6,11.1L6.6,5.8L1.2,5.8zM7.7,5.8L7.7,11.1L13.3,11.1L13.3,5.8L7.7,5.8zM1.2,11.6L1.2,17.1L6.6,17.1L6.6,11.6L1.2,11.6zM34.5,15.8C34.5,16.5,34.6,17.4,34.6,18.5L33.3,19.1C33.4,17.5,33.4,16.0,33.4,14.6L33.4,7.6L30.1,7.6C30.2,12.5,28.3,16.4,24.6,19.3L24.4,19.0C25.6,17.9,26.6,16.5,27.4,14.7C28.3,12.9,28.7,11.3,28.8,9.8C28.8,8.3,28.9,6.9,28.9,5.7C28.9,4.2,28.8,2.8,28.8,1.6L30.1,2.4C33.2,1.6,35.1,.9,35.8,.2L37.3,1.8C36.6,1.7,34.2,2.0,30.1,2.8L30.1,7.1L35.4,7.1L36.4,6.2L37.9,7.6L34.5,7.6L34.5,15.8zM22.1,6.6L22.0,10.7L25.8,10.7L25.8,6.6L22.1,6.6zM26.7,.3L28.1,1.7C27.1,1.7,25.1,2.1,22.1,2.9L22.1,6.2L25.8,6.2L26.4,5.4L27.6,6.5L27.0,7.0C27.0,9.3,27.0,11.0,27.1,12.0L25.8,12.5L25.8,11.2L22.0,11.2C21.9,14.2,20.8,16.9,18.7,19.3L18.5,19.1C19.5,17.5,20.2,15.9,20.5,14.2C20.8,12.6,20.9,10.3,20.9,7.5C20.8,4.8,20.8,2.8,20.8,1.6L22.1,2.4C23.1,2.1,24.0,1.8,24.8,1.5C25.6,1.1,26.3,.8,26.7,.3zM45.9,7.3L45.9,10.2L53.5,10.2L53.5,7.3L45.9,7.3zM45.9,10.7L45.9,13.4L53.5,13.4L53.5,10.7L45.9,10.7zM50.6,17.2C51.5,17.4,52.3,17.5,52.7,17.5C53.2,17.5,53.5,17.2,53.5,16.7L53.5,13.9L45.9,13.9L45.9,18.5L44.7,19.3C44.8,18.3,44.8,14.8,44.8,8.6C43.3,10.3,41.6,11.6,39.8,12.7L39.5,12.5C41.1,11.3,42.4,10.0,43.5,8.7C44.6,7.5,45.7,5.8,46.8,3.9L42.2,3.9C41.5,3.9,40.9,3.9,40.3,4.1L39.5,3.4L46.9,3.4C47.5,2.0,47.9,.9,48.1,.0L50.1,1.1L49.3,1.5C48.9,2.2,48.6,2.9,48.3,3.4L55.3,3.4L56.7,2.0L58.6,3.9L48.2,3.9C47.6,4.9,46.9,5.9,46.3,6.8L53.3,6.8L54.0,6.0L55.4,7.1L54.6,7.6L54.6,17.3C54.6,18.2,54.0,18.8,52.8,19.3C52.9,18.6,52.1,18.1,50.6,17.6L50.6,17.2zM72.4,6.1C72.4,6.8,72.5,7.8,72.6,9.1L76.5,8.7L77.5,7.5L79.2,8.9L72.7,9.5C72.8,11.2,73.1,12.6,73.5,13.5C74.7,12.4,75.7,11.3,76.4,10.1L77.8,11.6L77.1,11.6C76.1,12.6,75.0,13.6,74.0,14.6C75.0,16.0,76.1,16.9,77.4,17.5L78.6,13.5L78.9,13.6C78.8,14.9,78.7,15.9,78.7,16.7C78.7,17.6,78.8,18.2,79.1,18.7C79.1,18.8,79.2,18.9,79.2,18.9C79.2,19.2,78.9,19.2,78.3,19.2C77.7,19.1,77.0,18.7,76.0,18.2C75.0,17.6,74.1,16.7,73.1,15.4C72.1,16.1,71.1,16.6,70.1,17.1C69.1,17.5,67.8,17.9,66.3,18.4L66.2,18.0C68.6,17.2,70.7,16.0,72.5,14.4C72.0,13.0,71.7,11.4,71.5,9.7L68.2,10.1L67.5,10.4L66.6,9.8L71.4,9.3C71.4,8.5,71.3,7.5,71.3,6.2L68.9,6.3L68.4,6.6L67.7,6.0L71.3,5.7C71.2,3.8,71.2,1.9,71.1,.0L73.0,.9L72.4,1.5C72.4,2.6,72.4,4.0,72.4,5.7L76.0,5.3L77.0,4.1L78.7,5.6L72.4,6.1zM73.7,1.4L73.7,1.1C75.4,1.6,76.4,2.0,76.5,2.3C76.7,2.6,76.8,2.8,76.8,3.0C76.8,3.3,76.7,3.6,76.6,3.9C76.5,4.1,76.4,4.3,76.3,4.3C76.2,4.3,76.0,4.0,75.8,3.6C75.4,3.0,74.7,2.3,73.7,1.4zM64.6,.3L66.3,1.4C65.8,1.6,65.4,2.1,64.9,3.0C64.4,4.0,63.5,5.4,62.2,7.2L65.5,6.9C66.2,5.8,66.7,4.7,67.1,3.6L68.6,4.7C68.2,4.9,67.5,5.7,66.6,7.1C65.7,8.4,64.5,10.1,63.0,12.0C63.8,11.9,65.5,11.6,68.1,11.1L68.1,11.4C66.6,11.8,65.5,12.1,64.6,12.4C63.8,12.7,63.0,13.2,62.2,13.7L61.2,12.0C61.8,11.8,62.5,11.2,63.3,10.2C64.1,9.2,64.8,8.2,65.4,7.2C64.8,7.3,64.1,7.5,63.5,7.7C62.8,7.9,62.2,8.2,61.7,8.7L60.8,7.1C61.4,7.0,62.1,6.2,62.9,4.8C63.7,3.3,64.3,1.9,64.6,.3zM60.7,16.0C62.2,15.8,63.5,15.6,64.4,15.4C65.3,15.3,66.8,15.0,68.9,14.5L69.0,14.8C66.5,15.6,64.7,16.1,63.6,16.5C62.5,16.9,61.8,17.3,61.5,17.6L60.7,16.0zM90.6,8.2C90.7,6.9,90.7,5.7,90.7,4.5C90.7,3.2,90.7,2.0,90.6,.8L91.9,1.6L97.9,1.6L98.6,.8L99.8,2.0L99.0,2.5C99.0,5.0,99.0,6.6,99.1,7.4L97.9,7.8L97.9,6.8L91.8,6.8L91.8,7.7L90.6,8.2zM91.8,2.1L91.8,6.3L97.9,6.3L97.9,2.1L91.8,2.1zM89.6,9.3L98.1,9.3L99.0,8.4L100.3,9.8L95.3,9.8L95.3,13.3L97.7,13.3L98.6,12.4L99.9,13.8L95.3,13.8L95.3,17.6L98.5,17.6L99.5,16.6L100.9,18.0L91.1,18.0C90.3,18.0,89.7,18.1,89.1,18.3L88.3,17.6L94.3,17.6L94.3,13.8L92.8,13.8C92.1,13.8,91.4,13.9,90.8,14.0L90.1,13.3L94.3,13.3L94.3,9.8L92.3,9.8C91.6,9.8,90.9,9.8,90.3,10.0L89.6,9.3zM85.5,2.4C84.8,2.5,83.6,2.6,82.0,2.8L82.0,2.5C83.1,2.3,84.3,2.0,85.7,1.6C87.1,1.1,88.0,.7,88.4,.3L89.5,1.8C89.0,1.8,88.0,1.9,86.5,2.2L86.5,6.3L87.8,6.3L88.7,5.4L90.0,6.8L86.5,6.8L86.5,8.4C87.7,8.9,88.4,9.3,88.8,9.6C89.2,10.0,89.3,10.3,89.3,10.7C89.3,10.9,89.3,11.2,89.1,11.4C89.0,11.7,88.9,11.8,88.8,11.8C88.6,11.8,88.4,11.5,88.2,11.0C87.9,10.2,87.3,9.4,86.5,8.7C86.5,14.4,86.6,17.7,86.6,18.7L85.4,19.3C85.4,17.2,85.5,14.0,85.5,9.8C84.5,12.3,83.2,14.4,81.6,16.1L81.5,15.8C82.6,14.1,83.4,12.5,84.0,10.9C84.6,9.3,85.0,8.0,85.2,6.8L84.1,6.8C83.4,6.8,82.7,6.9,82.1,7.1L81.4,6.3L85.5,6.3L85.5,2.4zM109.4,5.2L109.4,11.4L114.5,11.4L114.5,5.2L109.4,5.2zM108.3,4.7C108.3,3.0,108.3,1.6,108.2,.5L110.0,1.3L109.4,1.9L109.4,4.7L114.5,4.7C114.5,2.5,114.5,1.0,114.4,.3L116.2,1.2L115.7,1.7L115.7,4.7L118.4,4.7L119.4,3.6L121.0,5.2L115.7,5.2L115.7,11.4L118.6,11.4L119.9,10.1L121.7,11.9L105.1,11.9C104.4,11.9,103.7,12.0,103.1,12.1L102.4,11.4L108.3,11.4L108.3,5.2L106.1,5.2C105.4,5.2,104.8,5.3,104.2,5.4L103.4,4.7L108.3,4.7zM109.2,12.3L110.9,13.8L110.0,14.1C108.3,15.6,107.0,16.7,106.0,17.4C105.0,18.1,103.9,18.8,102.8,19.4L102.6,19.0C104.5,17.7,106.1,16.4,107.2,15.1C108.3,13.8,109.0,12.9,109.2,12.3zM113.5,13.3L113.6,13.0C117.3,14.6,119.4,15.7,119.8,16.2C120.1,16.8,120.3,17.3,120.3,17.6C120.3,17.9,120.3,18.1,120.2,18.3C120.1,18.6,120.0,18.7,119.9,18.7C119.7,18.7,119.2,18.2,118.5,17.3C117.5,16.1,115.9,14.8,113.5,13.3zM129.8,17.3C130.9,17.5,131.7,17.6,132.2,17.6C132.7,17.6,132.9,17.3,132.9,16.7L132.9,14.2L126.2,14.2C125.5,14.2,124.9,14.3,124.3,14.4L123.5,13.7L132.9,13.7L132.9,11.6L134.0,12.1L137.5,10.5L128.9,10.5C128.2,10.5,127.5,10.6,126.9,10.7L126.2,10.0L137.6,10.0L138.6,9.2L140.1,10.7C139.3,10.6,137.4,11.2,134.3,12.4L134.9,12.7L134.0,13.1L134.0,13.7L139.6,13.7L140.9,12.4L142.7,14.2L134.0,14.2L134.0,17.3C134.1,18.3,133.5,19.0,132.2,19.4C132.2,18.8,131.4,18.2,129.7,17.6L129.8,17.3zM127.7,4.2L129.1,4.9L137.0,4.9L137.7,4.1L139.0,5.2L138.4,5.7C138.4,7.0,138.4,8.0,138.5,8.5L137.2,9.1L137.2,8.2L129.0,8.2L129.0,8.9L127.7,9.3C127.8,8.4,127.8,7.6,127.8,6.6C127.8,5.7,127.8,4.9,127.7,4.2zM129.0,5.4L129.0,7.7L137.2,7.7L137.2,5.4L129.0,5.4zM131.4,.2L131.6,.0C133.2,.5,134.1,1.0,134.2,1.2C134.2,1.5,134.3,1.7,134.3,1.9C134.3,2.2,134.2,2.5,134.0,2.7C133.9,2.9,133.7,3.0,133.6,3.0C133.5,3.0,133.3,2.8,133.1,2.4C132.9,1.8,132.3,1.1,131.4,.2zM124.6,3.0L138.8,3.0L140.0,1.8L141.8,3.5L127.3,3.5C126.6,3.5,125.9,3.6,125.3,3.8L124.6,3.0zM147.3,4.8L147.3,10.1L151.6,10.1L151.6,4.8L147.3,4.8zM147.3,10.6L147.3,16.3L151.6,16.3L151.6,10.6L147.3,10.6zM152.7,5.3C152.7,11.7,152.7,15.9,152.7,17.9L151.6,18.5L151.6,16.8L147.3,16.8L147.3,18.2L146.2,18.9C146.2,16.3,146.3,13.7,146.3,11.2C146.3,8.7,146.2,6.1,146.2,3.6L147.4,4.3L148.2,4.3C148.8,2.5,149.1,1.1,149.1,.0L150.9,1.1C150.4,1.3,149.7,2.4,148.7,4.3L151.4,4.3L152.3,3.5L153.5,4.8L152.7,5.3zM156.7,.2L158.5,1.2C158.0,1.5,157.4,2.6,156.4,4.6L160.9,4.6L161.8,3.7L163.0,4.9L162.3,5.5C162.1,11.9,162.0,15.5,161.8,16.4C161.6,17.2,161.3,17.8,161.0,18.1C160.6,18.5,160.1,18.8,159.3,19.0C159.0,18.2,158.1,17.5,156.6,17.1L156.6,16.7C158.0,16.9,158.9,17.1,159.6,17.1C160.2,17.1,160.5,16.6,160.7,15.7C160.8,14.7,160.9,11.2,161.0,5.1L156.3,5.1C155.3,6.7,154.2,8.0,153.2,9.1L152.9,8.9C154.1,7.2,154.9,5.6,155.4,4.3C156.0,2.9,156.4,1.5,156.7,.2zM155.2,8.2C156.5,9.2,157.3,9.9,157.5,10.4C157.7,10.8,157.8,11.2,157.8,11.4C157.8,11.8,157.7,12.1,157.5,12.4C157.3,12.7,157.1,12.8,157.0,12.8C156.8,12.8,156.6,12.4,156.5,11.6C156.3,10.6,155.8,9.5,155.0,8.4L155.2,8.2zM170.8,12.2C170.4,12.9,169.9,13.6,169.6,14.3C170.3,14.4,171.1,14.6,172.1,14.8C172.6,14.3,173.1,13.4,173.6,12.2L170.8,12.2zM167.4,1.1C168.5,1.8,169.1,2.3,169.3,2.6C169.5,3.0,169.6,3.2,169.6,3.4C169.6,3.6,169.5,3.9,169.4,4.2C169.2,4.5,169.0,4.6,168.9,4.6C168.7,4.6,168.6,4.3,168.4,3.8C168.2,3.0,167.8,2.2,167.2,1.3L167.4,1.1zM174.5,.9L176.0,1.9C175.5,2.0,175.1,2.3,174.8,2.7C174.4,3.1,173.8,3.8,172.9,4.7L172.7,4.5C173.7,2.9,174.3,1.7,174.5,.9zM170.8,.0L172.6,.8L171.9,1.4L171.9,5.2L174.0,5.2L174.9,4.3L176.3,5.7L171.9,5.7L171.9,6.4C173.2,6.7,174.0,6.9,174.3,7.2C174.6,7.4,174.7,7.7,174.7,8.1C174.7,8.3,174.7,8.5,174.6,8.7C174.6,9.0,174.5,9.1,174.4,9.1C174.3,9.1,174.1,8.9,173.8,8.5C173.4,7.9,172.8,7.4,171.9,6.8L171.9,9.4L171.0,10.0L172.1,10.5C171.8,10.6,171.5,11.0,171.0,11.7L173.6,11.7L174.2,11.0L175.4,12.1L174.6,12.5C174.1,13.7,173.6,14.6,173.2,15.1C174.0,15.3,174.6,15.5,174.9,15.8C175.2,16.0,175.4,16.4,175.4,16.7C175.4,17.1,175.3,17.3,175.1,17.3C175.0,17.3,174.8,17.2,174.6,17.0C174.0,16.5,173.3,16.2,172.5,15.8C170.6,17.4,168.3,18.4,165.7,18.9L165.6,18.6C168.1,17.8,170.1,16.7,171.5,15.4C170.4,15.0,169.4,14.8,168.3,14.6C168.5,14.3,169.0,13.5,169.6,12.2L168.6,12.2C167.9,12.2,167.2,12.3,166.6,12.5L165.9,11.7L169.8,11.7C170.0,11.2,170.2,10.5,170.5,9.8L170.9,9.9L170.9,6.6C169.4,8.3,167.7,9.6,165.8,10.5L165.6,10.3C167.6,8.8,169.2,7.3,170.2,5.7L168.7,5.7C168.0,5.7,167.4,5.7,166.8,5.9L166.0,5.2L170.9,5.2C170.9,3.2,170.8,1.5,170.8,.0zM177.5,5.7C177.8,8.8,178.4,11.5,179.5,13.6C180.4,11.8,180.9,9.1,181.1,5.7L177.5,5.7zM177.9,.0L179.8,1.1C179.4,1.2,179.0,1.6,178.8,2.1C178.6,2.5,178.2,3.6,177.6,5.2L182.3,5.2L183.3,4.2L184.7,5.7L182.4,5.7C182.0,9.7,181.3,12.7,180.2,14.7C181.5,16.2,183.0,17.2,184.7,17.6L184.7,17.9C183.6,18.0,183.1,18.4,183.0,18.9C181.6,17.9,180.4,16.8,179.5,15.5C177.7,17.3,175.5,18.5,173.0,19.4L172.8,19.1C175.4,18.0,177.4,16.5,178.8,14.6C177.8,12.0,177.2,9.2,177.2,6.2C176.6,7.6,175.8,8.9,174.8,10.2L174.6,10.0C175.9,7.8,177.0,4.5,177.9,.0zM195.9,19.4C195.9,18.2,196.0,16.9,196.0,15.5C196.0,14.2,195.9,13.0,195.9,12.0L197.0,12.6L199.3,12.6L199.3,9.4L195.5,9.4C195.1,13.2,193.6,16.4,191.1,18.9L190.9,18.7C192.1,17.1,193.0,15.3,193.6,13.3C194.3,11.3,194.6,9.0,194.6,6.4C194.6,3.7,194.6,1.8,194.6,.7L195.8,1.4L202.5,1.4L203.2,.7L204.3,1.8L203.7,2.2C203.7,3.9,203.7,5.1,203.8,5.8L202.6,6.3L202.6,5.3L195.7,5.3C195.7,6.4,195.7,7.5,195.6,8.9L199.3,8.9C199.3,7.8,199.3,6.8,199.3,5.8L201.1,6.6L200.4,7.1L200.4,8.9L203.1,8.9L204.0,8.0L205.4,9.4L200.4,9.4L200.4,12.6L202.5,12.6L203.2,11.9L204.3,13.0L203.7,13.5C203.7,15.6,203.7,17.3,203.8,18.5L202.6,19.2L202.6,17.5L197.0,17.5L197.0,18.9L195.9,19.4zM195.7,1.9L195.7,4.8L202.6,4.8L202.6,1.9L195.7,1.9zM197.0,13.1L197.0,17.0L202.6,17.0L202.6,13.1L197.0,13.1zM191.1,9.2L193.8,7.6L194.0,8.0L191.1,10.1L191.1,16.7C191.1,17.7,190.5,18.4,189.3,18.9C189.4,18.3,188.8,17.7,187.3,17.1L187.3,16.8C188.5,17.0,189.2,17.1,189.5,17.1C189.8,17.1,190.0,16.9,190.0,16.5L190.0,10.7C188.5,11.8,187.7,12.5,187.6,12.8L186.4,11.3C186.7,11.3,187.9,10.7,190.0,9.7L190.0,5.5L188.1,5.5L187.1,5.7L186.5,5.0L190.0,5.0C190.0,2.8,190.0,1.2,189.9,.2L191.8,1.2L191.1,1.8L191.1,5.0L192.0,5.0L193.1,4.1L194.3,5.5L191.1,5.5L191.1,9.2zM213.3,4.6C214.8,5.7,216.4,7.1,218.2,8.8C218.9,7.8,219.5,6.8,220.0,5.9C220.6,5.0,221.0,4.3,221.2,3.6L223.1,4.9C222.6,5.0,222.0,5.6,221.3,6.5C220.6,7.5,219.9,8.5,219.1,9.5C221.1,11.4,222.1,12.6,222.3,13.0C222.5,13.5,222.6,13.9,222.6,14.2C222.6,14.5,222.5,14.8,222.3,15.1C222.2,15.4,222.1,15.5,222.1,15.5C221.9,15.5,221.7,15.2,221.4,14.7C221.0,13.9,220.5,13.2,220.0,12.6C219.6,12.0,219.0,11.3,218.4,10.5C217.2,11.8,216.1,12.8,215.1,13.7C214.0,14.6,213.1,15.3,212.3,15.8L212.1,15.5C213.1,14.7,214.0,13.8,214.9,12.9C215.8,12.0,216.7,10.9,217.5,9.7C216.1,7.9,214.6,6.3,213.0,4.8L213.3,4.6zM210.7,1.7L222.9,1.7L224.0,.6L225.6,2.2L210.7,2.2L210.7,17.6L223.2,17.6L224.4,16.4L225.8,18.0L210.7,18.0L210.2,18.8L209.0,17.8L209.5,17.3L209.5,3.8C209.5,3.3,209.5,2.4,209.4,1.0L210.7,1.7z" fill="#f3655d" transform="translate(265.17,489.52)" fill-rule="nonzero" stroke="#f3655d" id="shape20"/>
        <path d="M11.7,6.2C11.7,6.9,11.8,7.9,11.9,9.2L15.8,8.8L16.8,7.5L18.5,8.9L12.0,9.6C12.1,11.3,12.4,12.6,12.8,13.6C14.0,12.5,15.0,11.4,15.7,10.2L17.1,11.6L16.4,11.7C15.4,12.7,14.3,13.7,13.3,14.7C14.3,16.1,15.4,17.0,16.7,17.6L17.9,13.6L18.2,13.7C18.1,15.0,18.0,16.0,18.0,16.8C18.0,17.6,18.1,18.3,18.4,18.8C18.4,18.9,18.5,19.0,18.5,19.0C18.5,19.3,18.2,19.3,17.6,19.2C17.0,19.2,16.3,18.8,15.3,18.3C14.3,17.7,13.4,16.8,12.4,15.5C11.4,16.2,10.4,16.7,9.4,17.1C8.4,17.6,7.1,18.0,5.6,18.5L5.5,18.1C7.8,17.3,10.0,16.1,11.8,14.5C11.3,13.0,11.0,11.5,10.8,9.8L7.5,10.2L6.8,10.5L5.9,9.8L10.7,9.4C10.7,8.6,10.6,7.5,10.6,6.2L8.2,6.4L7.7,6.7L7.0,6.1L10.6,5.8C10.5,3.9,10.5,2.0,10.4,.0L12.3,1.0L11.6,1.6C11.6,2.7,11.7,4.1,11.7,5.7L15.3,5.4L16.3,4.2L18.0,5.7L11.7,6.2zM13.0,1.5L13.0,1.2C14.7,1.7,15.7,2.0,15.8,2.3C16.0,2.6,16.1,2.9,16.1,3.1C16.1,3.4,16.0,3.7,15.9,3.9C15.8,4.2,15.7,4.3,15.6,4.3C15.5,4.3,15.3,4.1,15.1,3.7C14.7,3.1,14.0,2.4,13.0,1.5zM3.9,.4L5.6,1.5C5.1,1.6,4.7,2.2,4.2,3.1C3.7,4.1,2.8,5.5,1.5,7.3L4.8,7.0C5.5,5.9,6.0,4.8,6.4,3.7L7.9,4.8C7.5,5.0,6.8,5.8,5.9,7.1C5.0,8.5,3.8,10.1,2.3,12.1C3.1,11.9,4.8,11.6,7.4,11.2L7.4,11.5C5.9,11.9,4.8,12.2,3.9,12.5C3.1,12.8,2.3,13.2,1.5,13.8L.5,12.1C1.1,11.9,1.8,11.3,2.6,10.3C3.4,9.3,4.1,8.3,4.7,7.3C4.1,7.4,3.4,7.6,2.8,7.8C2.1,7.9,1.5,8.3,1.0,8.8L.0,7.2C.7,7.1,1.4,6.3,2.2,4.9C3.0,3.4,3.6,1.9,3.9,.4zM.0,16.1C1.5,15.9,2.8,15.7,3.7,15.5C4.6,15.3,6.1,15.0,8.2,14.6L8.3,14.9C5.8,15.6,4.0,16.2,2.9,16.6C1.8,17.0,1.1,17.4,.8,17.6L.0,16.1zM29.9,8.3C30.0,7.0,30.0,5.8,30.0,4.6C30.0,3.3,30.0,2.1,29.9,.9L31.2,1.6L37.2,1.6L37.9,.9L39.0,2.1L38.3,2.5C38.3,5.1,38.3,6.7,38.4,7.5L37.2,7.9L37.2,6.9L31.1,6.9L31.1,7.8L29.9,8.3zM31.1,2.1L31.1,6.4L37.2,6.4L37.2,2.1L31.1,2.1zM28.9,9.4L37.4,9.4L38.3,8.4L39.6,9.8L34.6,9.8L34.6,13.4L37.0,13.4L37.9,12.5L39.2,13.9L34.6,13.9L34.6,17.6L37.8,17.6L38.8,16.7L40.2,18.1L30.4,18.1C29.6,18.1,29.0,18.2,28.4,18.4L27.6,17.6L33.6,17.6L33.6,13.9L32.1,13.9C31.4,13.9,30.7,13.9,30.1,14.1L29.4,13.4L33.6,13.4L33.6,9.8L31.6,9.8C30.9,9.8,30.2,9.9,29.6,10.1L28.9,9.4zM24.8,2.5C24.1,2.6,22.9,2.7,21.3,2.9L21.3,2.5C22.4,2.4,23.6,2.1,25.0,1.6C26.4,1.2,27.3,.8,27.7,.4L28.8,1.9C28.3,1.9,27.3,2.0,25.8,2.3L25.8,6.4L27.1,6.4L28.0,5.5L29.3,6.9L25.8,6.9L25.8,8.4C27.0,8.9,27.7,9.4,28.1,9.7C28.5,10.1,28.6,10.4,28.6,10.7C28.6,11.0,28.6,11.3,28.4,11.5C28.3,11.8,28.2,11.9,28.1,11.9C27.9,11.9,27.7,11.6,27.5,11.1C27.2,10.3,26.6,9.5,25.8,8.8C25.8,14.5,25.9,17.8,25.9,18.8L24.7,19.4C24.7,17.3,24.8,14.1,24.8,9.8C23.8,12.4,22.5,14.5,20.9,16.2L20.8,15.9C21.8,14.2,22.7,12.6,23.3,11.0C23.9,9.4,24.3,8.0,24.5,6.9L23.4,6.9C22.7,6.9,22.0,7.0,21.4,7.1L20.7,6.4L24.8,6.4L24.8,2.5zM51.7,10.1L51.8,9.8C52.6,10.4,53.0,10.8,53.2,11.2C53.5,11.5,53.6,11.7,53.6,11.9C53.6,12.1,53.5,12.3,53.2,12.6C53.0,12.8,52.9,12.9,52.8,12.9C52.7,12.9,52.6,12.6,52.5,12.1C52.4,11.5,52.1,10.8,51.7,10.1zM55.9,9.8L57.3,10.7L56.7,10.9C56.0,11.8,55.4,12.6,54.9,13.3L54.6,13.2C54.9,12.6,55.1,12.1,55.3,11.6C55.5,11.1,55.7,10.5,55.9,9.8zM49.5,1.6L57.6,1.6L58.5,.7L59.8,2.1L52.2,2.1C51.5,2.1,50.8,2.1,50.2,2.3L49.5,1.6zM53.7,18.3C53.8,17.0,53.8,15.6,53.8,13.9L53.6,13.9C52.9,13.9,52.2,14.0,51.6,14.2L50.9,13.5L56.1,13.5L56.9,12.6L58.2,13.9L54.8,13.9C54.8,15.5,54.8,16.8,54.9,17.8L53.7,18.3zM52.1,4.3L52.1,6.8L56.6,6.8L56.6,4.3L52.1,4.3zM51.0,8.4C51.1,7.5,51.1,6.6,51.1,5.8C51.1,4.9,51.1,4.1,51.0,3.3L52.1,3.9L56.5,3.9L57.2,3.2L58.2,4.2L57.6,4.6C57.6,5.5,57.6,6.5,57.7,7.5L56.6,8.0L56.6,7.3L52.1,7.3L52.1,7.9L51.0,8.4zM55.9,17.2C56.8,17.4,57.5,17.5,58.0,17.5C58.4,17.5,58.6,17.3,58.6,16.9L58.6,9.5L50.3,9.5L50.3,18.8L49.2,19.3C49.3,17.6,49.3,15.9,49.3,13.9C49.3,12.0,49.3,10.2,49.2,8.4L50.3,9.0L58.4,9.0L59.2,8.2L60.3,9.3L59.6,9.8L59.6,17.0C59.6,17.6,59.4,18.0,59.2,18.3C59.0,18.6,58.6,18.9,57.9,19.2C57.6,18.4,57.0,17.8,55.9,17.6L55.9,17.2zM43.1,17.3C43.1,7.2,43.0,1.7,43.0,.9L44.1,1.6L47.2,1.6L48.0,.8L49.2,2.1L48.5,2.5L45.6,7.4C46.9,8.6,47.7,9.6,48.0,10.4C48.3,11.1,48.5,11.8,48.5,12.4C48.5,13.0,48.3,13.5,48.0,13.9C47.7,14.4,47.1,14.8,46.3,15.2C46.1,14.4,45.5,13.9,44.5,13.6L44.5,13.3C45.0,13.4,45.5,13.5,46.0,13.5C46.5,13.5,46.9,13.4,47.1,13.2C47.3,13.0,47.4,12.8,47.4,12.6C47.4,12.3,47.3,11.8,47.1,10.8C46.9,9.9,46.2,8.8,45.2,7.4L47.3,2.1L44.1,2.1L44.1,18.5L43.0,19.1L43.1,17.3zM70.5,.2L70.6,.0C71.9,.3,72.7,.6,73.0,.9C73.3,1.2,73.5,1.4,73.5,1.6C73.5,1.9,73.3,2.2,73.0,2.6L79.0,2.6L80.1,1.6L81.7,3.1L65.8,3.1C65.1,3.1,64.4,3.2,63.8,3.4L63.1,2.6L72.4,2.6C72.3,2.1,72.1,1.7,71.8,1.4C71.5,1.0,71.1,.6,70.5,.2zM69.2,14.9L75.1,14.8C74.6,14.1,74.0,13.5,73.3,13.0L73.5,12.8C75.1,13.5,76.1,14.1,76.5,14.4C76.8,14.8,76.9,15.2,76.9,15.5C76.9,15.7,76.9,16.0,76.8,16.2C76.7,16.5,76.6,16.7,76.5,16.7C76.3,16.7,76.3,16.6,76.2,16.4C76.0,16.1,75.7,15.7,75.5,15.3C73.0,15.4,71.3,15.6,70.5,15.7C69.6,15.8,68.9,16.1,68.5,16.4L67.7,14.8C68.1,14.8,68.6,14.5,69.1,14.1C69.6,13.6,70.2,12.9,70.9,11.8L66.0,11.8C66.0,15.9,66.0,18.3,66.0,18.9L64.8,19.4C64.9,17.6,64.9,16.1,64.9,14.9C64.9,13.7,64.9,12.3,64.8,10.6L66.0,11.3L71.1,11.3C71.6,10.6,71.9,10.0,72.1,9.4L67.8,9.4L67.3,10.1L66.1,9.2L66.6,8.7C66.6,7.3,66.6,5.7,66.5,3.8L68.3,4.5L67.7,5.2L67.7,8.9L77.0,8.9C77.0,7.7,77.0,6.0,76.9,3.9L78.8,4.7L78.1,5.3C78.1,7.8,78.2,9.4,78.2,9.8L77.0,10.3L77.0,9.4L72.4,9.4L73.7,10.2C73.0,10.6,72.5,10.9,72.3,11.3L78.8,11.3L79.3,10.5L80.6,11.6L80.0,12.1L80.0,16.9C80.1,18.1,79.5,18.9,78.2,19.3C78.2,18.6,77.3,18.0,75.6,17.6L75.6,17.3C77.2,17.4,78.2,17.5,78.5,17.5C78.8,17.5,78.9,17.3,78.9,17.1L78.9,11.8L72.0,11.8C71.0,13.1,70.1,14.1,69.2,14.9zM72.7,5.3C73.4,4.7,74.0,4.1,74.5,3.5L75.6,4.7C75.1,4.8,74.3,5.1,73.4,5.7C74.6,6.2,75.3,6.6,75.5,6.9C75.7,7.2,75.8,7.5,75.8,7.8C75.8,8.0,75.8,8.1,75.7,8.4C75.6,8.6,75.5,8.7,75.5,8.7C75.3,8.7,75.1,8.5,74.9,8.1C74.5,7.6,73.7,7.0,72.8,6.4C71.4,7.2,69.9,7.9,68.4,8.4L68.3,8.2C69.8,7.5,71.0,6.7,72.1,5.9C71.3,5.4,70.2,4.9,69.0,4.3L69.1,4.0C70.3,4.4,71.5,4.8,72.7,5.3zM86.6,4.9L86.6,10.2L90.9,10.2L90.9,4.9L86.6,4.9zM86.6,10.7L86.6,16.4L90.9,16.4L90.9,10.7L86.6,10.7zM92.0,5.4C92.0,11.8,92.0,16.0,92.0,18.0L90.9,18.6L90.9,16.9L86.6,16.9L86.6,18.3L85.5,18.9C85.5,16.4,85.6,13.8,85.6,11.3C85.6,8.7,85.5,6.2,85.5,3.7L86.7,4.4L87.5,4.4C88.1,2.6,88.4,1.1,88.4,.2L90.2,1.1C89.7,1.4,88.9,2.5,88.0,4.4L90.7,4.4L91.5,3.6L92.8,4.8L92.0,5.4zM96.0,.2L97.8,1.3C97.3,1.6,96.7,2.7,95.7,4.7L100.2,4.7L101.1,3.8L102.3,5.0L101.6,5.6C101.4,12.0,101.3,15.6,101.1,16.4C100.9,17.3,100.6,17.9,100.3,18.2C99.9,18.5,99.4,18.8,98.6,19.1C98.3,18.2,97.4,17.6,95.9,17.1L95.9,16.7C97.3,17.0,98.2,17.1,98.8,17.1C99.4,17.1,99.8,16.7,100.0,15.8C100.1,14.8,100.2,11.3,100.3,5.2L95.6,5.2C94.6,6.8,93.5,8.1,92.4,9.2L92.2,9.0C93.4,7.3,94.2,5.7,94.7,4.3C95.3,3.0,95.7,1.6,96.0,.2zM94.5,8.3C95.8,9.3,96.6,10.0,96.8,10.5C97.0,10.9,97.1,11.3,97.1,11.5C97.1,11.9,97.0,12.2,96.8,12.5C96.6,12.7,96.4,12.9,96.3,12.9C96.1,12.9,95.9,12.5,95.8,11.7C95.6,10.6,95.1,9.6,94.3,8.5L94.5,8.3zM110.1,12.3C109.6,13.0,109.2,13.7,108.9,14.4C109.6,14.5,110.4,14.7,111.4,14.9C111.9,14.4,112.4,13.5,112.9,12.3L110.1,12.3zM106.7,1.2C107.8,1.9,108.4,2.4,108.6,2.7C108.8,3.0,108.9,3.3,108.9,3.4C108.9,3.7,108.8,4.0,108.7,4.3C108.5,4.5,108.3,4.7,108.2,4.7C108.0,4.7,107.9,4.4,107.7,3.9C107.5,3.1,107.1,2.3,106.5,1.4L106.7,1.2zM113.8,1.0L115.3,2.0C114.8,2.1,114.4,2.4,114.1,2.8C113.7,3.2,113.1,3.9,112.2,4.8L112.0,4.6C113.0,3.0,113.6,1.8,113.8,1.0zM110.1,.0L111.9,.9L111.2,1.5L111.2,5.3L113.3,5.3L114.2,4.3L115.6,5.7L111.2,5.7L111.2,6.5C112.5,6.8,113.3,7.0,113.6,7.3C113.9,7.5,114.0,7.8,114.0,8.2C114.0,8.4,114.0,8.6,113.9,8.8C113.9,9.1,113.8,9.2,113.7,9.2C113.6,9.2,113.4,9.0,113.1,8.6C112.7,8.0,112.1,7.4,111.2,6.9L111.2,9.4L110.3,10.1L111.4,10.6C111.1,10.7,110.8,11.1,110.3,11.8L112.9,11.8L113.4,11.1L114.7,12.1L113.9,12.6C113.4,13.8,112.9,14.7,112.5,15.2C113.3,15.4,113.9,15.6,114.2,15.9C114.5,16.1,114.7,16.4,114.7,16.8C114.7,17.2,114.6,17.4,114.4,17.4C114.3,17.4,114.1,17.3,113.9,17.1C113.3,16.6,112.6,16.2,111.8,15.9C109.9,17.4,107.6,18.5,105.0,18.9L104.9,18.7C107.4,17.9,109.4,16.8,110.8,15.5C109.7,15.1,108.7,14.8,107.6,14.7C107.8,14.4,108.3,13.6,108.9,12.3L107.9,12.3C107.2,12.3,106.5,12.4,105.9,12.6L105.2,11.8L109.1,11.8C109.3,11.3,109.5,10.6,109.8,9.8L110.2,10.0L110.2,6.6C108.7,8.3,107.0,9.7,105.1,10.6L104.9,10.3C106.9,8.9,108.5,7.4,109.5,5.7L108.0,5.7C107.3,5.7,106.7,5.8,106.1,6.0L105.3,5.3L110.2,5.3C110.2,3.3,110.1,1.6,110.1,.0zM116.8,5.7C117.1,8.9,117.7,11.6,118.8,13.7C119.7,11.8,120.2,9.2,120.4,5.7L116.8,5.7zM117.2,.0L119.1,1.1C118.7,1.3,118.3,1.6,118.1,2.1C117.9,2.6,117.5,3.7,116.9,5.3L121.6,5.3L122.6,4.3L124.0,5.7L121.7,5.7C121.3,9.8,120.6,12.8,119.5,14.8C120.8,16.3,122.3,17.3,123.9,17.6L123.9,18.0C122.9,18.1,122.4,18.5,122.3,18.9C120.9,18.0,119.7,16.8,118.8,15.6C117.0,17.3,114.8,18.6,112.3,19.4L112.1,19.2C114.7,18.0,116.6,16.5,118.1,14.7C117.1,12.1,116.5,9.3,116.5,6.2C115.9,7.7,115.1,9.0,114.1,10.3L113.9,10.1C115.2,7.9,116.3,4.6,117.2,.0zM135.2,19.4C135.2,18.2,135.3,17.0,135.3,15.6C135.3,14.3,135.2,13.1,135.2,12.1L136.3,12.7L138.6,12.7L138.6,9.4L134.8,9.4C134.4,13.3,132.9,16.5,130.4,19.0L130.2,18.8C131.4,17.2,132.3,15.4,132.9,13.4C133.6,11.4,133.9,9.1,133.9,6.4C133.9,3.8,133.9,1.9,133.9,.7L135.1,1.5L141.8,1.5L142.5,.8L143.6,1.9L143.0,2.3C143.0,3.9,143.0,5.1,143.1,5.9L141.9,6.4L141.9,5.4L135.0,5.4C135.0,6.5,135.0,7.6,134.9,8.9L138.6,8.9C138.6,7.9,138.6,6.9,138.6,5.9L140.4,6.7L139.7,7.2L139.7,8.9L142.4,8.9L143.3,8.0L144.7,9.4L139.7,9.4L139.7,12.7L141.8,12.7L142.5,12.0L143.6,13.0L143.0,13.5C143.0,15.7,143.0,17.4,143.1,18.6L141.9,19.3L141.9,17.6L136.3,17.6L136.3,18.9L135.2,19.4zM135.0,2.0L135.0,4.9L141.9,4.9L141.9,2.0L135.0,2.0zM136.3,13.2L136.3,17.1L141.9,17.1L141.9,13.2L136.3,13.2zM130.4,9.3L133.1,7.7L133.3,8.0L130.4,10.2L130.4,16.8C130.4,17.8,129.8,18.5,128.6,18.9C128.7,18.4,128.1,17.8,126.6,17.2L126.6,16.9C127.8,17.1,128.5,17.2,128.8,17.2C129.1,17.2,129.3,17.0,129.3,16.6L129.3,10.7C127.8,11.8,127.0,12.6,126.9,12.9L125.7,11.4C126.0,11.3,127.2,10.8,129.3,9.8L129.3,5.6L127.4,5.6L126.4,5.7L125.8,5.1L129.3,5.1C129.3,2.8,129.3,1.3,129.2,.3L131.1,1.3L130.4,1.9L130.4,5.1L131.3,5.1L132.4,4.2L133.6,5.6L130.4,5.6L130.4,9.3zM152.6,4.7C154.1,5.8,155.7,7.2,157.5,8.9C158.2,7.9,158.8,6.9,159.3,6.0C159.9,5.1,160.3,4.3,160.5,3.7L162.4,5.0C161.9,5.1,161.3,5.6,160.6,6.6C159.9,7.6,159.2,8.6,158.4,9.6C160.4,11.5,161.4,12.6,161.6,13.1C161.8,13.6,161.8,14.0,161.8,14.3C161.8,14.5,161.8,14.8,161.6,15.1C161.5,15.4,161.4,15.6,161.4,15.6C161.2,15.6,161.0,15.3,160.7,14.8C160.3,14.0,159.8,13.3,159.3,12.7C158.9,12.0,158.3,11.3,157.7,10.6C156.5,11.8,155.4,12.9,154.4,13.8C153.3,14.7,152.4,15.3,151.6,15.8L151.4,15.6C152.4,14.8,153.3,13.9,154.2,13.0C155.1,12.1,156.0,11.0,156.8,9.8C155.4,8.0,153.9,6.4,152.3,4.9L152.6,4.7zM150.0,1.8L162.2,1.8L163.3,.7L164.9,2.3L150.0,2.3L150.0,17.6L162.5,17.6L163.7,16.5L165.1,18.1L150.0,18.1L149.5,18.9L148.3,17.9L148.8,17.4L148.8,3.9C148.8,3.4,148.8,2.4,148.7,1.1L150.0,1.8z" fill="#42bfe1" transform="translate(265.17,534.48)" fill-rule="nonzero" stroke="#42bfe1" id="shape21"/>
    </g>
</svg>
