<svg width="1132" xmlns="http://www.w3.org/2000/svg" height="804" xmlns:ev="http://www.w3.org/2001/xml-events" viewBox="0 0 1132 804" xmlns:xlink="http://www.w3.org/1999/xlink"><defs/><g transform="translate(5.5,5.5)" id="page1"><rect width="1123" fill="#ffffff" height="794" x="0" y="0"/><g transform="translate(178.07,60.18)" id="shape1"><path stroke="#00ae9d" fill-rule="nonzero" fill="#00ae9d" d="M138.7,80.4C145.4,80.4,150.7,75.0,150.7,68.4L150.7,12.0C150.7,5.4,145.4,.0,138.7,.0L12.0,.0C5.4,.0,.0,5.4,.0,12.0L.0,68.4C.0,75.0,5.4,80.4,12.0,80.4L138.7,80.4z"/><text style="fill:#ffffff;font-family:Microsoft YaHei;font-size:16.00pt" xml:space="preserve"><tspan x="54.2" y="47.8">SDS</tspan></text></g><g transform="translate(178.07,178.77)" id="shape2"><path stroke="#00ae9d" fill-rule="nonzero" fill="#00ae9d" d="M138.7,80.4C145.4,80.4,150.7,75.0,150.7,68.4L150.7,12.0C150.7,5.4,145.4,.0,138.7,.0L12.0,.0C5.4,.0,.0,5.4,.0,12.0L.0,68.4C.0,75.0,5.4,80.4,12.0,80.4L138.7,80.4z"/><text style="fill:#ffffff;font-family:Microsoft YaHei;font-size:16.00pt" xml:space="preserve"><tspan x="53.8" y="47.8">链表</tspan></text></g><g transform="translate(178.07,297.36)" id="shape3"><path stroke="#00ae9d" fill-rule="nonzero" fill="#00ae9d" d="M138.7,80.4C145.4,80.4,150.7,75.0,150.7,68.4L150.7,12.0C150.7,5.4,145.4,.0,138.7,.0L12.0,.0C5.4,.0,.0,5.4,.0,12.0L.0,68.4C.0,75.0,5.4,80.4,12.0,80.4L138.7,80.4z"/><text style="fill:#ffffff;font-family:Microsoft YaHei;font-size:16.00pt" xml:space="preserve"><tspan x="53.8" y="47.8">字典</tspan></text></g><g transform="translate(178.07,415.94)" id="shape4"><path stroke="#00ae9d" fill-rule="nonzero" fill="#00ae9d" d="M138.7,80.4C145.4,80.4,150.7,75.0,150.7,68.4L150.7,12.0C150.7,5.4,145.4,.0,138.7,.0L12.0,.0C5.4,.0,.0,5.4,.0,12.0L.0,68.4C.0,75.0,5.4,80.4,12.0,80.4L138.7,80.4z"/><text style="fill:#ffffff;font-family:Microsoft YaHei;font-size:16.00pt" xml:space="preserve"><tspan x="43.0" y="47.8">跳跃表</tspan></text></g><g transform="translate(178.07,534.53)" id="shape5"><path stroke="#00ae9d" fill-rule="nonzero" fill="#00ae9d" d="M138.7,80.4C145.4,80.4,150.7,75.0,150.7,68.4L150.7,12.0C150.7,5.4,145.4,.0,138.7,.0L12.0,.0C5.4,.0,.0,5.4,.0,12.0L.0,68.4C.0,75.0,5.4,80.4,12.0,80.4L138.7,80.4z"/><text style="fill:#ffffff;font-family:Microsoft YaHei;font-size:16.00pt" xml:space="preserve"><tspan x="32.2" y="47.8">整数集合</tspan></text></g><g transform="translate(178.07,653.12)" id="shape6"><path stroke="#00ae9d" fill-rule="nonzero" fill="#00ae9d" d="M138.7,80.4C145.4,80.4,150.7,75.0,150.7,68.4L150.7,12.0C150.7,5.4,145.4,.0,138.7,.0L12.0,.0C5.4,.0,.0,5.4,.0,12.0L.0,68.4C.0,75.0,5.4,80.4,12.0,80.4L138.7,80.4z"/><text style="fill:#ffffff;font-family:Microsoft YaHei;font-size:16.00pt" xml:space="preserve"><tspan x="32.2" y="47.8">压缩列表</tspan></text></g><g transform="translate(861.46,79.28)" id="shape7"><path stroke="#50bec1" fill-rule="nonzero" fill="#50bec1" d="M74.8,94.5C85.7,94.5,94.5,85.7,94.5,74.8L94.5,19.7C94.5,8.8,85.7,.0,74.8,.0L19.7,.0C8.8,.0,.0,8.8,.0,19.7L.0,74.8C.0,85.7,8.8,94.5,19.7,94.5L74.8,94.5z"/><text style="fill:#ffffff;font-family:Microsoft YaHei;font-size:16.00pt" xml:space="preserve"><tspan x="17.6" y="54.8">string</tspan></text></g><g transform="translate(861.46,211.93)" id="shape8"><path stroke="#50bec1" fill-rule="nonzero" fill="#50bec1" d="M74.8,94.5C85.7,94.5,94.5,85.7,94.5,74.8L94.5,19.7C94.5,8.8,85.7,.0,74.8,.0L19.7,.0C8.8,.0,.0,8.8,.0,19.7L.0,74.8C.0,85.7,8.8,94.5,19.7,94.5L74.8,94.5z"/><text style="fill:#ffffff;font-family:Microsoft YaHei;font-size:16.00pt" xml:space="preserve"><tspan x="32.4" y="54.8">list</tspan></text></g><g transform="translate(861.46,344.59)" id="shape9"><path stroke="#50bec1" fill-rule="nonzero" fill="#50bec1" d="M74.8,94.5C85.7,94.5,94.5,85.7,94.5,74.8L94.5,19.7C94.5,8.8,85.7,.0,74.8,.0L19.7,.0C8.8,.0,.0,8.8,.0,19.7L.0,74.8C.0,85.7,8.8,94.5,19.7,94.5L74.8,94.5z"/><text style="fill:#ffffff;font-family:Microsoft YaHei;font-size:16.00pt" xml:space="preserve"><tspan x="22.4" y="54.8">hash</tspan></text></g><g transform="translate(861.46,477.25)" id="shape10"><path stroke="#50bec1" fill-rule="nonzero" fill="#50bec1" d="M74.8,94.5C85.7,94.5,94.5,85.7,94.5,74.8L94.5,19.7C94.5,8.8,85.7,.0,74.8,.0L19.7,.0C8.8,.0,.0,8.8,.0,19.7L.0,74.8C.0,85.7,8.8,94.5,19.7,94.5L74.8,94.5z"/><text style="fill:#ffffff;font-family:Microsoft YaHei;font-size:16.00pt" xml:space="preserve"><tspan x="32.0" y="54.8">set</tspan></text></g><g transform="translate(861.46,609.91)" id="shape11"><path stroke="#50bec1" fill-rule="nonzero" fill="#50bec1" d="M74.8,94.5C85.7,94.5,94.5,85.7,94.5,74.8L94.5,19.7C94.5,8.8,85.7,.0,74.8,.0L19.7,.0C8.8,.0,.0,8.8,.0,19.7L.0,74.8C.0,85.7,8.8,94.5,19.7,94.5L74.8,94.5z"/><text style="fill:#ffffff;font-family:Microsoft YaHei;font-size:16.00pt" xml:space="preserve"><tspan x="26.8" y="54.8">zset</tspan></text></g><g transform="translate(328.82,100.38)" id="shape12"><path stroke="#191919" stroke-width="1" fill="none" d="M.0,.0L525.7,25.8"/><path stroke-width="1" stroke="#191919" fill="#191919" d="M525.9,22.3L532.6,26.1L525.5,29.2L525.9,22.3" stroke-linecap="round"/></g><g transform="translate(328.82,218.97)" id="shape13"><path stroke="#191919" stroke-width="1" fill="none" d="M.0,.0L525.7,39.7"/><path stroke-width="1" stroke="#191919" fill="#191919" d="M526.0,36.2L532.6,40.2L525.5,43.1L526.0,36.2" stroke-linecap="round"/></g><g transform="translate(328.82,337.56)" id="shape14"><path stroke="#191919" stroke-width="1" fill="none" d="M.0,.0L383.9,39.1C384.2,35.8,387.2,33.4,390.5,33.8C393.8,34.1,396.2,37.0,395.8,40.3L525.7,53.6"/><path stroke-width="1" stroke="#191919" fill="#191919" d="M526.1,50.1L532.6,54.3L525.4,57.0L526.1,50.1" stroke-linecap="round"/></g><g transform="translate(328.82,337.56)" id="shape15"><path stroke="#191919" stroke-width="1" fill="none" d="M.0,.0L301.8,105.9C302.9,102.8,306.3,101.1,309.4,102.2C312.6,103.3,314.2,106.8,313.1,109.9L382.3,134.2C383.4,131.0,386.8,129.4,390.0,130.5C393.1,131.6,394.7,135.0,393.6,138.1L526.1,184.6"/><path stroke-width="1" stroke="#191919" fill="#191919" d="M527.2,181.4L532.6,186.9L525.0,187.9L527.2,181.4" stroke-linecap="round"/></g><g transform="translate(328.82,456.14)" id="shape16"><path stroke="#191919" stroke-width="1" fill="none" d="M.0,.0L196.7,74.2C197.8,71.1,201.3,69.5,204.4,70.7C207.5,71.9,209.1,75.3,207.9,78.4L245.8,92.8C247.0,89.7,250.4,88.1,253.5,89.3C256.6,90.4,258.2,93.9,257.0,97.0L526.2,198.5"/><path stroke-width="1" stroke="#191919" fill="#191919" d="M527.4,195.3L532.6,201.0L524.9,201.8L527.4,195.3" stroke-linecap="round"/></g><g transform="translate(328.82,693.32)" id="shape17"><path stroke="#191919" stroke-width="1" fill="none" d="M.0,.0L2.6,-0.2C2.3,-3.5,4.8,-6.3,8.1,-6.6C11.4,-6.8,14.3,-4.3,14.5,-1.0L525.7,-35.7"/><path stroke-width="1" stroke="#191919" fill="#191919" d="M525.5,-39.2L532.6,-36.2L526.0,-32.3L525.5,-39.2" stroke-linecap="round"/></g><g transform="translate(328.82,574.73)" id="shape18"><path stroke="#191919" stroke-width="1" fill="none" d="M.0,.0L164.7,-15.5C164.4,-18.8,166.8,-21.8,170.1,-22.1C173.4,-22.4,176.3,-20.0,176.6,-16.7L245.4,-23.2C245.1,-26.5,247.5,-29.4,250.8,-29.7C254.1,-30.0,257.1,-27.6,257.4,-24.3L525.7,-49.6"/><path stroke-width="1" stroke="#191919" fill="#191919" d="M525.4,-53.0L532.6,-50.2L526.1,-46.1L525.4,-53.0" stroke-linecap="round"/></g><g transform="translate(328.82,693.32)" id="shape19"><path stroke="#191919" fill="none" d="M.0,.0L19.6,-11.1C18.0,-14.0,19.0,-17.6,21.9,-19.3C24.8,-20.9,28.4,-19.9,30.0,-17.0L527.4,-298.5"/><path stroke-width="1" stroke="#191919" fill="#191919" d="M525.9,-301.1L532.6,-301.5L528.9,-295.9L525.9,-301.1" stroke-linecap="round"/></g><g transform="translate(328.82,699.80)" id="shape20"><path stroke="#191919" stroke-width="1" fill="none" d="M.0,.0L527.3,-436.2"/><path stroke-width="1" stroke="#191919" fill="#191919" d="M525.1,-438.9L532.6,-440.6L529.5,-433.5L525.1,-438.9" stroke-linecap="round"/></g></g></svg>