<svg height="1597" xmlns="http://www.w3.org/2000/svg" xmlns:xlink="http://www.w3.org/1999/xlink" width="1132" viewBox="0 0 1132 1597" xmlns:ev="http://www.w3.org/2001/xml-events"><defs/><g transform="translate(5.5,5.5)" id="page1"><rect x="0" height="1587" width="1123" fill="#fbfcfb" y="0"/><path stroke-width="2" d="M-36.4,72.2C1.4,13.0,7.2,-105.2,89.1,-105.2" stroke-linecap="round" fill="none" transform="translate(634.55,281.82)" stroke="#ff6063" id="shape1"/><path stroke-width="2" d="M3.3,-0.2C29.1,-15.7,53.9,-31.2,89.1,-31.2" stroke-linecap="round" fill="none" transform="translate(634.55,355.78)" stroke="#26a1ff" id="shape2"/><path stroke-width="2" d="M-19.6,-22.1C12.3,10.4,35.9,55.1,89.1,55.1" stroke-linecap="round" fill="none" transform="translate(634.55,442.11)" stroke="#ffcb46" id="shape3"/><path stroke-width="2" d="M-41.3,-108.4C-0.1,-33.8,-10.3,141.4,89.1,141.4" stroke-linecap="round" fill="none" transform="translate(634.55,528.43)" stroke="#fa88d8" id="shape4"/><path stroke-width="2" d="M28.6,41.4C-6.1,-2.4,-24.0,-74.4,-89.1,-74.4" stroke-linecap="round" fill="none" transform="translate(456.41,312.62)" stroke="#5cd3f3" id="shape5"/><path stroke-width="2" d="M-26.1,-0.1C-47.8,-0.3,-68.4,-0.4,-89.1,-0.4" stroke-linecap="round" fill="none" transform="translate(456.41,386.58)" stroke="#7bdd5f" id="shape6"/><path stroke-width="2" d="M32.1,-52.9C-3.8,-3.0,-17.5,85.9,-89.1,85.9" stroke-linecap="round" fill="none" transform="translate(456.41,472.91)" stroke="#fa864c" id="shape7"/><path stroke-width="2" d="M-12.5,26.5C3.0,26.5,-7.9,-26.5,12.5,-26.5" stroke-linecap="round" fill="none" transform="translate(861.12,150.16)" stroke="#ff6063" id="shape8"/><path stroke-width="2" d="M-12.5,1.8C-2.1,1.8,4.0,-1.8,12.5,-1.8" stroke-linecap="round" fill="none" transform="translate(861.12,174.88)" stroke="#ff6063" id="shape9"/><path stroke-width="2" d="M-12.5,-23.0C2.5,-23.0,-6.6,23.0,12.5,23.0" stroke-linecap="round" fill="none" transform="translate(861.12,199.61)" stroke="#ff6063" id="shape10"/><path stroke-width="2" d="M-12.5,14.1C.7,14.1,-2.5,-14.1,12.5,-14.1" stroke-linecap="round" fill="none" transform="translate(916.12,310.45)" stroke="#26a1ff" id="shape11"/><path stroke-width="2" d="M-12.5,-10.6C-0.0,-10.6,-0.7,10.6,12.5,10.6" stroke-linecap="round" fill="none" transform="translate(916.12,335.17)" stroke="#26a1ff" id="shape12"/><path stroke-width="2" d="M-12.5,38.8C4.5,38.8,-11.4,-38.8,12.5,-38.8" stroke-linecap="round" fill="none" transform="translate(861.12,458.37)" stroke="#ffcb46" id="shape13"/><path stroke-width="2" d="M-12.5,14.1C.7,14.1,-2.5,-14.1,12.5,-14.1" stroke-linecap="round" fill="none" transform="translate(861.12,483.10)" stroke="#ffcb46" id="shape14"/><path stroke-width="2" d="M-12.5,-10.6C-0.0,-10.6,-0.7,10.6,12.5,10.6" stroke-linecap="round" fill="none" transform="translate(861.12,507.82)" stroke="#ffcb46" id="shape15"/><path stroke-width="2" d="M-12.5,-35.3C4.2,-35.3,-10.7,35.3,12.5,35.3" stroke-linecap="round" fill="none" transform="translate(861.12,532.55)" stroke="#ffcb46" id="shape16"/><path stroke-width="2" d="M-12.5,14.1C.7,14.1,-2.5,-14.1,12.5,-14.1" stroke-linecap="round" fill="none" transform="translate(861.12,655.75)" stroke="#fa88d8" id="shape17"/><path stroke-width="2" d="M-12.5,-10.6C-0.0,-10.6,-0.7,10.6,12.5,10.6" stroke-linecap="round" fill="none" transform="translate(861.12,680.47)" stroke="#fa88d8" id="shape18"/><path stroke-width="2" d="M12.5,14.1C-0.7,14.1,2.5,-14.1,-12.5,-14.1" stroke-linecap="round" fill="none" transform="translate(229.84,224.12)" stroke="#5cd3f3" id="shape19"/><path stroke-width="2" d="M12.5,-10.6C.0,-10.6,.7,10.6,-12.5,10.6" stroke-linecap="round" fill="none" transform="translate(229.84,248.85)" stroke="#5cd3f3" id="shape20"/><path stroke-width="2" d="M12.5,26.5C-3.0,26.5,7.9,-26.5,-12.5,-26.5" stroke-linecap="round" fill="none" transform="translate(229.84,359.68)" stroke="#7bdd5f" id="shape21"/><path stroke-width="2" d="M12.5,1.8C2.1,1.8,-4.0,-1.8,-12.5,-1.8" stroke-linecap="round" fill="none" transform="translate(229.84,384.41)" stroke="#7bdd5f" id="shape22"/><path stroke-width="2" d="M12.5,-23.0C-2.5,-23.0,6.6,23.0,-12.5,23.0" stroke-linecap="round" fill="none" transform="translate(229.84,409.13)" stroke="#7bdd5f" id="shape23"/><path stroke-width="2" d="M12.5,26.5C-3.0,26.5,7.9,-26.5,-12.5,-26.5" stroke-linecap="round" fill="none" transform="translate(229.84,532.33)" stroke="#fa864c" id="shape24"/><path stroke-width="2" d="M12.5,1.8C2.1,1.8,-4.0,-1.8,-12.5,-1.8" stroke-linecap="round" fill="none" transform="translate(229.84,557.06)" stroke="#fa864c" id="shape25"/><path stroke-width="2" d="M12.5,-23.0C-2.5,-23.0,6.6,23.0,-12.5,23.0" stroke-linecap="round" fill="none" transform="translate(229.84,581.78)" stroke="#fa864c" id="shape26"/><g transform="translate(430.34,354.01)" id="shape27"><path stroke-width="4" d="M33.0,.0L197.3,.0C215.5,.0,230.3,14.8,230.3,33.0C230.3,51.2,215.5,66.0,197.3,66.0L33.0,66.0C14.8,66.0,.0,51.2,.0,33.0C.0,14.8,14.8,.0,33.0,.0z" fill="#ffffff" fill-rule="nonzero" stroke="#ffffff"/><text style="fill:#454545;font-family:Microsoft YaHei;font-size:16.00pt" xml:space="preserve"><tspan x="32.9" y="41.0">秒杀系统实施方案</tspan></text></g><g transform="translate(723.62,128.88)" id="shape28"><path stroke-width="2" d="M.0,47.8L125.0,47.8" fill="none" stroke="#ff6063"/><text style="fill:#454545;font-family:Microsoft YaHei;font-size:16.00pt" xml:space="preserve"><tspan x="21.6" y="31.8">项目搭建</tspan></text></g><g transform="translate(723.62,276.81)" id="shape29"><path stroke-width="2" d="M.0,47.8L180.0,47.8" fill="none" stroke="#26a1ff"/><text style="fill:#454545;font-family:Microsoft YaHei;font-size:16.00pt" xml:space="preserve"><tspan x="21.6" y="31.8">分布式Session</tspan></text></g><g transform="translate(723.62,449.46)" id="shape30"><path stroke-width="2" d="M.0,47.8L125.0,47.8" fill="none" stroke="#ffcb46"/><text style="fill:#454545;font-family:Microsoft YaHei;font-size:16.00pt" xml:space="preserve"><tspan x="21.6" y="31.8">功能实现</tspan></text></g><g transform="translate(723.62,622.11)" id="shape31"><path stroke-width="2" d="M.0,47.8L125.0,47.8" fill="none" stroke="#fa88d8"/><text style="fill:#454545;font-family:Microsoft YaHei;font-size:16.00pt" xml:space="preserve"><tspan x="21.6" y="31.8">压力测试</tspan></text></g><g transform="translate(242.34,190.48)" id="shape32"><path stroke-width="2" d="M.0,47.8L125.0,47.8" fill="none" stroke="#5cd3f3"/><text style="fill:#454545;font-family:Microsoft YaHei;font-size:16.00pt" xml:space="preserve"><tspan x="21.6" y="31.8">页面优化</tspan></text></g><g transform="translate(242.34,338.41)" id="shape33"><path stroke-width="2" d="M.0,47.8L125.0,47.8" fill="none" stroke="#7bdd5f"/><text style="fill:#454545;font-family:Microsoft YaHei;font-size:16.00pt" xml:space="preserve"><tspan x="21.6" y="31.8">服务优化</tspan></text></g><g transform="translate(242.34,511.06)" id="shape34"><path stroke-width="2" d="M.0,47.8L125.0,47.8" fill="none" stroke="#fa864c"/><text style="fill:#454545;font-family:Microsoft YaHei;font-size:16.00pt" xml:space="preserve"><tspan x="21.6" y="31.8">安全优化</tspan></text></g><g transform="translate(873.62,82.93)" id="shape35"><path stroke-width="2" d="M.0,40.8L221.0,40.8" fill="none" stroke="#ff6063"/><text style="fill:#454545;font-family:Microsoft YaHei;font-size:16.00pt" xml:space="preserve"><tspan x="12.6" y="28.1">IDEA创建Spring项目</tspan></text></g><g transform="translate(873.62,132.38)" id="shape36"><path stroke-width="2" d="M.0,40.8L195.0,40.8" fill="none" stroke="#ff6063"/><text style="fill:#454545;font-family:Microsoft YaHei;font-size:16.00pt" xml:space="preserve"><tspan x="12.6" y="28.1">pom.xml添加依赖</tspan></text></g><g transform="translate(873.62,181.83)" id="shape37"><path stroke-width="2" d="M.0,40.8L149.0,40.8" fill="none" stroke="#ff6063"/><text style="fill:#454545;font-family:Microsoft YaHei;font-size:16.00pt" xml:space="preserve"><tspan x="12.6" y="28.1">修改配置文件</tspan></text></g><g transform="translate(928.62,255.58)" id="shape38"><path stroke-width="2" d="M.0,40.8L107.0,40.8" fill="none" stroke="#26a1ff"/><text style="fill:#454545;font-family:Microsoft YaHei;font-size:16.00pt" xml:space="preserve"><tspan x="12.6" y="28.1">用户登陆</tspan></text></g><g transform="translate(928.62,305.03)" id="shape39"><path stroke-width="2" d="M.0,40.8L141.0,40.8" fill="none" stroke="#26a1ff"/><text style="fill:#454545;font-family:Microsoft YaHei;font-size:16.00pt" xml:space="preserve"><tspan x="12.6" y="28.1">共享Session</tspan></text></g><g transform="translate(873.62,378.78)" id="shape40"><path stroke-width="2" d="M.0,40.8L107.0,40.8" fill="none" stroke="#ffcb46"/><text style="fill:#454545;font-family:Microsoft YaHei;font-size:16.00pt" xml:space="preserve"><tspan x="12.6" y="28.1">商品列表</tspan></text></g><g transform="translate(873.62,428.23)" id="shape41"><path stroke-width="2" d="M.0,40.8L108.0,40.8" fill="none" stroke="#ffcb46"/><text style="fill:#454545;font-family:Microsoft YaHei;font-size:16.00pt" xml:space="preserve"><tspan x="13.1" y="28.1">商品详情</tspan></text></g><g transform="translate(873.62,477.68)" id="shape42"><path stroke-width="2" d="M.0,40.8L65.0,40.8" fill="none" stroke="#ffcb46"/><text style="fill:#454545;font-family:Microsoft YaHei;font-size:16.00pt" xml:space="preserve"><tspan x="12.6" y="28.1">秒杀</tspan></text></g><g transform="translate(873.62,527.13)" id="shape43"><path stroke-width="2" d="M.0,40.8L108.0,40.8" fill="none" stroke="#ffcb46"/><text style="fill:#454545;font-family:Microsoft YaHei;font-size:16.00pt" xml:space="preserve"><tspan x="13.1" y="28.1">订单详情</tspan></text></g><g transform="translate(873.62,600.88)" id="shape44"><path stroke-width="2" d="M.0,40.8L134.0,40.8" fill="none" stroke="#fa88d8"/><text style="fill:#454545;font-family:Microsoft YaHei;font-size:16.00pt" xml:space="preserve"><tspan x="12.6" y="28.1">JMeter入门</tspan></text></g><g transform="translate(873.62,650.33)" id="shape45"><path stroke-width="2" d="M.0,40.8L239.0,40.8" fill="none" stroke="#fa88d8"/><text style="fill:#454545;font-family:Microsoft YaHei;font-size:16.00pt" xml:space="preserve"><tspan x="12.6" y="28.1">JMeter自定义变量压测</tspan></text></g><g transform="translate(152.34,169.26)" id="shape46"><path stroke-width="2" d="M.0,40.8L65.0,40.8" fill="none" stroke="#5cd3f3"/><text style="fill:#454545;font-family:Microsoft YaHei;font-size:16.00pt" xml:space="preserve"><tspan x="12.6" y="28.1">缓存</tspan></text></g><g transform="translate(89.34,218.71)" id="shape47"><path stroke-width="2" d="M.0,40.8L128.0,40.8" fill="none" stroke="#5cd3f3"/><text style="fill:#454545;font-family:Microsoft YaHei;font-size:16.00pt" xml:space="preserve"><tspan x="12.6" y="28.1">静态化分离</tspan></text></g><g transform="translate(6.34,292.46)" id="shape48"><path stroke-width="2" d="M.0,40.8L211.0,40.8" fill="none" stroke="#7bdd5f"/><text style="fill:#454545;font-family:Microsoft YaHei;font-size:16.00pt" xml:space="preserve"><tspan x="12.6" y="28.1">RabbitMQ消息队列</tspan></text></g><g transform="translate(110.34,341.91)" id="shape49"><path stroke-width="2" d="M.0,40.8L107.0,40.8" fill="none" stroke="#7bdd5f"/><text style="fill:#454545;font-family:Microsoft YaHei;font-size:16.00pt" xml:space="preserve"><tspan x="12.6" y="28.1">接口优化</tspan></text></g><g transform="translate(110.34,391.36)" id="shape50"><path stroke-width="2" d="M.0,40.8L107.0,40.8" fill="none" stroke="#7bdd5f"/><text style="fill:#454545;font-family:Microsoft YaHei;font-size:16.00pt" xml:space="preserve"><tspan x="12.6" y="28.1">分布式锁</tspan></text></g><g transform="translate(68.34,465.11)" id="shape51"><path stroke-width="2" d="M.0,40.8L149.0,40.8" fill="none" stroke="#fa864c"/><text style="fill:#454545;font-family:Microsoft YaHei;font-size:16.00pt" xml:space="preserve"><tspan x="12.6" y="28.1">隐藏秒杀地址</tspan></text></g><g transform="translate(131.34,514.56)" id="shape52"><path stroke-width="2" d="M.0,40.8L86.0,40.8" fill="none" stroke="#fa864c"/><text style="fill:#454545;font-family:Microsoft YaHei;font-size:16.00pt" xml:space="preserve"><tspan x="12.6" y="28.1">验证码</tspan></text></g><g transform="translate(110.34,564.01)" id="shape53"><path stroke-width="2" d="M.0,40.8L107.0,40.8" fill="none" stroke="#fa864c"/><text style="fill:#454545;font-family:Microsoft YaHei;font-size:16.00pt" xml:space="preserve"><tspan x="12.6" y="28.1">接口限流</tspan></text></g><path stroke-width="2" d="M-12.5,51.6C5.0,51.6,-12.5,-51.6,12.5,-51.6" stroke-linecap="round" fill="none" transform="translate(657.83,1125.05)" stroke="#7bdd5f" id="shape54"/><path stroke-width="2" d="M-12.5,-22.5C2.4,-22.5,-6.4,22.5,12.5,22.5" stroke-linecap="round" fill="none" transform="translate(657.83,1199.22)" stroke="#7bdd5f" id="shape55"/><path stroke-width="2" d="M-12.5,-84.4C5.0,-84.4,-12.5,84.4,12.5,84.4" stroke-linecap="round" fill="none" transform="translate(657.83,1261.03)" stroke="#7bdd5f" id="shape56"/><path stroke-width="2" d="M-12.5,24.7C2.8,24.7,-7.3,-24.7,12.5,-24.7" stroke-linecap="round" fill="none" transform="translate(747.83,1048.70)" stroke="#7bdd5f" id="shape57"/><path stroke-width="2" d="M-12.5,.0C-2.5,.0,5.0,.0,12.5,.0" stroke-linecap="round" fill="none" transform="translate(747.83,1073.42)" stroke="#7bdd5f" id="shape58"/><path stroke-width="2" d="M-12.5,-24.7C2.8,-24.7,-7.3,24.7,12.5,24.7" stroke-linecap="round" fill="none" transform="translate(747.83,1098.15)" stroke="#7bdd5f" id="shape59"/><path stroke-width="2" d="M-12.5,24.7C2.8,24.7,-7.3,-24.7,12.5,-24.7" stroke-linecap="round" fill="none" transform="translate(747.83,1197.05)" stroke="#7bdd5f" id="shape60"/><path stroke-width="2" d="M-12.5,.0C-2.5,.0,5.0,.0,12.5,.0" stroke-linecap="round" fill="none" transform="translate(747.83,1221.77)" stroke="#7bdd5f" id="shape61"/><path stroke-width="2" d="M-12.5,-24.7C2.8,-24.7,-7.3,24.7,12.5,24.7" stroke-linecap="round" fill="none" transform="translate(747.83,1246.50)" stroke="#7bdd5f" id="shape62"/><path stroke-width="2" d="M-12.5,12.4C.3,12.4,-1.6,-12.4,12.5,-12.4" stroke-linecap="round" fill="none" transform="translate(768.83,1333.03)" stroke="#7bdd5f" id="shape63"/><path stroke-width="2" d="M-12.5,-12.4C.3,-12.4,-1.6,12.4,12.5,12.4" stroke-linecap="round" fill="none" transform="translate(768.83,1357.76)" stroke="#7bdd5f" id="shape64"/><g transform="translate(456.33,1152.17)" id="shape65"><path d="M4.0,.0L185.0,.0C187.2,.0,189.0,1.8,189.0,4.0L189.0,45.0C189.0,47.2,187.2,49.0,185.0,49.0L4.0,49.0C1.8,49.0,.0,47.2,.0,45.0L.0,4.0C.0,1.8,1.8,.0,4.0,.0z" fill="#a98ae7" fill-rule="nonzero" stroke="#a98ae7"/><text style="fill:#ffffff;font-family:Microsoft YaHei;font-size:16.00pt" xml:space="preserve"><tspan x="22.8" y="32.5">秒杀系统技术点</tspan></text></g><g transform="translate(670.33,1032.67)" id="shape66"><path stroke-width="2" d="M.0,40.8L65.0,40.8" fill="none" stroke="#7bdd5f"/><text style="fill:#454545;font-family:Microsoft YaHei;font-size:16.00pt" xml:space="preserve"><tspan x="12.6" y="28.1">前端</tspan></text></g><g transform="translate(670.33,1181.02)" id="shape67"><path stroke-width="2" d="M.0,40.8L65.0,40.8" fill="none" stroke="#7bdd5f"/><text style="fill:#454545;font-family:Microsoft YaHei;font-size:16.00pt" xml:space="preserve"><tspan x="12.6" y="28.1">后端</tspan></text></g><g transform="translate(670.33,1304.65)" id="shape68"><path stroke-width="2" d="M.0,40.8L86.0,40.8" fill="none" stroke="#7bdd5f"/><text style="fill:#454545;font-family:Microsoft YaHei;font-size:16.00pt" xml:space="preserve"><tspan x="12.6" y="28.1">中间件</tspan></text></g><g transform="translate(760.33,983.22)" id="shape69"><path stroke-width="2" d="M.0,40.8L128.0,40.8" fill="none" stroke="#7bdd5f"/><text style="fill:#454545;font-family:Microsoft YaHei;font-size:16.00pt" xml:space="preserve"><tspan x="12.6" y="28.1">Thymeleaf</tspan></text></g><g transform="translate(760.33,1032.67)" id="shape70"><path stroke-width="2" d="M.0,40.8L121.0,40.8" fill="none" stroke="#7bdd5f"/><text style="fill:#454545;font-family:Microsoft YaHei;font-size:16.00pt" xml:space="preserve"><tspan x="12.6" y="28.1">Bootstrap</tspan></text></g><g transform="translate(760.33,1082.12)" id="shape71"><path stroke-width="2" d="M.0,40.8L99.0,40.8" fill="none" stroke="#7bdd5f"/><text style="fill:#454545;font-family:Microsoft YaHei;font-size:16.00pt" xml:space="preserve"><tspan x="12.6" y="28.1">Jqueryy</tspan></text></g><g transform="translate(760.33,1131.57)" id="shape72"><path stroke-width="2" d="M.0,40.8L135.0,40.8" fill="none" stroke="#7bdd5f"/><text style="fill:#454545;font-family:Microsoft YaHei;font-size:16.00pt" xml:space="preserve"><tspan x="12.6" y="28.1">SpringBoot</tspan></text></g><g transform="translate(760.33,1181.02)" id="shape73"><path stroke-width="2" d="M.0,40.8L146.0,40.8" fill="none" stroke="#7bdd5f"/><text style="fill:#454545;font-family:Microsoft YaHei;font-size:16.00pt" xml:space="preserve"><tspan x="12.6" y="28.1">MyBaitsPlus</tspan></text></g><g transform="translate(760.33,1230.47)" id="shape74"><path stroke-width="2" d="M.0,40.8L104.0,40.8" fill="none" stroke="#7bdd5f"/><text style="fill:#454545;font-family:Microsoft YaHei;font-size:16.00pt" xml:space="preserve"><tspan x="12.6" y="28.1">Lombok</tspan></text></g><g transform="translate(781.33,1279.92)" id="shape75"><path stroke-width="2" d="M.0,40.8L127.0,40.8" fill="none" stroke="#7bdd5f"/><text style="fill:#454545;font-family:Microsoft YaHei;font-size:16.00pt" xml:space="preserve"><tspan x="12.6" y="28.1">RabbitMQ</tspan></text></g><g transform="translate(781.33,1329.37)" id="shape76"><path stroke-width="2" d="M.0,40.8L78.0,40.8" fill="none" stroke="#7bdd5f"/><text style="fill:#454545;font-family:Microsoft YaHei;font-size:16.00pt" xml:space="preserve"><tspan x="12.6" y="28.1">Redis</tspan></text></g></g></svg>