<svg height="389" xmlns="http://www.w3.org/2000/svg" xmlns:xlink="http://www.w3.org/1999/xlink" width="454" viewBox="0 0 454 389">
    <defs/>
    <g transform="translate(-207.00,-198.61)">
        <g transform="translate(208.00,368.56)" id="shape1">
            <path d="M4.0,.0L185.0,.0C187.2,.0,189.0,1.8,189.0,4.0L189.0,45.0C189.0,47.2,187.2,49.0,185.0,49.0L4.0,49.0C1.8,49.0,.0,47.2,.0,45.0L.0,4.0C.0,1.8,1.8,.0,4.0,.0z" fill="#a98ae7" fill-rule="nonzero" stroke="#a98ae7"/>
            <text style="fill:#ffffff;font-family:Microsoft YaHei;font-size:16.00pt" xml:space="preserve">
                <tspan x="22.8" y="32.5">秒杀系统技术点</tspan>
            </text>
        </g>
        <g transform="translate(422.00,249.06)" id="shape2">
            <path stroke-width="2" d="M.0,40.8L65.0,40.8" fill="none" stroke="#7bdd5f"/>
            <text style="fill:#454545;font-family:Microsoft YaHei;font-size:16.00pt" xml:space="preserve">
                <tspan x="12.6" y="28.1">前端</tspan>
            </text>
        </g>
        <g transform="translate(422.00,397.41)" id="shape3">
            <path stroke-width="2" d="M.0,40.8L65.0,40.8" fill="none" stroke="#7bdd5f"/>
            <text style="fill:#454545;font-family:Microsoft YaHei;font-size:16.00pt" xml:space="preserve">
                <tspan x="12.6" y="28.1">后端</tspan>
            </text>
        </g>
        <g transform="translate(422.00,521.03)" id="shape4">
            <path stroke-width="2" d="M.0,40.8L86.0,40.8" fill="none" stroke="#7bdd5f"/>
            <text style="fill:#454545;font-family:Microsoft YaHei;font-size:16.00pt" xml:space="preserve">
                <tspan x="12.6" y="28.1">中间件</tspan>
            </text>
        </g>
        <g transform="translate(512.00,199.61)" id="shape5">
            <path stroke-width="2" d="M.0,40.8L128.0,40.8" fill="none" stroke="#7bdd5f"/>
            <text style="fill:#454545;font-family:Microsoft YaHei;font-size:16.00pt" xml:space="preserve">
                <tspan x="12.6" y="28.1">Thymeleaf</tspan>
            </text>
        </g>
        <g transform="translate(512.00,249.06)" id="shape6">
            <path stroke-width="2" d="M.0,40.8L121.0,40.8" fill="none" stroke="#7bdd5f"/>
            <text style="fill:#454545;font-family:Microsoft YaHei;font-size:16.00pt" xml:space="preserve">
                <tspan x="12.6" y="28.1">Bootstrap</tspan>
            </text>
        </g>
        <g transform="translate(512.00,298.51)" id="shape7">
            <path stroke-width="2" d="M.0,40.8L99.0,40.8" fill="none" stroke="#7bdd5f"/>
            <text style="fill:#454545;font-family:Microsoft YaHei;font-size:16.00pt" xml:space="preserve">
                <tspan x="12.6" y="28.1">Jqueryy</tspan>
            </text>
        </g>
        <g transform="translate(512.00,347.96)" id="shape8">
            <path stroke-width="2" d="M.0,40.8L135.0,40.8" fill="none" stroke="#7bdd5f"/>
            <text style="fill:#454545;font-family:Microsoft YaHei;font-size:16.00pt" xml:space="preserve">
                <tspan x="12.6" y="28.1">SpringBoot</tspan>
            </text>
        </g>
        <g transform="translate(512.00,397.41)" id="shape9">
            <path stroke-width="2" d="M.0,40.8L146.0,40.8" fill="none" stroke="#7bdd5f"/>
            <text style="fill:#454545;font-family:Microsoft YaHei;font-size:16.00pt" xml:space="preserve">
                <tspan x="12.6" y="28.1">MyBaitsPlus</tspan>
            </text>
        </g>
        <g transform="translate(512.00,446.86)" id="shape10">
            <path stroke-width="2" d="M.0,40.8L104.0,40.8" fill="none" stroke="#7bdd5f"/>
            <text style="fill:#454545;font-family:Microsoft YaHei;font-size:16.00pt" xml:space="preserve">
                <tspan x="12.6" y="28.1">Lombok</tspan>
            </text>
        </g>
        <g transform="translate(533.00,496.31)" id="shape11">
            <path stroke-width="2" d="M.0,40.8L127.0,40.8" fill="none" stroke="#7bdd5f"/>
            <text style="fill:#454545;font-family:Microsoft YaHei;font-size:16.00pt" xml:space="preserve">
                <tspan x="12.6" y="28.1">RabbitMQ</tspan>
            </text>
        </g>
        <g transform="translate(533.00,545.76)" id="shape12">
            <path stroke-width="2" d="M.0,40.8L78.0,40.8" fill="none" stroke="#7bdd5f"/>
            <text style="fill:#454545;font-family:Microsoft YaHei;font-size:16.00pt" xml:space="preserve">
                <tspan x="12.6" y="28.1">Redis</tspan>
            </text>
        </g>
    </g>
</svg>
