<svg width="1179" height="591" xmlns="http://www.w3.org/2000/svg" xmlns:xlink="http://www.w3.org/1999/xlink" overflow="hidden"><defs><clipPath id="clip0"><rect x="48" y="63" width="1179" height="591"/></clipPath></defs><g clip-path="url(#clip0)" transform="translate(-48 -63)"><path d="M49.5001 258.5C49.5001 253.53 53.5296 249.5 58.5002 249.5L144.5 249.5C149.471 249.5 153.5 253.53 153.5 258.5L153.5 294.5C153.5 299.471 149.471 303.5 144.5 303.5L58.5002 303.5C53.5296 303.5 49.5001 299.471 49.5001 294.5Z" stroke="#000000" stroke-width="1.33333" stroke-miterlimit="8" fill="#FFFFFF" fill-rule="evenodd"/><text font-family="Microsoft YaHei,Microsoft YaHei_MSFontService,sans-serif" font-weight="400" font-size="19" transform="translate(82.0994 283)">开始</text><rect x="255.5" y="236.5" width="164" height="80" stroke="#000000" stroke-width="1.33333" stroke-miterlimit="8" fill="#FFFFFF"/><text font-family="Microsoft YaHei,Microsoft YaHei_MSFontService,sans-serif" font-weight="400" font-size="19" transform="translate(267.881 272)">Docker<tspan font-size="19" x="62.9333" y="0">在本机中</tspan><tspan font-size="19" x="22.1333" y="22">寻找该镜像</tspan></text><rect x="522.5" y="64.5001" width="172" height="80" stroke="#000000" stroke-width="1.33333" stroke-miterlimit="8" fill="#FFFFFF"/><text font-family="Microsoft YaHei,Microsoft YaHei_MSFontService,sans-serif" font-weight="400" font-size="19" transform="translate(533.333 99)">以该镜像为模板生<tspan font-size="19" x="9.33337" y="22">产容器实例运行</tspan></text><rect x="1061.5" y="254.5" width="164" height="80" stroke="#000000" stroke-width="1.33333" stroke-miterlimit="8" fill="#FFFFFF"/><text font-family="Microsoft YaHei,Microsoft YaHei_MSFontService,sans-serif" font-weight="400" font-size="19" transform="translate(1077.82 279)">以该镜像为模板<tspan font-size="19" x="0" y="22">生产容器实例运</tspan><tspan font-size="19" x="56" y="45">行</tspan></text><rect x="526.5" y="412.5" width="164" height="80" stroke="#000000" stroke-width="1.33333" stroke-miterlimit="8" fill="#FFFFFF"/><text font-family="Microsoft YaHei,Microsoft YaHei_MSFontService,sans-serif" font-weight="400" font-size="19" transform="translate(536.117 448)">去<tspan font-size="19" x="18.6667" y="0">Docker Hub</tspan><tspan font-size="19" x="125.1" y="0">上</tspan><tspan font-size="19" x="25.2133" y="22">查找该镜像</tspan></text><rect x="832.5" y="573.5" width="164" height="79" stroke="#000000" stroke-width="1.33333" stroke-miterlimit="8" fill="#FFFFFF"/><text font-family="Microsoft YaHei,Microsoft YaHei_MSFontService,sans-serif" font-weight="400" font-size="19" transform="translate(848.709 608)">返回错误，查不<tspan font-size="19" x="28" y="22">到该镜像</tspan></text><path d="M755.5 452.5 914.5 395.5 1073.5 452.5 914.5 509.5Z" stroke="#000000" stroke-width="1.33333" stroke-miterlimit="8" fill="#FFFFFF" fill-rule="evenodd"/><text font-family="Microsoft YaHei,Microsoft YaHei_MSFontService,sans-serif" font-weight="400" font-size="19" transform="translate(857.709 459)">Hub是否找到</text><path d="M449.5 276.5 608.5 219.5 767.5 276.5 608.5 333.5Z" stroke="#000000" stroke-width="1.33333" stroke-miterlimit="8" fill="#FFFFFF" fill-rule="evenodd"/><text font-family="Microsoft YaHei,Microsoft YaHei_MSFontService,sans-serif" font-weight="400" font-size="19" transform="translate(542.667 272)">本机是否有该镜<tspan font-size="19" x="56" y="22">像</tspan></text><path d="M153.5 276.167 248.961 276.167 248.961 276.833 153.5 276.833ZM247.628 272.5 255.628 276.5 247.628 280.5Z"/><path d="M1.15505e-06-0.333333 23.6312-0.333251 23.6312 0.333415-1.15505e-06 0.333333ZM22.2979-3.99992 30.2978 0.000104987 22.2978 4.00008Z" transform="matrix(1 0 0 -1 419.5 276.5)"/><path d="M608.833 333.5 608.833 405.812 608.167 405.812 608.167 333.5ZM612.5 404.479 608.5 412.479 604.5 404.479Z"/><path d="M0.333333-4.65157e-07 0.333429 68.5674-0.333238 68.5674-0.333333 4.65157e-07ZM4.00009 67.234 0.000104987 75.234-3.99991 67.234Z" transform="matrix(1 0 0 -1 608.5 219.734)"/><path d="M5.38218e-07-0.333333 58.3547-0.333239 58.3547 0.333428-5.38218e-07 0.333333ZM57.0213-3.99991 65.0213 0.000104987 57.0213 4.00009Z" transform="matrix(1 0 0 -1 690.5 452.5)"/><path d="M0.333333-5.74299e-07 0.333427 54.2696-0.33324 54.2696-0.333333 5.74299e-07ZM4.00009 52.9363 0.000104987 60.9363-3.99991 52.9363Z" transform="matrix(1 0 0 -1 914.5 395.436)"/><rect x="832.5" y="254.5" width="164" height="80" stroke="#000000" stroke-width="1.33333" stroke-miterlimit="8" fill="#FFFFFF"/><text font-family="Microsoft YaHei,Microsoft YaHei_MSFontService,sans-serif" font-weight="400" font-size="19" transform="translate(848.709 301)">下载镜像到本地</text><path d="M996.5 294.167 1054.85 294.167 1054.85 294.833 996.5 294.833ZM1053.52 290.5 1061.52 294.5 1053.52 298.5Z"/><rect x="582.5" y="169.5" width="52" height="28" stroke="#000000" stroke-width="1.33333" stroke-miterlimit="8" fill="#FFFFFF"/><text font-family="Microsoft YaHei,Microsoft YaHei_MSFontService,sans-serif" font-weight="400" font-size="19" transform="translate(598.666 190)">是</text><rect x="888.5" y="527.5" width="52" height="28" stroke="#000000" stroke-width="1.33333" stroke-miterlimit="8" fill="#FFFFFF"/><text font-family="Microsoft YaHei,Microsoft YaHei_MSFontService,sans-serif" font-weight="400" font-size="19" transform="translate(904.709 548)">否</text><path d="M0.333333-2.21074e-06 0.333709 56.6526-0.332958 56.6526-0.333333 2.21074e-06ZM4.00037 55.3192 0.000419947 63.3193-3.99963 55.3193Z" transform="matrix(-1 0 0 1 914.5 509.5)"/><rect x="888.5" y="358.5" width="52" height="29" stroke="#000000" stroke-width="1.33333" stroke-miterlimit="8" fill="#FFFFFF"/><text font-family="Microsoft YaHei,Microsoft YaHei_MSFontService,sans-serif" font-weight="400" font-size="19" transform="translate(904.709 380)">是</text></g></svg>