<svg width="1133" height="1597" xmlns="http://www.w3.org/2000/svg" xmlns:xlink="http://www.w3.org/1999/xlink" xmlns:ev="http://www.w3.org/2001/xml-events" viewBox="0 0 1133 1597"><defs/><g id="page1" transform="translate(5.5,5.5)"><rect width="1123" fill="#ffffff" x="0" height="1587" y="0"/><path id="shape1" stroke-linecap="round" fill="none" transform="translate(145.26,539.50)" stroke="#696969" d="M-32.7,221.3C3.1,110.0,-42.7,-253.3,61.5,-253.3"/><path id="shape2" stroke-linecap="round" fill="none" transform="translate(145.26,672.15)" stroke="#696969" d="M-26.3,88.6C-1.3,23.0,-13.2,-120.6,61.5,-120.6"/><path id="shape3" stroke-linecap="round" fill="none" transform="translate(145.26,792.75)" stroke="#696969" d="M-1.5,.0C20.9,.0,41.2,-0.0,61.5,-0.0"/><path id="shape4" stroke-linecap="round" fill="none" transform="translate(145.26,1009.85)" stroke="#696969" d="M-31.2,-185.1C1.7,-84.8,-39.8,217.1,61.5,217.1"/><path id="shape5" stroke-linecap="round" fill="none" transform="translate(145.26,877.20)" stroke="#696969" d="M-22.2,-52.4C.3,-3.5,3.0,84.4,61.5,84.4"/><path id="shape6" stroke-linecap="round" fill="none" transform="translate(453.26,284.08)" stroke="#696969" d="M-12.5,2.2C-2.0,2.2,3.8,-2.2,12.5,-2.2"/><path id="shape7" stroke-linecap="round" fill="none" transform="translate(453.26,320.23)" stroke="#696969" d="M-12.5,-34.0C4.1,-34.0,-10.3,34.0,12.5,34.0"/><path id="shape8" stroke-linecap="round" fill="none" transform="translate(573.26,537.33)" stroke="#696969" d="M-12.5,14.2C.7,14.2,-2.6,-14.2,12.5,-14.2"/><path id="shape9" stroke-linecap="round" fill="none" transform="translate(573.26,621.68)" stroke="#696969" d="M-12.5,-70.1C5.0,-70.1,-12.5,70.1,12.5,70.1"/><path id="shape10" stroke-linecap="round" fill="none" transform="translate(633.26,790.58)" stroke="#696969" d="M-12.5,2.2C-2.0,2.2,3.8,-2.2,12.5,-2.2"/><path id="shape11" stroke-linecap="round" fill="none" transform="translate(633.26,814.68)" stroke="#696969" d="M-12.5,-21.9C2.3,-21.9,-6.1,21.9,12.5,21.9"/><path id="shape12" stroke-linecap="round" fill="none" transform="translate(333.26,959.48)" stroke="#696969" d="M-12.5,2.2C-2.0,2.2,3.8,-2.2,12.5,-2.2"/><path id="shape13" stroke-linecap="round" fill="none" transform="translate(333.26,1007.68)" stroke="#696969" d="M-12.5,-46.0C4.9,-46.0,-12.4,46.0,12.5,46.0"/><path id="shape14" stroke-linecap="round" fill="none" transform="translate(525.26,1200.68)" stroke="#696969" d="M-12.5,26.3C3.0,26.3,-7.9,-26.3,12.5,-26.3"/><path id="shape15" stroke-linecap="round" fill="none" transform="translate(525.26,1272.98)" stroke="#696969" d="M-12.5,-46.0C4.9,-46.0,-12.4,46.0,12.5,46.0"/><path id="shape16" stroke-linecap="round" fill="none" transform="translate(621.26,269.85)" stroke="#696969" d="M-12.5,12.1C.3,12.1,-1.5,-12.0,12.5,-12.0"/><path id="shape17" stroke-linecap="round" fill="none" transform="translate(621.26,293.95)" stroke="#696969" d="M-12.5,-12.1C.3,-12.1,-1.5,12.0,12.5,12.0"/><path id="shape18" stroke-linecap="round" fill="none" transform="translate(621.26,354.20)" stroke="#696969" d="M-12.5,.0C-2.5,.0,5.0,.0,12.5,.0"/><path id="shape19" stroke-linecap="round" fill="none" transform="translate(669.26,474.90)" stroke="#696969" d="M-12.5,48.2C5.0,48.2,-12.5,-48.2,12.5,-48.2"/><path id="shape20" stroke-linecap="round" fill="none" transform="translate(669.26,499.00)" stroke="#696969" d="M-12.5,24.1C2.7,24.1,-7.0,-24.1,12.5,-24.1"/><path id="shape21" stroke-linecap="round" fill="none" transform="translate(669.26,523.10)" stroke="#696969" d="M-12.5,.0C-2.5,.0,5.0,.0,12.5,.0"/><path id="shape22" stroke-linecap="round" fill="none" transform="translate(669.26,547.20)" stroke="#696969" d="M-12.5,-24.1C2.7,-24.1,-7.0,24.1,12.5,24.1"/><path id="shape23" stroke-linecap="round" fill="none" transform="translate(669.26,571.30)" stroke="#696969" d="M-12.5,-48.2C5.0,-48.2,-12.5,48.2,12.5,48.2"/><path id="shape24" stroke-linecap="round" fill="none" transform="translate(693.26,679.75)" stroke="#696969" d="M-12.5,12.0C.3,12.0,-1.5,-12.1,12.5,-12.1"/><path id="shape25" stroke-linecap="round" fill="none" transform="translate(693.26,703.85)" stroke="#696969" d="M-12.5,-12.0C.3,-12.0,-1.5,12.1,12.5,12.1"/><path id="shape26" stroke-linecap="round" fill="none" transform="translate(477.26,933.20)" stroke="#696969" d="M-12.5,24.1C2.7,24.1,-7.0,-24.1,12.5,-24.1"/><path id="shape27" stroke-linecap="round" fill="none" transform="translate(477.26,957.30)" stroke="#696969" d="M-12.5,.0C-2.5,.0,5.0,.0,12.5,.0"/><path id="shape28" stroke-linecap="round" fill="none" transform="translate(477.26,981.40)" stroke="#696969" d="M-12.5,-24.1C2.7,-24.1,-7.0,24.1,12.5,24.1"/><path id="shape29" stroke-linecap="round" fill="none" transform="translate(645.26,1150.30)" stroke="#696969" d="M-12.5,24.1C2.7,24.1,-7.0,-24.1,12.5,-24.1"/><path id="shape30" stroke-linecap="round" fill="none" transform="translate(645.26,1174.40)" stroke="#696969" d="M-12.5,.0C-2.5,.0,5.0,.0,12.5,.0"/><path id="shape31" stroke-linecap="round" fill="none" transform="translate(645.26,1198.50)" stroke="#696969" d="M-12.5,-24.1C2.7,-24.1,-7.0,24.1,12.5,24.1"/><path id="shape32" stroke-linecap="round" fill="none" transform="translate(729.26,1294.90)" stroke="#696969" d="M-12.5,24.1C2.7,24.1,-7.0,-24.1,12.5,-24.1"/><path id="shape33" stroke-linecap="round" fill="none" transform="translate(729.26,1319.00)" stroke="#696969" d="M-12.5,.0C-2.5,.0,5.0,.0,12.5,.0"/><path id="shape34" stroke-linecap="round" fill="none" transform="translate(729.26,1343.10)" stroke="#696969" d="M-12.5,-24.1C2.7,-24.1,-7.0,24.1,12.5,24.1"/><g id="shape35" transform="translate(23.76,760.75)"><path stroke-width="3" fill="#29999e" stroke="#29999e" d="M4.0,.0L116.0,.0C118.2,.0,120.0,1.8,120.0,4.0L120.0,60.0C120.0,62.2,118.2,64.0,116.0,64.0L4.0,64.0C1.8,64.0,.0,62.2,.0,60.0L.0,4.0C.0,1.8,1.8,.0,4.0,.0z" fill-rule="nonzero"/><text style="fill:#ffffff;font-family:楷体;font-size:18.00pt" xml:space="preserve"><tspan x="25.8" y="42.5">Java锁</tspan></text></g><g id="shape36" transform="translate(206.76,262.25)"><path fill="#c1e1b9" stroke="#fcf0e8" d="M4.0,.0L230.0,.0C232.2,.0,234.0,1.8,234.0,4.0L234.0,44.0C234.0,46.2,232.2,48.0,230.0,48.0L4.0,48.0C1.8,48.0,.0,46.2,.0,44.0L.0,4.0C.0,1.8,1.8,.0,4.0,.0z" fill-rule="nonzero"/><text style="fill:#303030;font-family:楷体;font-size:18.00pt" xml:space="preserve"><tspan x="22.8" y="34.5">是否锁住同步资源</tspan></text></g><g id="shape37" transform="translate(206.76,527.55)"><path fill="#c1e1b9" stroke="#fcf0e8" d="M4.0,.0L350.0,.0C352.2,.0,354.0,1.8,354.0,4.0L354.0,44.0C354.0,46.2,352.2,48.0,350.0,48.0L4.0,48.0C1.8,48.0,.0,46.2,.0,44.0L.0,4.0C.0,1.8,1.8,.0,4.0,.0z" fill-rule="nonzero"/><text style="fill:#303030;font-family:楷体;font-size:18.00pt" xml:space="preserve"><tspan x="22.8" y="34.5">锁住同步资源后线程是否阻塞</tspan></text></g><g id="shape38" transform="translate(206.76,768.75)"><path fill="#c1e1b9" stroke="#fcf0e8" d="M4.0,.0L410.0,.0C412.2,.0,414.0,1.8,414.0,4.0L414.0,44.0C414.0,46.2,412.2,48.0,410.0,48.0L4.0,48.0C1.8,48.0,.0,46.2,.0,44.0L.0,4.0C.0,1.8,1.8,.0,4.0,.0z" fill-rule="nonzero"/><text style="fill:#303030;font-family:楷体;font-size:18.00pt" xml:space="preserve"><tspan x="22.8" y="34.5">多个线程竞争锁时，是否排队/公平</tspan></text></g><g id="shape39" transform="translate(206.76,1202.95)"><path fill="#c1e1b9" stroke="#fcf0e8" d="M4.0,.0L302.0,.0C304.2,.0,306.0,1.8,306.0,4.0L306.0,44.0C306.0,46.2,304.2,48.0,302.0,48.0L4.0,48.0C1.8,48.0,.0,46.2,.0,44.0L.0,4.0C.0,1.8,1.8,.0,4.0,.0z" fill-rule="nonzero"/><text style="fill:#303030;font-family:楷体;font-size:18.00pt" xml:space="preserve"><tspan x="22.8" y="34.5">多个线程能够共享一把锁</tspan></text></g><g id="shape40" transform="translate(206.76,937.65)"><path fill="#c1e1b9" stroke="#fcf0e8" d="M4.0,.0L110.0,.0C112.2,.0,114.0,1.8,114.0,4.0L114.0,44.0C114.0,46.2,112.2,48.0,110.0,48.0L4.0,48.0C1.8,48.0,.0,46.2,.0,44.0L.0,4.0C.0,1.8,1.8,.0,4.0,.0z" fill-rule="nonzero"/><text style="fill:#303030;font-family:楷体;font-size:18.00pt" xml:space="preserve"><tspan x="22.8" y="34.5">可重入</tspan></text></g><g id="shape41" transform="translate(465.76,242.40)"><path fill="none" stroke="#696969" d="M.0,39.5L143.0,39.5"/><text style="fill:#454545;font-family:楷体;font-size:18.00pt" xml:space="preserve"><tspan x="12.5" y="30.3">是，悲观锁</tspan></text></g><g id="shape42" transform="translate(465.76,314.70)"><path fill="none" stroke="#696969" d="M.0,39.5L143.0,39.5"/><text style="fill:#454545;font-family:楷体;font-size:18.00pt" xml:space="preserve"><tspan x="12.5" y="30.3">否，乐观锁</tspan></text></g><g id="shape43" transform="translate(585.76,483.60)"><path fill="none" stroke="#696969" d="M.0,39.5L71.0,39.5"/><text style="fill:#454545;font-family:楷体;font-size:18.00pt" xml:space="preserve"><tspan x="12.5" y="30.3">阻塞</tspan></text></g><g id="shape44" transform="translate(585.76,652.30)"><path fill="none" stroke="#696969" d="M.0,39.5L95.0,39.5"/><text style="fill:#454545;font-family:楷体;font-size:18.00pt" xml:space="preserve"><tspan x="12.5" y="30.3">非阻塞</tspan></text></g><g id="shape45" transform="translate(645.76,748.90)"><path fill="none" stroke="#696969" d="M.0,39.5L143.0,39.5"/><text style="fill:#454545;font-family:楷体;font-size:18.00pt" xml:space="preserve"><tspan x="12.5" y="30.3">是，公平锁</tspan></text></g><g id="shape46" transform="translate(645.76,797.10)"><path fill="none" stroke="#696969" d="M.0,39.5L167.0,39.5"/><text style="fill:#454545;font-family:楷体;font-size:18.00pt" xml:space="preserve"><tspan x="12.5" y="30.3">否，非公平锁</tspan></text></g><g id="shape47" transform="translate(345.76,917.80)"><path fill="none" stroke="#696969" d="M.0,39.5L119.0,39.5"/><text style="fill:#454545;font-family:楷体;font-size:18.00pt" xml:space="preserve"><tspan x="12.5" y="30.3">可重入锁</tspan></text></g><g id="shape48" transform="translate(345.76,1014.20)"><path fill="none" stroke="#696969" d="M.0,39.5L143.0,39.5"/><text style="fill:#454545;font-family:楷体;font-size:18.00pt" xml:space="preserve"><tspan x="12.5" y="30.3">非可重入锁</tspan></text></g><g id="shape49" transform="translate(537.76,1134.90)"><path fill="none" stroke="#696969" d="M.0,39.5L95.0,39.5"/><text style="fill:#454545;font-family:楷体;font-size:18.00pt" xml:space="preserve"><tspan x="12.5" y="30.3">共享锁</tspan></text></g><g id="shape50" transform="translate(537.76,1279.50)"><path fill="none" stroke="#696969" d="M.0,39.5L179.0,39.5"/><text style="fill:#454545;font-family:楷体;font-size:18.00pt" xml:space="preserve"><tspan x="12.5" y="30.3">独占锁/排他锁</tspan></text></g><g id="shape51" transform="translate(633.76,218.30)"><path fill="none" stroke="#696969" d="M.0,39.5L167.0,39.5"/><text style="fill:#454545;font-family:楷体;font-size:18.00pt" xml:space="preserve"><tspan x="12.5" y="30.3">synchronized</tspan></text></g><g id="shape52" transform="translate(633.76,266.50)"><path fill="none" stroke="#696969" d="M.0,39.5L71.0,39.5"/><text style="fill:#454545;font-family:楷体;font-size:18.00pt" xml:space="preserve"><tspan x="12.5" y="30.3">Lock</tspan></text></g><g id="shape53" transform="translate(633.76,314.70)"><path fill="none" stroke="#696969" d="M.0,39.5L59.0,39.5"/><text style="fill:#454545;font-family:楷体;font-size:18.00pt" xml:space="preserve"><tspan x="12.5" y="30.3">CAS</tspan></text></g><g id="shape54" transform="translate(681.76,387.20)"><path fill="none" stroke="#696969" d="M.0,39.5L167.0,39.5"/><text style="fill:#454545;font-family:楷体;font-size:18.00pt" xml:space="preserve"><tspan x="12.5" y="30.3">synchronized</tspan></text></g><g id="shape55" transform="translate(681.76,435.40)"><path fill="none" stroke="#696969" d="M.0,39.5L179.0,39.5"/><text style="fill:#454545;font-family:楷体;font-size:18.00pt" xml:space="preserve"><tspan x="12.5" y="30.3">ReenTrantLock</tspan></text></g><g id="shape56" transform="translate(681.76,483.60)"><path fill="none" stroke="#696969" d="M.0,39.5L383.0,39.5"/><text style="fill:#454545;font-family:楷体;font-size:18.00pt" xml:space="preserve"><tspan x="12.5" y="30.3">Object 的notify()、notifyAll()</tspan></text></g><g id="shape57" transform="translate(681.76,531.80)"><path fill="none" stroke="#696969" d="M.0,39.5L131.0,39.5"/><text style="fill:#454545;font-family:楷体;font-size:18.00pt" xml:space="preserve"><tspan x="12.5" y="30.3">Condition</tspan></text></g><g id="shape58" transform="translate(681.76,580.00)"><path fill="none" stroke="#696969" d="M.0,39.5L155.0,39.5"/><text style="fill:#454545;font-family:楷体;font-size:18.00pt" xml:space="preserve"><tspan x="12.5" y="30.3">LockSupport</tspan></text></g><g id="shape59" transform="translate(705.76,628.20)"><path fill="none" stroke="#696969" d="M.0,39.5L95.0,39.5"/><text style="fill:#454545;font-family:楷体;font-size:18.00pt" xml:space="preserve"><tspan x="12.5" y="30.3">自旋锁</tspan></text></g><g id="shape60" transform="translate(705.76,676.40)"><path fill="none" stroke="#696969" d="M.0,39.5L167.0,39.5"/><text style="fill:#454545;font-family:楷体;font-size:18.00pt" xml:space="preserve"><tspan x="12.5" y="30.3">适应性自旋锁</tspan></text></g><g id="shape61" transform="translate(489.76,869.60)"><path fill="none" stroke="#696969" d="M.0,39.5L95.0,39.5"/><text style="fill:#454545;font-family:楷体;font-size:18.00pt" xml:space="preserve"><tspan x="12.5" y="30.3">对象锁</tspan></text></g><g id="shape62" transform="translate(489.76,917.80)"><path fill="none" stroke="#696969" d="M.0,39.5L179.0,39.5"/><text style="fill:#454545;font-family:楷体;font-size:18.00pt" xml:space="preserve"><tspan x="12.5" y="30.3">ReenTrantLock</tspan></text></g><g id="shape63" transform="translate(489.76,966.00)"><path fill="none" stroke="#696969" d="M.0,39.5L287.0,39.5"/><text style="fill:#454545;font-family:楷体;font-size:18.00pt" xml:space="preserve"><tspan x="12.5" y="30.3">ReentrantReadWriteLock</tspan></text></g><g id="shape64" transform="translate(657.76,1086.70)"><path fill="none" stroke="#696969" d="M.0,39.5L359.0,39.5"/><text style="fill:#454545;font-family:楷体;font-size:18.00pt" xml:space="preserve"><tspan x="12.5" y="30.3">ReentrantReadWriteLock的读锁</tspan></text></g><g id="shape65" transform="translate(657.76,1134.90)"><path fill="none" stroke="#696969" d="M.0,39.5L191.0,39.5"/><text style="fill:#454545;font-family:楷体;font-size:18.00pt" xml:space="preserve"><tspan x="12.5" y="30.3">CountDownLatch</tspan></text></g><g id="shape66" transform="translate(657.76,1183.10)"><path fill="none" stroke="#696969" d="M.0,39.5L131.0,39.5"/><text style="fill:#454545;font-family:楷体;font-size:18.00pt" xml:space="preserve"><tspan x="12.5" y="30.3">Semaphore</tspan></text></g><g id="shape67" transform="translate(741.76,1231.30)"><path fill="none" stroke="#696969" d="M.0,39.5L167.0,39.5"/><text style="fill:#454545;font-family:楷体;font-size:18.00pt" xml:space="preserve"><tspan x="12.5" y="30.3">synchronized</tspan></text></g><g id="shape68" transform="translate(741.76,1279.50)"><path fill="none" stroke="#696969" d="M.0,39.5L179.0,39.5"/><text style="fill:#454545;font-family:楷体;font-size:18.00pt" xml:space="preserve"><tspan x="12.5" y="30.3">ReenTrantLock</tspan></text></g><g id="shape69" transform="translate(741.76,1327.70)"><path fill="none" stroke="#696969" d="M.0,39.5L359.0,39.5"/><text style="fill:#454545;font-family:楷体;font-size:18.00pt" xml:space="preserve"><tspan x="12.5" y="30.3">ReentrantReadWriteLock的写锁</tspan></text></g></g></svg>