<svg width="1133" height="804" xmlns="http://www.w3.org/2000/svg" xmlns:xlink="http://www.w3.org/1999/xlink" xmlns:ev="http://www.w3.org/2001/xml-events" viewBox="0 0 1133 804"><defs/><g id="page1" transform="translate(5.5,5.5)"><rect width="1123" fill="#ffffff" x="0" height="794" y="0"/><g id="group1"><path id="shape2" fill="#fffefd" transform="translate(0.00,1.12)" d="M.0,.0L1122.5,.0L1122.5,792.0L.0,792.0L.0,.0z" fill-rule="nonzero"/><path id="shape3" fill="#f3f2f2" transform="translate(0.00,-0.00)" fill-opacity="0.20" d="M.0,111.0L72.9,1.6L146.1,110.3L219.0,.0L291.9,109.2L366.9,.0L439.8,109.3L512.8,.0L585.7,109.3L658.8,.0L731.7,108.3L804.1,.0L876.9,109.3L950.6,.0L1025.0,111.0L1099.3,.0L1122.5,34.1L1122.5,69.7L1099.3,39.5L1025.0,143.4L952.0,37.9L876.9,145.8L806.1,37.9L731.7,143.4L661.3,37.9L585.7,143.4L512.8,36.3L439.8,143.4L366.9,37.9L291.9,143.4L220.2,36.3L146.1,143.4L72.9,38.1L.0,143.4L.0,111.0z" fill-rule="nonzero"/><path id="shape4" fill="#f3f2f2" transform="translate(0.00,121.41)" fill-opacity="0.20" d="M.0,111.0L72.9,1.6L146.1,110.3L219.0,.0L291.9,109.2L366.9,.0L439.8,109.3L512.8,.0L585.7,109.3L658.8,.0L731.7,108.3L804.1,.0L876.9,109.3L950.6,.0L1025.0,111.0L1099.3,.0L1122.5,34.1L1122.5,69.7L1099.3,39.5L1025.0,143.4L952.0,37.9L876.9,145.8L806.1,37.9L731.7,143.4L661.3,37.9L585.7,143.4L512.8,36.3L439.8,143.4L366.9,37.9L291.9,143.4L220.2,36.3L146.1,143.4L72.9,38.1L.0,143.4L.0,111.0z" fill-rule="nonzero"/><path id="shape5" fill="#f3f2f2" transform="translate(0.00,245.38)" fill-opacity="0.20" d="M.0,111.0L72.9,1.6L146.1,110.3L219.0,.0L291.9,109.2L366.9,.0L439.8,109.3L512.8,.0L585.7,109.3L658.8,.0L731.7,108.3L804.1,.0L876.9,109.3L950.6,.0L1025.0,111.0L1099.3,.0L1122.5,34.1L1122.5,69.7L1099.3,39.5L1025.0,143.4L952.0,37.9L876.9,145.8L806.1,37.9L731.7,143.4L661.3,37.9L585.7,143.4L512.8,36.3L439.8,143.4L366.9,37.9L291.9,143.4L220.2,36.3L146.1,143.4L72.9,38.1L.0,143.4L.0,111.0z" fill-rule="nonzero"/><path id="shape6" fill="#f3f2f2" transform="translate(0.00,377.27)" fill-opacity="0.20" d="M.0,111.0L72.9,1.6L146.1,110.3L219.0,.0L291.9,109.2L366.9,.0L439.8,109.3L512.8,.0L585.7,109.3L658.8,.0L731.7,108.3L804.1,.0L876.9,109.3L950.6,.0L1025.0,111.0L1099.3,.0L1122.5,34.1L1122.5,69.7L1099.3,39.5L1025.0,143.4L952.0,37.9L876.9,145.8L806.1,37.9L731.7,143.4L661.3,37.9L585.7,143.4L512.8,36.3L439.8,143.4L366.9,37.9L291.9,143.4L220.2,36.3L146.1,143.4L72.9,38.1L.0,143.4L.0,111.0z" fill-rule="nonzero"/><path id="shape7" fill="#f3f2f2" transform="translate(0.00,518.30)" fill-opacity="0.20" d="M.0,111.0L72.9,1.6L146.1,110.3L219.0,.0L291.9,109.2L366.9,.0L439.8,109.3L512.8,.0L585.7,109.3L658.8,.0L731.7,108.3L804.1,.0L876.9,109.3L950.6,.0L1025.0,111.0L1099.3,.0L1122.5,34.1L1122.5,69.7L1099.3,39.5L1025.0,143.4L952.0,37.9L876.9,145.8L806.1,37.9L731.7,143.4L661.3,37.9L585.7,143.4L512.8,36.3L439.8,143.4L366.9,37.9L291.9,143.4L220.2,36.3L146.1,143.4L72.9,38.1L.0,143.4L.0,111.0z" fill-rule="nonzero"/><path id="shape8" fill="#f3f2f2" transform="translate(0.00,650.19)" fill-opacity="0.20" d="M.0,111.0L72.9,1.6L146.1,110.3L219.0,.0L291.9,109.2L366.9,.0L439.8,109.3L512.8,.0L585.7,109.3L658.8,.0L731.7,108.3L804.1,.0L876.9,109.3L950.6,.0L1025.0,111.0L1099.3,.0L1122.5,34.1L1122.5,69.7L1099.3,39.5L1025.0,143.4L952.0,37.9L876.9,145.8L806.1,37.9L731.7,143.4L661.3,37.9L585.7,143.4L512.8,36.3L439.8,143.4L366.9,37.9L291.9,143.4L220.2,36.3L146.1,143.4L72.9,38.1L.0,143.4L.0,111.0z" fill-rule="nonzero"/></g><path id="shape9" stroke-linecap="round" fill="none" transform="translate(221.01,279.07)" stroke="#696969" d="M-28.9,77.3C-0.5,17.8,-5.4,-107.8,68.3,-107.8"/><path id="shape10" stroke-linecap="round" fill="none" transform="translate(622.76,319.55)" stroke="#696969" d="M-12.5,11.3C.1,11.3,-1.1,-11.3,12.5,-11.3"/><path id="shape11" stroke-linecap="round" fill="none" transform="translate(622.76,342.15)" stroke="#696969" d="M-12.5,-11.3C.1,-11.3,-1.1,11.3,12.5,11.3"/><path id="shape12" stroke-linecap="round" fill="none" transform="translate(677.76,466.45)" stroke="#696969" d="M-12.5,67.8C5.0,67.8,-12.5,-67.8,12.5,-67.8"/><path id="shape13" stroke-linecap="round" fill="none" transform="translate(677.76,489.05)" stroke="#696969" d="M-12.5,45.2C4.9,45.2,-12.3,-45.2,12.5,-45.2"/><path id="shape14" stroke-linecap="round" fill="none" transform="translate(677.76,511.65)" stroke="#696969" d="M-12.5,22.6C2.4,22.6,-6.4,-22.6,12.5,-22.6"/><path id="shape15" stroke-linecap="round" fill="none" transform="translate(677.76,534.25)" stroke="#696969" d="M-12.5,.0C-2.5,.0,5.0,.0,12.5,.0"/><path id="shape16" stroke-linecap="round" fill="none" transform="translate(677.76,556.85)" stroke="#696969" d="M-12.5,-22.6C2.4,-22.6,-6.4,22.6,12.5,22.6"/><path id="shape17" stroke-linecap="round" fill="none" transform="translate(677.76,579.45)" stroke="#696969" d="M-12.5,-45.2C4.9,-45.2,-12.3,45.2,12.5,45.2"/><path id="shape18" stroke-linecap="round" fill="none" transform="translate(677.76,602.05)" stroke="#696969" d="M-12.5,-67.8C5.0,-67.8,-12.5,67.8,12.5,67.8"/><path id="shape19" stroke-linecap="round" fill="none" transform="translate(633.76,155.65)" stroke="#696969" d="M-12.5,11.3C.1,11.3,-1.1,-11.3,12.5,-11.3"/><path id="shape20" stroke-linecap="round" fill="none" transform="translate(633.76,180.25)" stroke="#696969" d="M-12.5,-13.3C.5,-13.3,-2.1,13.3,12.5,13.3"/><path id="shape21" stroke-linecap="round" fill="none" transform="translate(221.01,428.82)" stroke="#696969" d="M-9.9,-11.5C12.1,12.5,30.5,42.0,68.3,42.0"/><path id="shape22" stroke-linecap="round" fill="none" transform="translate(398.76,169.12)" stroke="#696969" d="M-12.5,2.2C-2.0,2.2,3.8,-2.2,12.5,-2.2"/><path id="shape23" stroke-linecap="round" fill="none" transform="translate(398.76,205.02)" stroke="#696969" d="M-12.5,-33.7C4.0,-33.7,-10.3,33.7,12.5,33.7"/><path id="shape24" stroke-linecap="round" fill="none" transform="translate(453.76,400.82)" stroke="#696969" d="M-12.5,70.0C5.0,70.0,-12.5,-70.0,12.5,-70.0"/><path id="shape25" stroke-linecap="round" fill="none" transform="translate(453.76,502.52)" stroke="#696969" d="M-12.5,-31.7C3.8,-31.7,-9.7,31.7,12.5,31.7"/><g id="shape26" transform="translate(79.26,356.35)"><path stroke-width="3" fill="#29999e" stroke="#29999e" d="M4.0,.0L143.0,.0C145.2,.0,147.0,1.8,147.0,4.0L147.0,57.0C147.0,59.2,145.2,61.0,143.0,61.0L4.0,61.0C1.8,61.0,.0,59.2,.0,57.0L.0,4.0C.0,1.8,1.8,.0,4.0,.0z" fill-rule="nonzero"/><text style="fill:#ffffff;font-family:楷体;font-size:16.00pt" xml:space="preserve"><tspan x="25.8" y="39.5">Throwable</tspan></text></g><g id="shape27" transform="translate(289.26,148.80)"><path fill="#fcf0e8" stroke="#fcf0e8" d="M4.0,.0L93.0,.0C95.2,.0,97.0,1.8,97.0,4.0L97.0,41.0C97.0,43.2,95.2,45.0,93.0,45.0L4.0,45.0C1.8,45.0,.0,43.2,.0,41.0L.0,4.0C.0,1.8,1.8,.0,4.0,.0z" fill-rule="nonzero"/><text style="fill:#303030;font-family:楷体;font-size:16.00pt" xml:space="preserve"><tspan x="22.8" y="31.5">Error</tspan></text></g><g id="shape28" transform="translate(289.26,448.30)"><path fill="#fcf0e8" stroke="#fcf0e8" d="M4.0,.0L148.0,.0C150.2,.0,152.0,1.8,152.0,4.0L152.0,41.0C152.0,43.2,150.2,45.0,148.0,45.0L4.0,45.0C1.8,45.0,.0,43.2,.0,41.0L.0,4.0C.0,1.8,1.8,.0,4.0,.0z" fill-rule="nonzero"/><text style="fill:#303030;font-family:楷体;font-size:16.00pt" xml:space="preserve"><tspan x="22.8" y="31.5">Exceptioon</tspan></text></g><g id="shape29" transform="translate(411.26,130.45)"><path fill="none" stroke="#696969" d="M.0,36.5L210.0,36.5"/><text style="fill:#454545;font-family:楷体;font-size:16.00pt" xml:space="preserve"><tspan x="12.5" y="27.3">VirtuMachineError</tspan></text></g><g id="shape30" transform="translate(411.26,202.25)"><path fill="none" stroke="#696969" d="M.0,36.5L111.0,36.5"/><text style="fill:#454545;font-family:楷体;font-size:16.00pt" xml:space="preserve"><tspan x="12.5" y="27.3">AWTError</tspan></text></g><g id="shape31" transform="translate(466.26,294.35)"><path fill="none" stroke="#696969" d="M.0,36.5L144.0,36.5"/><text style="fill:#454545;font-family:楷体;font-size:16.00pt" xml:space="preserve"><tspan x="12.5" y="27.3">IOException</tspan></text></g><g id="shape32" transform="translate(466.26,497.75)"><path fill="none" stroke="#696969" d="M.0,36.5L199.0,36.5"/><text style="fill:#454545;font-family:楷体;font-size:16.00pt" xml:space="preserve"><tspan x="12.5" y="27.3">RuntimeException</tspan></text></g><g id="shape33" transform="translate(635.26,271.75)"><path fill="none" stroke="#696969" d="M.0,36.5L155.0,36.5"/><text style="fill:#454545;font-family:楷体;font-size:16.00pt" xml:space="preserve"><tspan x="12.5" y="27.3">EOFException</tspan></text></g><g id="shape34" transform="translate(635.26,316.95)"><path fill="none" stroke="#696969" d="M.0,36.5L254.0,36.5"/><text style="fill:#454545;font-family:楷体;font-size:16.00pt" xml:space="preserve"><tspan x="12.5" y="27.3">FileNotFoundException</tspan></text></g><g id="shape35" transform="translate(690.26,362.15)"><path fill="none" stroke="#696969" d="M.0,36.5L243.0,36.5"/><text style="fill:#454545;font-family:楷体;font-size:16.00pt" xml:space="preserve"><tspan x="12.5" y="27.3">ArrithmeticException</tspan></text></g><g id="shape36" transform="translate(690.26,407.35)"><path fill="none" stroke="#696969" d="M.0,36.5L287.0,36.5"/><text style="fill:#454545;font-family:楷体;font-size:16.00pt" xml:space="preserve"><tspan x="12.5" y="27.3">MissingResourceException</tspan></text></g><g id="shape37" transform="translate(690.26,452.55)"><path fill="none" stroke="#696969" d="M.0,36.5L265.0,36.5"/><text style="fill:#454545;font-family:楷体;font-size:16.00pt" xml:space="preserve"><tspan x="12.5" y="27.3">ClassNotFoundException</tspan></text></g><g id="shape38" transform="translate(690.26,497.75)"><path fill="none" stroke="#696969" d="M.0,36.5L243.0,36.5"/><text style="fill:#454545;font-family:楷体;font-size:16.00pt" xml:space="preserve"><tspan x="12.5" y="27.3">NullPointerException</tspan></text></g><g id="shape39" transform="translate(690.26,542.95)"><path fill="none" stroke="#696969" d="M.0,36.5L287.0,36.5"/><text style="fill:#454545;font-family:楷体;font-size:16.00pt" xml:space="preserve"><tspan x="12.5" y="27.3">IllegalArgumentException</tspan></text></g><g id="shape40" transform="translate(690.26,588.15)"><path fill="none" stroke="#696969" d="M.0,36.5L353.0,36.5"/><text style="fill:#454545;font-family:楷体;font-size:16.00pt" xml:space="preserve"><tspan x="12.5" y="27.3">ArrayIndexOutOfBoundsException</tspan></text></g><g id="shape41" transform="translate(690.26,633.35)"><path fill="none" stroke="#696969" d="M.0,36.5L232.0,36.5"/><text style="fill:#454545;font-family:楷体;font-size:16.00pt" xml:space="preserve"><tspan x="12.5" y="27.3">UnknowTypeException</tspan></text></g><g id="shape42" transform="translate(646.26,103.85)"><path fill="none" stroke="#696969" d="M.0,40.5L217.0,40.5"/><text style="fill:#454545;font-family:Microsoft YaHei;font-size:16.00pt" xml:space="preserve"><tspan x="12.5" y="28.3">StackOverflowError</tspan></text></g><g id="shape43" transform="translate(646.26,153.05)"><path fill="none" stroke="#696969" d="M.0,40.5L219.0,40.5"/><text style="fill:#454545;font-family:Microsoft YaHei;font-size:16.00pt" xml:space="preserve"><tspan x="12.5" y="28.3">OutOfMemoryError</tspan></text></g></g></svg>