<svg xmlns="http://www.w3.org/2000/svg" xmlns:xlink="http://www.w3.org/1999/xlink" xmlns:ev="http://www.w3.org/2001/xml-events" width="2255" height="2391" viewBox="0 0 2255 2391"><defs/><g transform="translate(5.5,5.5)" id="page1"><rect y="0" fill="#ffffff" x="0" width="2245" height="2381"/><g transform="translate(1695.04,468.50)" id="shape1"><path stroke="#303030" stroke-width="3" fill="none" d="M.0,.0L32.0,.0L32.0,133.5L-119.6,133.5"/><path stroke="#303030" stroke-width="1" fill="#303030" d="M-119.6,138.7L-130.0,133.5L-119.6,128.3L-119.6,138.7" stroke-linecap="round"/><rect y="37.7" fill="#ffffff" x="22.5" width="21.0" height="24.0"/><text xml:space="preserve" style="fill:#191919;font-family:Times New Roman;font-size:16.00pt"><tspan y="56.7" x="22.5">no</tspan></text></g><g transform="translate(1371.00,1303.00)" id="shape2"><path stroke="#303030" stroke-width="3" fill="none" d="M.0,.0L35.0,.0L35.0,41.0"/><path stroke="#303030" stroke-width="1" fill="#303030" d="M40.2,41.0L35.0,51.4L29.8,41.0L40.2,41.0" stroke-linecap="round"/><rect y="-12.0" fill="#ffffff" x="-4.0" width="21.0" height="24.0"/><text xml:space="preserve" style="fill:#191919;font-family:Times New Roman;font-size:16.00pt"><tspan y="7.0" x="-4.0">no</tspan></text></g><g transform="translate(398.50,557.00)" id="shape3"><path stroke="#303030" stroke-width="3" fill="none" d="M.0,.0L-353.5,.0L-353.5,1328.9L-140.4,1328.9"/><path stroke="#303030" stroke-width="1" fill="#303030" d="M-140.4,1323.7L-130.0,1328.9L-140.4,1334.1L-140.4,1323.7" stroke-linecap="round"/></g><g transform="translate(718.00,1546.31)" id="shape4"><path stroke="#303030" stroke-width="3" fill="none" d="M.0,.0L32.0,.0L32.0,339.6L-230.1,339.6"/><path stroke="#303030" stroke-width="1" fill="#303030" d="M-230.1,344.8L-240.5,339.6L-230.1,334.4L-230.1,344.8" stroke-linecap="round"/><rect y="4.2" fill="#ffffff" x="22.5" width="21.0" height="24.0"/><text xml:space="preserve" style="fill:#191919;font-family:Times New Roman;font-size:16.00pt"><tspan y="23.2" x="22.5">no</tspan></text></g><g transform="translate(624.48,1653.64)" id="shape5"><path stroke="#303030" stroke-width="3" fill="none" d="M.0,.0L124.5,.0L124.5,232.2L-133.6,232.2"/><path stroke="#303030" stroke-width="1" fill="#303030" d="M-133.6,237.4L-144.0,232.2L-133.6,227.1L-133.6,237.4" stroke-linecap="round"/><rect y="-12.0" fill="#ffffff" x="6.2" width="21.0" height="24.0"/><text xml:space="preserve" style="fill:#191919;font-family:Times New Roman;font-size:16.00pt"><tspan y="7.0" x="6.2">no</tspan></text></g><g transform="translate(398.50,951.40)" id="shape6"><path stroke="#303030" stroke-width="3" fill="none" d="M.0,.0L-32.0,.0L-32.0,493.6L131.5,493.6L131.5,515.2"/><path stroke="#303030" stroke-width="1" fill="#303030" d="M136.7,515.2L131.5,525.6L126.3,515.2L136.7,515.2" stroke-linecap="round"/></g><g transform="translate(398.50,771.80)" id="shape7"><path stroke="#303030" stroke-width="3" fill="none" d="M.0,.0L-32.0,.0L-32.0,673.2L131.5,673.2L131.5,694.8"/><path stroke="#303030" stroke-width="1" fill="#303030" d="M136.7,694.8L131.5,705.2L126.3,694.8L136.7,694.8" stroke-linecap="round"/></g><g transform="translate(398.50,1303.00)" id="shape8"><path stroke="#303030" stroke-width="3" fill="none" d="M.0,.0L-32.0,.0L-32.0,142.0L131.5,142.0L131.5,163.6"/><path stroke="#303030" stroke-width="1" fill="#303030" d="M136.7,163.6L131.5,174.0L126.3,163.6L136.7,163.6" stroke-linecap="round"/></g><g transform="translate(935.00,30.96)" id="shape9"><path stroke="#323232" stroke-width="3" fill="#ffffff" d="M45.0,90.1L125.0,90.1L125.0,90.1C149.8,90.1,170.0,69.9,170.0,45.0C170.0,20.2,149.8,.0,125.0,.0L45.0,.0L45.0,.0C20.2,.0,.0,20.2,.0,45.0C.0,69.9,20.2,90.1,45.0,90.1z" fill-rule="nonzero"/><text xml:space="preserve" style="fill:#191919;font-family:Times New Roman;font-size:16.00pt"><tspan y="52.0" x="28.5">HashMap Put</tspan></text></g><g transform="translate(869.88,136.98)" id="shape10"><path stroke="#323232" stroke-width="3" fill="#ffffff" d="M277.7,90.1L300.2,.0L22.5,.0L.0,90.1L277.7,90.1z" fill-rule="nonzero"/><text xml:space="preserve" style="fill:#191919;font-family:Times New Roman;font-size:16.00pt"><tspan y="40.0" x="73.6">Node&lt;K,V>[] tab; </tspan><tspan y="64.0" x="56.6">Node&lt;K,V> p; int n, i;</tspan></text></g><g transform="translate(1020.00,121.04)" id="shape11"><path stroke="#303030" stroke-width="3" fill="none" d="M.0,.0L.0,5.5"/><path stroke="#303030" stroke-width="1" fill="#303030" d="M5.2,5.5L.0,15.9L-5.2,5.5L5.2,5.5" stroke-linecap="round"/></g><g transform="translate(788.94,243.00)" id="shape12"><path stroke="#323232" stroke-width="3" fill="#ffffff" d="M231.1,90.0L462.1,45.0L231.1,.0L.0,45.0L231.1,90.0z" fill-rule="nonzero"/><text xml:space="preserve" style="fill:#191919;font-family:Times New Roman;font-size:16.00pt"><tspan y="52.0" x="119.1">tab== null || tab.length ==0</tspan></text></g><g transform="translate(1020.00,227.06)" id="shape13"><path stroke="#303030" stroke-width="3" fill="none" d="M.0,.0L.0,5.5"/><path stroke="#303030" stroke-width="1" fill="#303030" d="M5.2,5.5L.0,15.9L-5.2,5.5L5.2,5.5" stroke-linecap="round"/></g><g transform="translate(398.50,306.19)" id="shape14"><path stroke="#323232" stroke-width="3" fill="#ffffff" d="M368.0,177.0L368.0,7.0C368.0,3.1,364.9,.0,361.0,.0L7.0,.0C3.1,.0,.0,3.1,.0,7.0L.0,177.0C.0,180.9,3.1,184.0,7.0,184.0L361.0,184.0C364.9,184.0,368.0,180.9,368.0,177.0z" fill-rule="nonzero"/><text xml:space="preserve" style="fill:#191919;font-family:Times New Roman;font-size:16.00pt"><tspan y="74.0" x="127.0">tab = resize();</tspan><tspan y="98.0" x="125.0">n = tab.length;</tspan><tspan y="124.0" x="25.5">put时tab为null或长度为0 进行resize</tspan></text></g><g transform="translate(788.94,288.00)" id="shape15"><path stroke="#303030" stroke-width="3" fill="none" d="M.0,.0L-206.4,.0L-206.4,7.8"/><path stroke="#303030" stroke-width="1" fill="#303030" d="M-201.2,7.8L-206.4,18.2L-211.6,7.8L-201.2,7.8" stroke-linecap="round"/><rect y="-12.0" fill="#ffffff" x="-110.0" width="26.0" height="24.0"/><text xml:space="preserve" style="fill:#191919;font-family:Times New Roman;font-size:16.00pt"><tspan y="7.0" x="-110.0">yes</tspan></text></g><g transform="translate(1147.04,398.19)" id="shape16"><path stroke="#323232" stroke-width="3" fill="#ffffff" d="M274.0,140.6L548.0,70.3L274.0,.0L.0,70.3L274.0,140.6z" fill-rule="nonzero"/><text xml:space="preserve" style="fill:#191919;font-family:Times New Roman;font-size:16.00pt"><tspan y="64.3" x="126.5">(p = tab[i = (n - 1) &amp; hash]) == null</tspan><tspan y="90.3" x="158.5">待插入的位置是否有数据</tspan></text></g><g transform="translate(398.50,509.00)" id="shape17"><path stroke="#323232" stroke-width="3" fill="#ffffff" d="M529.0,89.0L529.0,7.0C529.0,3.1,525.9,.0,522.0,.0L7.0,.0C3.1,.0,.0,3.1,.0,7.0L.0,89.0C.0,92.9,3.1,96.0,7.0,96.0L522.0,96.0C525.9,96.0,529.0,92.9,529.0,89.0z" fill-rule="nonzero"/><text xml:space="preserve" style="fill:#191919;font-family:Times New Roman;font-size:16.00pt"><tspan y="42.0" x="96.0">tab[i] = newNode(hash, key, value, null);</tspan><tspan y="68.0" x="33.5">待插入位置没有数据，直接将数据放到待插入位置</tspan></text></g><g transform="translate(1251.06,288.00)" id="shape18"><path stroke="#303030" stroke-width="3" fill="none" d="M.0,.0L170.0,.0L170.0,99.8"/><path stroke="#303030" stroke-width="1" fill="#303030" d="M175.2,99.8L170.0,110.2L164.8,99.8L175.2,99.8" stroke-linecap="round"/></g><g transform="translate(1265.04,554.00)" id="shape19"><path stroke="#323232" stroke-width="3" fill="#ffffff" d="M288.0,96.0L312.0,.0L24.0,.0L.0,96.0L288.0,96.0z" fill-rule="nonzero"/><text xml:space="preserve" style="fill:#191919;font-family:Times New Roman;font-size:16.00pt"><tspan y="55.0" x="74.5">Node&lt;K,V> e; K k;</tspan></text></g><g transform="translate(1421.04,650.00)" id="shape20"><path stroke="#303030" stroke-width="3" fill="none" d="M.0,.0L.0,6.4"/><path stroke="#303030" stroke-width="1" fill="#303030" d="M5.2,6.4L.0,16.8L-5.2,6.4L5.2,6.4" stroke-linecap="round"/></g><g transform="translate(985.04,666.80)" id="shape21"><path stroke="#323232" stroke-width="3" fill="#ffffff" d="M436.0,208.0L872.0,104.0L436.0,.0L.0,104.0L436.0,208.0z" fill-rule="nonzero"/><text xml:space="preserve" style="fill:#191919;font-family:Times New Roman;font-size:16.00pt"><tspan y="86.0" x="343.5">if (p.hash == hash &amp;&amp;</tspan><tspan y="110.0" x="175.0">                ((k = p.key) == key || (key != null &amp;&amp; key.equals(k))))</tspan><tspan y="136.0" x="233.0">待插入位置已有数据和待插入数据key值相等</tspan></text></g><g transform="translate(985.04,770.80)" id="shape22"><path stroke="#303030" stroke-width="3" fill="none" d="M.0,.0L-436.5,.0L-436.5,1.0L-458.1,1.0"/><path stroke="#303030" stroke-width="1" fill="#303030" d="M-458.1,6.2L-468.5,1.0L-458.1,-4.2L-458.1,6.2" stroke-linecap="round"/><rect y="-12.0" fill="#ffffff" x="-201.8" width="26.0" height="24.0"/><text xml:space="preserve" style="fill:#191919;font-family:Times New Roman;font-size:16.00pt"><tspan y="7.0" x="-201.8">yes</tspan></text></g><g transform="translate(398.50,750.44)" id="shape23"><path stroke="#323232" stroke-width="3" fill="#ffffff" d="M118.0,35.7L118.0,7.0C118.0,3.1,114.9,.0,111.0,.0L7.0,.0C3.1,.0,.0,3.1,.0,7.0L.0,35.7C.0,39.6,3.1,42.7,7.0,42.7L111.0,42.7C114.9,42.7,118.0,39.6,118.0,35.7z" fill-rule="nonzero"/><text xml:space="preserve" style="fill:#191919;font-family:Times New Roman;font-size:16.00pt"><tspan y="28.4" x="36.0">e = p;</tspan></text></g><g transform="translate(1115.47,902.90)" id="shape24"><path stroke="#323232" stroke-width="3" fill="#ffffff" d="M276.2,99.0L552.3,49.5L276.2,.0L.0,49.5L276.2,99.0z" fill-rule="nonzero"/><text xml:space="preserve" style="fill:#191919;font-family:Times New Roman;font-size:16.00pt"><tspan y="43.5" x="183.2">p instanceof TreeNode</tspan><tspan y="69.5" x="181.7">该位置是否是红黑树</tspan></text></g><g transform="translate(1857.04,770.80)" id="shape25"><path stroke="#303030" stroke-width="3" fill="none" d="M.0,.0L32.0,.0L32.0,116.1L-465.4,116.1L-465.4,121.7"/><path stroke="#303030" stroke-width="1" fill="#303030" d="M-460.2,121.7L-465.4,132.1L-470.6,121.7L-460.2,121.7" stroke-linecap="round"/><rect y="104.1" fill="#ffffff" x="-129.6" width="21.0" height="24.0"/><text xml:space="preserve" style="fill:#191919;font-family:Times New Roman;font-size:16.00pt"><tspan y="123.1" x="-129.6">no</tspan></text></g><g transform="translate(1645.65,975.10)" id="shape26"><path stroke="#323232" stroke-width="3" fill="#ffffff" d="M246.4,60.8L246.4,7.0C246.4,3.1,243.3,.0,239.4,.0L7.0,.0C3.1,.0,.0,3.1,.0,7.0L.0,60.8C.0,64.7,3.1,67.8,7.0,67.8L239.4,67.8C243.3,67.8,246.4,64.7,246.4,60.8z" fill-rule="nonzero"/><text xml:space="preserve" style="fill:#191919;font-family:Times New Roman;font-size:16.00pt"><tspan y="41.9" x="7.7">该位置是链表，遍历插入</tspan></text></g><g transform="translate(1667.78,952.40)" id="shape27"><path stroke="#303030" stroke-width="3" fill="none" d="M.0,.0L101.1,.0L101.1,12.3"/><path stroke="#303030" stroke-width="1" fill="#303030" d="M106.3,12.3L101.1,22.7L95.9,12.3L106.3,12.3" stroke-linecap="round"/><rect y="-12.0" fill="#ffffff" x="25.0" width="21.0" height="24.0"/><text xml:space="preserve" style="fill:#191919;font-family:Times New Roman;font-size:16.00pt"><tspan y="7.0" x="25.0">no</tspan></text></g><g transform="translate(1115.47,952.40)" id="shape28"><path stroke="#303030" stroke-width="3" fill="none" d="M.0,.0L-39.2,.0L-39.2,-1.0L-60.8,-1.0"/><path stroke="#303030" stroke-width="1" fill="#303030" d="M-60.8,4.2L-71.2,-1.0L-60.8,-6.2L-60.8,4.2" stroke-linecap="round"/><rect y="-13.0" fill="#ffffff" x="-52.8" width="26.0" height="24.0"/><text xml:space="preserve" style="fill:#191919;font-family:Times New Roman;font-size:16.00pt"><tspan y="6.0" x="-52.8">yes</tspan></text></g><g transform="translate(398.50,887.50)" id="shape29"><path stroke="#323232" stroke-width="3" fill="#ffffff" d="M645.7,120.8L645.7,7.0C645.7,3.1,642.6,.0,638.7,.0L7.0,.0C3.1,.0,.0,3.1,.0,7.0L.0,120.8C.0,124.7,3.1,127.8,7.0,127.8L638.7,127.8C642.6,127.8,645.7,124.7,645.7,120.8z" fill-rule="nonzero"/><text xml:space="preserve" style="fill:#191919;font-family:Times New Roman;font-size:16.00pt"><tspan y="58.0" x="58.9">e = ((TreeNode&lt;K,V>)p).putTreeVal(this, tab, hash, key, value);</tspan><tspan y="84.0" x="177.4">调用TreeNode对象方法插入节点</tspan></text></g><g transform="translate(701.57,1198.84)" id="shape30"><path stroke="#323232" stroke-width="3" fill="#ffffff" d="M334.7,208.3L669.4,104.2L334.7,.0L.0,104.2L334.7,208.3z" fill-rule="nonzero"/><text xml:space="preserve" style="fill:#191919;font-family:Times New Roman;font-size:16.00pt"><tspan y="85.2" x="155.7">binCount >= TREEIFY_THRESHOLD - 1</tspan><tspan y="111.2" x="184.7">-1 是因为链表第一个节点在tab上</tspan><tspan y="137.2" x="124.7">当链表节点个数超过阈值的时候，转为红黑树</tspan></text></g><g transform="translate(701.57,1303.00)" id="shape31"><path stroke="#303030" stroke-width="3" fill="none" d="M.0,.0L-60.7,.0"/><path stroke="#303030" stroke-width="1" fill="#303030" d="M-60.7,5.2L-71.1,.0L-60.7,-5.2L-60.7,5.2" stroke-linecap="round"/><rect y="-12.0" fill="#ffffff" x="-49.4" width="26.0" height="24.0"/><text xml:space="preserve" style="fill:#191919;font-family:Times New Roman;font-size:16.00pt"><tspan y="7.0" x="-49.4">yes</tspan></text></g><g transform="translate(398.50,1256.91)" id="shape32"><path stroke="#323232" stroke-width="3" fill="#ffffff" d="M232.0,85.2L232.0,7.0C232.0,3.1,228.8,.0,225.0,.0L7.0,.0C3.1,.0,.0,3.1,.0,7.0L.0,85.2C.0,89.0,3.1,92.2,7.0,92.2L225.0,92.2C228.8,92.2,232.0,89.0,232.0,85.2z" fill-rule="nonzero"/><text xml:space="preserve" style="fill:#191919;font-family:Times New Roman;font-size:16.00pt"><tspan y="27.1" x="29.0">treeifyBin(tab, hash);</tspan><tspan y="53.1" x="21.5">符合条件转成红黑树</tspan><tspan y="79.1" x="61.5">否则热size()</tspan></text></g><g transform="translate(1768.86,1042.90)" id="shape33"><path stroke="#303030" stroke-width="3" fill="none" d="M.0,.0L.0,17.5L-546.3,17.5L-546.3,39.1"/><path stroke="#303030" stroke-width="1" fill="#303030" d="M-541.1,39.1L-546.3,49.5L-551.5,39.1L-541.1,39.1" stroke-linecap="round"/></g><g transform="translate(1065.13,1092.38)" id="shape34"><path stroke="#323232" stroke-width="3" fill="#ffffff" d="M157.4,129.2L314.9,64.6L157.4,.0L.0,64.6L157.4,129.2z" fill-rule="nonzero"/><text xml:space="preserve" style="fill:#191919;font-family:Times New Roman;font-size:16.00pt"><tspan y="58.6" x="76.4">(e = p.next) == null</tspan><tspan y="84.6" x="73.4">链表末尾插入位置</tspan></text></g><g transform="translate(1065.13,1157.00)" id="shape35"><path stroke="#303030" stroke-width="3" fill="none" d="M.0,.0L-28.8,.0L-28.8,31.5"/><path stroke="#303030" stroke-width="1" fill="#303030" d="M-23.6,31.5L-28.8,41.8L-34.0,31.5L-23.6,31.5" stroke-linecap="round"/><rect y="-12.0" fill="#ffffff" x="-25.2" width="26.0" height="24.0"/><text xml:space="preserve" style="fill:#191919;font-family:Times New Roman;font-size:16.00pt"><tspan y="7.0" x="-25.2">yes</tspan></text></g><g transform="translate(935.00,1354.38)" id="shape36"><path stroke="#323232" stroke-width="3" fill="#ffffff" d="M471.0,179.6L942.1,89.8L471.0,.0L.0,89.8L471.0,179.6z" fill-rule="nonzero"/><text xml:space="preserve" style="fill:#191919;font-family:Times New Roman;font-size:16.00pt"><tspan y="83.8" x="172.0">e.hash == hash &amp;&amp; ((k = e.key) == key || (key != null &amp;&amp; key.equals(k)))</tspan><tspan y="109.8" x="296.0">待插入数据key值和该位置的key值相等</tspan></text></g><g transform="translate(1380.00,1157.00)" id="shape37"><path stroke="#303030" stroke-width="3" fill="none" d="M.0,.0L26.0,.0L26.0,187.0"/><path stroke="#303030" stroke-width="1" fill="#303030" d="M31.2,187.0L26.0,197.4L20.8,187.0L31.2,187.0" stroke-linecap="round"/><rect y="5.8" fill="#ffffff" x="16.5" width="21.0" height="24.0"/><text xml:space="preserve" style="fill:#191919;font-family:Times New Roman;font-size:16.00pt"><tspan y="24.8" x="16.5">no</tspan></text></g><g transform="translate(342.00,1477.00)" id="shape38"><path stroke="#323232" stroke-width="3" fill="#ffffff" d="M188.0,138.6L376.0,69.3L188.0,.0L.0,69.3L188.0,138.6z" fill-rule="nonzero"/><text xml:space="preserve" style="fill:#191919;font-family:Times New Roman;font-size:16.00pt"><tspan y="63.3" x="153.0">e != null</tspan><tspan y="89.3" x="90.0">待插入的key已经存在</tspan></text></g><g transform="translate(121.48,1603.29)" id="shape39"><path stroke="#323232" stroke-width="3" fill="#ffffff" d="M250.0,100.7L500.0,50.4L250.0,.0L.0,50.4L250.0,100.7z" fill-rule="nonzero"/><text xml:space="preserve" style="fill:#191919;font-family:Times New Roman;font-size:16.00pt"><tspan y="57.4" x="115.0">!onlyIfAbsent || oldValue == null</tspan></text></g><g transform="translate(285.96,1712.00)" id="shape40"><path stroke="#323232" stroke-width="3" fill="#ffffff" d="M170.0,53.0L170.0,7.0C170.0,3.1,166.9,.0,163.0,.0L7.0,.0C3.1,.0,.0,3.1,.0,7.0L.0,53.0C.0,56.9,3.1,60.0,7.0,60.0L163.0,60.0C166.9,60.0,170.0,56.9,170.0,53.0z" fill-rule="nonzero"/><text xml:space="preserve" style="fill:#191919;font-family:Times New Roman;font-size:16.00pt"><tspan y="24.0" x="19.5">e.value = value;</tspan><tspan y="50.0" x="43.0">覆盖旧值</tspan></text></g><g transform="translate(370.96,1772.00)" id="shape41"><path stroke="#303030" stroke-width="3" fill="none" d="M.0,.0L.0,7.0L.5,7.0"/><path stroke="#303030" stroke-width="1" fill="#303030" d="M5.7,4.6L.5,15.0L-4.7,4.6L5.7,4.6" stroke-linecap="round"/></g><g transform="translate(286.48,1787.00)" id="shape42"><path stroke="#323232" stroke-width="3" fill="#ffffff" d="M21.9,43.8L148.1,43.8L148.1,43.8C160.2,43.8,170.0,34.0,170.0,21.9C170.0,9.8,160.2,.0,148.1,.0L21.9,.0L21.9,.0C9.8,.0,.0,9.8,.0,21.9C.0,34.0,9.8,43.8,21.9,43.8z" fill-rule="nonzero"/><text xml:space="preserve" style="fill:#191919;font-family:Times New Roman;font-size:16.00pt"><tspan y="28.9" x="20.0">return oldValue</tspan></text></g><g transform="translate(342.00,1546.31)" id="shape43"><path stroke="#303030" stroke-width="3" fill="none" d="M.0,.0L-92.5,.0L-92.5,57.0L19.1,57.0"/><path stroke="#303030" stroke-width="1" fill="#303030" d="M19.1,51.8L29.5,57.0L19.1,62.2L19.1,51.8" stroke-linecap="round"/><rect y="-12.0" fill="#ffffff" x="-54.7" width="26.0" height="24.0"/><text xml:space="preserve" style="fill:#191919;font-family:Times New Roman;font-size:16.00pt"><tspan y="7.0" x="-54.7">yes</tspan></text></g><g transform="translate(268.50,1845.80)" id="shape44"><path stroke="#323232" stroke-width="3" fill="#ffffff" d="M209.0,73.2L209.0,7.0C209.0,3.1,205.8,.0,202.0,.0L7.0,.0C3.1,.0,.0,3.1,.0,7.0L.0,73.2C.0,77.1,3.1,80.2,7.0,80.2L202.0,80.2C205.8,80.2,209.0,77.1,209.0,73.2z" fill-rule="nonzero"/><text xml:space="preserve" style="fill:#191919;font-family:Times New Roman;font-size:16.00pt"><tspan y="34.1" x="45.5">++modCount;</tspan><tspan y="60.1" x="11.5">HashMap修改次数+1</tspan></text></g><g transform="translate(372.98,1925.99)" id="shape45"><path stroke="#303030" stroke-width="3" fill="none" d="M.0,.0L.0,7.0L-2.0,7.0"/><path stroke="#303030" stroke-width="1" fill="#303030" d="M3.2,4.6L-2.0,15.0L-7.2,4.6L3.2,4.6" stroke-linecap="round"/></g><g transform="translate(212.63,1940.99)" id="shape46"><path stroke="#323232" stroke-width="3" fill="#ffffff" d="M158.3,88.8L316.7,44.4L158.3,.0L.0,44.4L158.3,88.8z" fill-rule="nonzero"/><text xml:space="preserve" style="fill:#191919;font-family:Times New Roman;font-size:16.00pt"><tspan y="51.4" x="80.8">++size > threshold</tspan></text></g><g transform="translate(230.02,2036.80)" id="shape47"><path stroke="#323232" stroke-width="3" fill="#ffffff" d="M286.5,81.8L286.5,7.0C286.5,3.1,283.3,.0,279.5,.0L7.0,.0C3.1,.0,.0,3.1,.0,7.0L.0,81.8C.0,85.7,3.1,88.8,7.0,88.8L279.5,88.8C283.3,88.8,286.5,85.7,286.5,81.8z" fill-rule="nonzero"/><text xml:space="preserve" style="fill:#191919;font-family:Times New Roman;font-size:16.00pt"><tspan y="40.4" x="40.7">插入之后size>threshold</tspan><tspan y="64.4" x="112.2">resize()</tspan></text></g><g transform="translate(214.67,2148.61)" id="shape48"><path stroke="#323232" stroke-width="3" fill="#ffffff" d="M316.7,81.8L316.7,7.0C316.7,3.1,313.5,.0,309.7,.0L7.0,.0C3.1,.0,.0,3.1,.0,7.0L.0,81.8C.0,85.7,3.1,88.8,7.0,88.8L309.7,88.8C313.5,88.8,316.7,85.7,316.7,81.8z" fill-rule="nonzero"/><text xml:space="preserve" style="fill:#191919;font-family:Times New Roman;font-size:16.00pt"><tspan y="51.5" x="50.8">afterNodeInsertion(evict);</tspan></text></g><g transform="translate(373.26,2125.61)" id="shape49"><path stroke="#303030" stroke-width="3" fill="none" d="M.0,.0L.0,7.0L-0.3,7.0L-0.3,12.6"/><path stroke="#303030" stroke-width="1" fill="#303030" d="M4.9,12.6L-0.3,23.0L-5.5,12.6L4.9,12.6" stroke-linecap="round"/></g><g transform="translate(529.29,1985.39)" id="shape50"><path stroke="#303030" stroke-width="3" fill="none" d="M.0,.0L34.0,.0L34.0,207.6L12.4,207.6"/><path stroke="#303030" stroke-width="1" fill="#303030" d="M12.4,212.8L2.0,207.6L12.4,202.4L12.4,212.8" stroke-linecap="round"/><rect y="69.3" fill="#ffffff" x="24.5" width="21.0" height="24.0"/><text xml:space="preserve" style="fill:#191919;font-family:Times New Roman;font-size:16.00pt"><tspan y="88.3" x="24.5">no</tspan></text></g><g transform="translate(935.00,1444.19)" id="shape51"><path stroke="#303030" stroke-width="3" fill="none" d="M.0,.0L-405.0,.0L-405.0,22.4"/><path stroke="#303030" stroke-width="1" fill="#303030" d="M-399.8,22.4L-405.0,32.8L-410.2,22.4L-399.8,22.4" stroke-linecap="round"/><rect y="-12.0" fill="#ffffff" x="-120.9" width="26.0" height="24.0"/><text xml:space="preserve" style="fill:#191919;font-family:Times New Roman;font-size:16.00pt"><tspan y="7.0" x="-120.9">yes</tspan></text></g><g transform="translate(766.50,398.19)" id="shape52"><path stroke="#303030" stroke-width="3" fill="none" d="M.0,.0L644.1,.0"/><path stroke="#303030" stroke-width="1" fill="#303030" d="M644.1,-5.2L654.5,.0L644.1,5.2L644.1,-5.2" stroke-linecap="round"/></g><g transform="translate(1147.04,468.50)" id="shape53"><path stroke="#303030" stroke-width="3" fill="none" d="M.0,.0L-56.0,.0L-56.0,100.2L-209.1,100.2"/><path stroke="#303030" stroke-width="1" fill="#303030" d="M-209.1,105.4L-219.5,100.2L-209.1,95.0L-209.1,105.4" stroke-linecap="round"/><rect y="8.1" fill="#ffffff" x="-68.0" width="26.0" height="24.0"/><text xml:space="preserve" style="fill:#191919;font-family:Times New Roman;font-size:16.00pt"><tspan y="27.1" x="-68.0">yes</tspan></text></g><g transform="translate(121.48,1653.64)" id="shape54"><path stroke="#303030" stroke-width="3" fill="none" d="M.0,.0L-32.0,.0L-32.0,88.4L154.1,88.4"/><path stroke="#303030" stroke-width="1" fill="#303030" d="M154.1,83.2L164.5,88.4L154.1,93.6L154.1,83.2" stroke-linecap="round"/><rect y="43.1" fill="#ffffff" x="-44.0" width="26.0" height="24.0"/><text xml:space="preserve" style="fill:#191919;font-family:Times New Roman;font-size:16.00pt"><tspan y="62.1" x="-44.0">yes</tspan></text></g><g transform="translate(212.63,1985.39)" id="shape55"><path stroke="#303030" stroke-width="3" fill="none" d="M.0,.0L-32.0,.0L-32.0,95.8L7.0,95.8"/><path stroke="#303030" stroke-width="1" fill="#303030" d="M7.0,90.6L17.4,95.8L7.0,101.0L7.0,90.6" stroke-linecap="round"/><rect y="13.3" fill="#ffffff" x="-44.0" width="26.0" height="24.0"/><text xml:space="preserve" style="fill:#191919;font-family:Times New Roman;font-size:16.00pt"><tspan y="32.3" x="-44.0">yes</tspan></text></g><g transform="translate(373.00,2237.42)" id="shape56"><path stroke="#303030" stroke-width="3" fill="none" d="M.0,.0L.0,5.6"/><path stroke="#303030" stroke-width="1" fill="#303030" d="M5.2,5.6L.0,16.0L-5.2,5.6L5.2,5.6" stroke-linecap="round"/></g><g transform="translate(266.50,2253.42)" id="shape57"><path stroke="#323232" stroke-width="3" fill="#ffffff" d="M34.3,68.7L178.7,68.7L178.7,68.7C197.6,68.7,213.0,53.3,213.0,34.3C213.0,15.4,197.6,.0,178.7,.0L34.3,.0L34.3,.0C15.4,.0,.0,15.4,.0,34.3C.0,53.3,15.4,68.7,34.3,68.7z" fill-rule="nonzero"/><text xml:space="preserve" style="fill:#191919;font-family:Times New Roman;font-size:16.00pt"><tspan y="41.5" x="60.0">return null;</tspan></text></g><g transform="translate(1877.08,1444.19)" id="shape58"><path stroke="#303030" stroke-width="3" fill="none" d="M.0,.0L32.0,.0L32.0,-383.8L-654.5,-383.8L-654.5,-362.2"/><path stroke="#303030" stroke-width="1" fill="#303030" d="M-649.3,-362.2L-654.5,-351.8L-659.7,-362.2L-649.3,-362.2" stroke-linecap="round"/></g></g></svg>