<svg xmlns="http://www.w3.org/2000/svg" xmlns:ev="http://www.w3.org/2001/xml-events" viewBox="0 0 1133 804" width="1133" height="804" xmlns:xlink="http://www.w3.org/1999/xlink"><defs/><g transform="translate(5.5,5.5)" id="page1"><rect fill="#fbfcfb" width="1123" height="794" x="0" y="0"/><path stroke="#000000" fill="none" transform="translate(619.03,306.26)" stroke-width="2" stroke-linecap="round" d="M-26.5,49.8C2.2,2.8,10.8,-80.8,73.5,-80.8" id="shape1"/><path stroke="#000000" fill="none" transform="translate(619.03,365.61)" stroke-width="2" stroke-linecap="round" d="M2.3,.3C24.4,-10.5,45.3,-21.4,73.5,-21.4" id="shape2"/><path stroke="#000000" fill="none" transform="translate(619.03,457.30)" stroke-width="2" stroke-linecap="round" d="M-23.7,-39.3C4.0,2.1,16.5,70.3,73.5,70.3" id="shape3"/><path stroke="#000000" fill="none" transform="translate(471.93,438.11)" stroke-width="2" stroke-linecap="round" d="M16.2,-20.4C-9.4,9.7,-27.8,51.1,-73.6,51.1" id="shape4"/><path stroke="#000000" fill="none" transform="translate(471.93,335.06)" stroke-width="2" stroke-linecap="round" d="M16.6,21.2C-9.0,-9.5,-27.3,-52.0,-73.6,-52.0" id="shape5"/><path stroke="#000000" fill="none" transform="translate(824.48,319.73)" stroke-width="2" stroke-linecap="round" d="M-12.5,24.5C2.7,24.5,-7.2,-24.5,12.5,-24.5" id="shape6"/><path stroke="#000000" fill="none" transform="translate(824.48,342.46)" stroke-width="2" stroke-linecap="round" d="M-12.5,1.8C-2.1,1.8,4.0,-1.8,12.5,-1.8" id="shape7"/><path stroke="#000000" fill="none" transform="translate(824.48,491.75)" stroke-width="2" stroke-linecap="round" d="M-12.5,35.8C4.3,35.8,-10.8,-35.8,12.5,-35.8" id="shape8"/><path stroke="#000000" fill="none" transform="translate(824.48,514.47)" stroke-width="2" stroke-linecap="round" d="M-12.5,13.1C.5,13.1,-2.0,-13.1,12.5,-13.1" id="shape9"/><path stroke="#000000" fill="none" transform="translate(824.48,537.20)" stroke-width="2" stroke-linecap="round" d="M-12.5,-9.6C-0.3,-9.6,-0.2,9.6,12.5,9.6" id="shape10"/><path stroke="#000000" fill="none" transform="translate(824.48,559.92)" stroke-width="2" stroke-linecap="round" d="M-12.5,-32.3C3.9,-32.3,-9.9,32.3,12.5,32.3" id="shape11"/><path stroke="#000000" fill="none" transform="translate(236.08,442.01)" stroke-width="2" stroke-linecap="round" d="M12.5,47.2C-5.0,47.2,12.4,-47.2,-12.5,-47.2" id="shape12"/><path stroke="#000000" fill="none" transform="translate(176.08,258.63)" stroke-width="2" stroke-linecap="round" d="M12.5,24.5C-2.7,24.5,7.2,-24.5,-12.5,-24.5" id="shape13"/><path stroke="#000000" fill="none" transform="translate(176.08,281.36)" stroke-width="2" stroke-linecap="round" d="M12.5,1.8C2.1,1.8,-4.0,-1.8,-12.5,-1.8" id="shape14"/><path stroke="#000000" fill="none" transform="translate(176.08,304.08)" stroke-width="2" stroke-linecap="round" d="M12.5,-21.0C-2.1,-21.0,5.7,21.0,-12.5,21.0" id="shape15"/><path stroke="#000000" fill="none" transform="translate(824.48,365.18)" stroke-width="2" stroke-linecap="round" d="M-12.5,-21.0C2.1,-21.0,-5.7,21.0,12.5,21.0" id="shape16"/><path stroke="#000000" fill="none" transform="translate(236.08,464.73)" stroke-width="2" stroke-linecap="round" d="M12.5,24.5C-2.7,24.5,7.2,-24.5,-12.5,-24.5" id="shape17"/><path stroke="#000000" fill="none" transform="translate(236.08,487.46)" stroke-width="2" stroke-linecap="round" d="M12.5,1.8C2.1,1.8,-4.0,-1.8,-12.5,-1.8" id="shape18"/><path stroke="#000000" fill="none" transform="translate(236.08,510.18)" stroke-width="2" stroke-linecap="round" d="M12.5,-21.0C-2.1,-21.0,5.7,21.0,-12.5,21.0" id="shape19"/><path stroke="#000000" fill="none" transform="translate(236.08,532.91)" stroke-width="2" stroke-linecap="round" d="M12.5,-43.7C-4.9,-43.7,12.2,43.7,-12.5,43.7" id="shape20"/><g transform="translate(461.38,356.01)" id="shape21"><path stroke="#000000" fill="#ffffff" stroke-width="4" d="M31.0,.0L137.2,.0C154.3,.0,168.2,13.9,168.2,31.0C168.2,48.1,154.3,62.0,137.2,62.0L31.0,62.0C13.9,62.0,.0,48.1,.0,31.0C.0,13.9,13.9,.0,31.0,.0z" fill-rule="nonzero"/><text xml:space="preserve" style="fill:#454545;font-family:Microsoft YaHei;font-size:15.00pt"><tspan x="30.7" y="39.0">Spring AOP</tspan></text></g><g transform="translate(692.58,181.76)" id="shape22"><path stroke="#000000" fill="none" stroke-width="2" d="M.0,43.8L119.4,43.8"/><text xml:space="preserve" style="fill:#454545;font-family:Microsoft YaHei;font-size:15.00pt"><tspan x="20.8" y="29.8">代理模式</tspan></text></g><g transform="translate(692.58,300.46)" id="shape23"><path stroke="#000000" fill="none" stroke-width="2" d="M.0,43.8L119.4,43.8"/><text xml:space="preserve" style="fill:#454545;font-family:Microsoft YaHei;font-size:15.00pt"><tspan x="20.8" y="29.8">静态代理</tspan></text></g><g transform="translate(692.58,483.83)" id="shape24"><path stroke="#000000" fill="none" stroke-width="2" d="M.0,43.8L119.4,43.8"/><text xml:space="preserve" style="fill:#454545;font-family:Microsoft YaHei;font-size:15.00pt"><tspan x="20.8" y="29.8">动态代理</tspan></text></g><g transform="translate(248.58,445.46)" id="shape25"><path stroke="#000000" fill="none" stroke-width="2" d="M.0,43.8L149.8,43.8"/><text xml:space="preserve" style="fill:#454545;font-family:Microsoft YaHei;font-size:15.00pt"><tspan x="20.8" y="29.8">Spring AOP</tspan></text></g><g transform="translate(188.58,239.36)" id="shape26"><path stroke="#000000" fill="none" stroke-width="2" d="M.0,43.8L209.8,43.8"/><text xml:space="preserve" style="fill:#454545;font-family:Microsoft YaHei;font-size:15.00pt"><tspan x="20.8" y="29.8">Spring AOP的实现</tspan></text></g><g transform="translate(836.98,258.51)" id="shape27"><path stroke="#000000" fill="none" stroke-width="2" d="M.0,36.8L141.4,36.8"/><text xml:space="preserve" style="fill:#454545;font-family:Microsoft YaHei;font-size:15.00pt"><tspan x="11.8" y="26.1">代理的三要素</tspan></text></g><g transform="translate(836.98,303.96)" id="shape28"><path stroke="#000000" fill="none" stroke-width="2" d="M.0,36.8L61.4,36.8"/><text xml:space="preserve" style="fill:#454545;font-family:Microsoft YaHei;font-size:15.00pt"><tspan x="11.8" y="26.1">特点</tspan></text></g><g transform="translate(836.98,419.16)" id="shape29"><path stroke="#000000" fill="none" stroke-width="2" d="M.0,36.8L61.4,36.8"/><text xml:space="preserve" style="fill:#454545;font-family:Microsoft YaHei;font-size:15.00pt"><tspan x="11.8" y="26.1">特点</tspan></text></g><g transform="translate(836.98,464.61)" id="shape30"><path stroke="#000000" fill="none" stroke-width="2" d="M.0,36.8L137.4,36.8"/><text xml:space="preserve" style="fill:#454545;font-family:Microsoft YaHei;font-size:15.00pt"><tspan x="11.8" y="26.1">JDK动态代理</tspan></text></g><g transform="translate(836.98,510.06)" id="shape31"><path stroke="#000000" fill="none" stroke-width="2" d="M.0,36.8L164.6,36.8"/><text xml:space="preserve" style="fill:#454545;font-family:Microsoft YaHei;font-size:15.00pt"><tspan x="11.8" y="26.1">CGLIB 动态代理</tspan></text></g><g transform="translate(836.98,555.51)" id="shape32"><path stroke="#000000" fill="none" stroke-width="2" d="M.0,36.8L275.0,36.8"/><text xml:space="preserve" style="fill:#454545;font-family:Microsoft YaHei;font-size:15.00pt"><tspan x="11.8" y="26.1">JDK代理与CGLIB代理的区别</tspan></text></g><g transform="translate(31.78,358.06)" id="shape33"><path stroke="#000000" fill="none" stroke-width="2" d="M.0,36.8L191.8,36.8"/><text xml:space="preserve" style="fill:#454545;font-family:Microsoft YaHei;font-size:15.00pt"><tspan x="11.8" y="26.1">什么是Spring AOP</tspan></text></g><g transform="translate(62.18,197.41)" id="shape34"><path stroke="#000000" fill="none" stroke-width="2" d="M.0,36.8L101.4,36.8"/><text xml:space="preserve" style="fill:#454545;font-family:Microsoft YaHei;font-size:15.00pt"><tspan x="11.8" y="26.1">环境搭建</tspan></text></g><g transform="translate(62.18,242.86)" id="shape35"><path stroke="#000000" fill="none" stroke-width="2" d="M.0,36.8L101.4,36.8"/><text xml:space="preserve" style="fill:#454545;font-family:Microsoft YaHei;font-size:15.00pt"><tspan x="11.8" y="26.1">注解实现</tspan></text></g><g transform="translate(54.18,288.31)" id="shape36"><path stroke="#000000" fill="none" stroke-width="2" d="M.0,36.8L109.4,36.8"/><text xml:space="preserve" style="fill:#454545;font-family:Microsoft YaHei;font-size:15.00pt"><tspan x="11.8" y="26.1">XML 实现</tspan></text></g><g transform="translate(836.98,349.41)" id="shape37"><path stroke="#000000" fill="none" stroke-width="2" d="M.0,36.8L61.4,36.8"/><text xml:space="preserve" style="fill:#454545;font-family:Microsoft YaHei;font-size:15.00pt"><tspan x="11.8" y="26.1">实现</tspan></text></g><g transform="translate(122.18,403.51)" id="shape38"><path stroke="#000000" fill="none" stroke-width="2" d="M.0,36.8L101.4,36.8"/><text xml:space="preserve" style="fill:#454545;font-family:Microsoft YaHei;font-size:15.00pt"><tspan x="11.8" y="26.1">能做什么</tspan></text></g><g transform="translate(162.18,448.96)" id="shape39"><path stroke="#000000" fill="none" stroke-width="2" d="M.0,36.8L61.4,36.8"/><text xml:space="preserve" style="fill:#454545;font-family:Microsoft YaHei;font-size:15.00pt"><tspan x="11.8" y="26.1">特点</tspan></text></g><g transform="translate(122.18,494.41)" id="shape40"><path stroke="#000000" fill="none" stroke-width="2" d="M.0,36.8L101.4,36.8"/><text xml:space="preserve" style="fill:#454545;font-family:Microsoft YaHei;font-size:15.00pt"><tspan x="11.8" y="26.1">底层实现</tspan></text></g><g transform="translate(122.18,539.86)" id="shape41"><path stroke="#000000" fill="none" stroke-width="2" d="M.0,36.8L101.4,36.8"/><text xml:space="preserve" style="fill:#454545;font-family:Microsoft YaHei;font-size:15.00pt"><tspan x="11.8" y="26.1">基本概念</tspan></text></g></g></svg>