<svg width="973" height="475" xmlns="http://www.w3.org/2000/svg" xmlns:xlink="http://www.w3.org/1999/xlink" overflow="hidden"><defs><clipPath id="clip0"><rect x="158" y="53" width="973" height="475"/></clipPath></defs><g clip-path="url(#clip0)" transform="translate(-158 -53)"><path d="M159.5 134.002C159.5 90.6466 194.647 55.5001 238.002 55.5001L1052 55.5001C1095.35 55.5001 1130.5 90.6466 1130.5 134.002L1130.5 447.998C1130.5 491.353 1095.35 526.5 1052 526.5L238.002 526.5C194.647 526.5 159.5 491.353 159.5 447.998Z" stroke="#000000" stroke-width="1.33333" stroke-miterlimit="8" fill="none" fill-rule="evenodd"/><path d="M189.5 171.168C189.5 133.796 219.796 103.5 257.168 103.5L533.832 103.5C571.204 103.5 601.5 133.796 601.5 171.168L601.5 441.832C601.5 479.204 571.204 509.5 533.832 509.5L257.168 509.5C219.796 509.5 189.5 479.204 189.5 441.832Z" stroke="#000000" stroke-width="1.33333" stroke-miterlimit="8" fill="none" fill-rule="evenodd"/><path d="M834.5 146.334C834.5 122.678 853.678 103.5 877.334 103.5L1048.67 103.5C1072.32 103.5 1091.5 122.678 1091.5 146.334L1091.5 466.666C1091.5 490.322 1072.32 509.5 1048.67 509.5L877.334 509.5C853.678 509.5 834.5 490.322 834.5 466.666Z" stroke="#000000" stroke-width="1.33333" stroke-miterlimit="8" fill="none" fill-rule="evenodd"/><path d="M931.5 249C931.5 244.858 934.858 241.5 939 241.5L1017 241.5C1021.14 241.5 1024.5 244.858 1024.5 249L1024.5 279C1024.5 283.142 1021.14 286.5 1017 286.5L939 286.5C934.858 286.5 931.5 283.142 931.5 279Z" stroke="#000000" stroke-width="1.33333" stroke-miterlimit="8" fill="none" fill-rule="evenodd"/><text font-family="Times New Roman,Times New Roman_MSFontService,sans-serif" font-weight="400" font-size="21" transform="translate(952.202 272)">bean1</text><path d="M931.5 309C931.5 304.858 934.858 301.5 939 301.5L1017 301.5C1021.14 301.5 1024.5 304.858 1024.5 309L1024.5 339C1024.5 343.142 1021.14 346.5 1017 346.5L939 346.5C934.858 346.5 931.5 343.142 931.5 339Z" stroke="#000000" stroke-width="1.33333" stroke-miterlimit="8" fill="none" fill-rule="evenodd"/><text font-family="Times New Roman,Times New Roman_MSFontService,sans-serif" font-weight="400" font-size="21" transform="translate(952.202 332)">bean2</text><path d="M931.5 382C931.5 377.858 934.858 374.5 939 374.5L1017 374.5C1021.14 374.5 1024.5 377.858 1024.5 382L1024.5 412C1024.5 416.142 1021.14 419.5 1017 419.5L939 419.5C934.858 419.5 931.5 416.142 931.5 412Z" stroke="#000000" stroke-width="1.33333" stroke-miterlimit="8" fill="none" fill-rule="evenodd"/><text font-family="Times New Roman,Times New Roman_MSFontService,sans-serif" font-weight="400" font-size="21" transform="translate(949.869 405)">beanN</text><path d="M961.5 361.5 995.543 361.5" stroke="#000000" stroke-width="1.33333" stroke-miterlimit="8" stroke-dasharray="4 1.33333" fill="none" fill-rule="evenodd"/><path d="M211.5 163C211.5 158.858 214.858 155.5 219 155.5L581 155.5C585.142 155.5 588.5 158.858 588.5 163L588.5 193C588.5 197.142 585.142 200.5 581 200.5L219 200.5C214.858 200.5 211.5 197.142 211.5 193Z" stroke="#000000" stroke-width="1.33333" stroke-miterlimit="8" fill="none" fill-rule="evenodd"/><text font-family="Times New Roman,Times New Roman_MSFontService,sans-serif" font-weight="400" font-size="21" transform="translate(233.454 186)">&lt;bean id=‘bean1’ class=“…”&gt;&lt;/bean&gt;<tspan font-size="21" x="-12.3083" y="-105">Spring</tspan><tspan font-family="Microsoft YaHei,Microsoft YaHei_MSFontService,sans-serif" font-size="21" x="44.6917" y="-105">容器</tspan><tspan font-size="21" x="-10.7505" y="-49">Bean</tspan><tspan font-family="Microsoft YaHei,Microsoft YaHei_MSFontService,sans-serif" font-size="21" x="33.0829" y="-49">定义</tspan></text><path d="M211.5 228C211.5 223.858 214.858 220.5 219 220.5L581 220.5C585.142 220.5 588.5 223.858 588.5 228L588.5 258C588.5 262.142 585.142 265.5 581 265.5L219 265.5C214.858 265.5 211.5 262.142 211.5 258Z" stroke="#000000" stroke-width="1.33333" stroke-miterlimit="8" fill="none" fill-rule="evenodd"/><text font-family="Times New Roman,Times New Roman_MSFontService,sans-serif" font-weight="400" font-size="21" transform="translate(233.454 250)">&lt;bean id=‘bean2’ class=“…”&gt;&lt;/bean&gt;</text><path d="M211.5 384.334C211.5 377.246 217.246 371.5 224.333 371.5L575.667 371.5C582.754 371.5 588.5 377.246 588.5 384.334L588.5 435.667C588.5 442.754 582.754 448.5 575.667 448.5L224.333 448.5C217.246 448.5 211.5 442.754 211.5 435.667Z" stroke="#000000" stroke-width="1.33333" stroke-miterlimit="8" fill="none" fill-rule="evenodd"/><text font-family="Times New Roman,Times New Roman_MSFontService,sans-serif" font-weight="400" font-size="21" transform="translate(224.325 392)">&lt;bean id=‘beanN<tspan font-size="21" x="149.167" y="0">’ class=“…”</tspan><tspan font-size="21" x="0" y="25">lazy</tspan><tspan font-size="21" x="35.6667" y="25">-</tspan><tspan font-size="21" x="42.8333" y="25">init</tspan><tspan font-size="21" x="71.5" y="25">=“true”&gt;</tspan><tspan font-size="21" x="0" y="51">&lt;/bean&gt;</tspan></text><path d="M380.5 324.5 414.543 324.5" stroke="#000000" stroke-width="1.33333" stroke-miterlimit="8" stroke-dasharray="4 1.33333" fill="none" fill-rule="evenodd"/><text font-family="Microsoft YaHei,Microsoft YaHei_MSFontService,sans-serif" font-weight="400" font-size="21" transform="translate(843.799 139)">单例缓存池</text><path d="M601.5 305.833 827.285 305.833 827.285 307.167 601.5 307.167ZM825.952 302.5 833.952 306.5 825.952 310.5Z"/><text font-family="Microsoft YaHei,Microsoft YaHei_MSFontService,sans-serif" font-weight="400" font-size="21" transform="translate(611.859 290)">将单例<tspan font-family="Times New Roman,Times New Roman_MSFontService,sans-serif" font-size="21" x="64" y="0">bean</tspan><tspan font-size="21" x="104.333" y="0">放入缓存池</tspan><tspan font-family="Times New Roman,Times New Roman_MSFontService,sans-serif" font-size="21" x="-1.12598" y="60">lazy</tspan><tspan font-family="Times New Roman,Times New Roman_MSFontService,sans-serif" font-size="21" x="34.5407" y="60">-</tspan><tspan font-family="Times New Roman,Times New Roman_MSFontService,sans-serif" font-size="21" x="41.7073" y="60">init</tspan><tspan font-family="Times New Roman,Times New Roman_MSFontService,sans-serif" font-size="21" x="70.374" y="60">=“true”</tspan><tspan font-size="21" x="139.154" y="60">会在使</tspan><tspan font-size="21" x="-1.12598" y="85">用时实例化并放入缓</tspan><tspan font-size="21" x="-1.12598" y="111">存</tspan><tspan font-size="21" x="20.2073" y="111">池</tspan></text></g></svg>