<svg width="1282" height="243" xmlns="http://www.w3.org/2000/svg" xmlns:xlink="http://www.w3.org/1999/xlink" overflow="hidden"><defs><clipPath id="clip0"><rect x="-1" y="262" width="1282" height="243"/></clipPath></defs><g clip-path="url(#clip0)" transform="translate(1 -262)"><rect x="0" y="263" width="1280" height="240" fill="#FFFFFF"/><path d="M670.5 286.9C670.5 283.918 672.918 281.5 675.9 281.5L746.1 281.5C749.082 281.5 751.5 283.918 751.5 286.9L751.5 330.1C751.5 333.082 749.082 335.5 746.1 335.5L675.9 335.5C672.918 335.5 670.5 333.082 670.5 330.1Z" stroke="#000000" stroke-width="1.33333" stroke-miterlimit="8" fill="none" fill-rule="evenodd"/><text font-family="Times New Roman,Times New Roman_MSFontService,sans-serif" font-weight="400" font-size="24" transform="translate(706.795 315)">/</text><path d="M710.766 335.5 710.766 346.313 181.5 346.313 181.5 357.125" stroke="#000000" stroke-width="1.33333" stroke-miterlimit="8" fill="none" fill-rule="evenodd"/><path d="M140.5 361.9C140.5 358.918 142.918 356.5 145.9 356.5L216.1 356.5C219.082 356.5 221.5 358.918 221.5 361.9L221.5 405.1C221.5 408.082 219.082 410.5 216.1 410.5L145.9 410.5C142.918 410.5 140.5 408.082 140.5 405.1Z" stroke="#000000" stroke-width="1.33333" stroke-miterlimit="8" fill="none" fill-rule="evenodd"/><text font-family="Times New Roman,Times New Roman_MSFontService,sans-serif" font-weight="400" font-size="24" transform="translate(158.199 391)">/root</text><path d="M181.161 410.5 181.161 421.313 64.5001 421.313 64.5001 432.125" stroke="#000000" stroke-width="1.33333" stroke-miterlimit="8" fill="none" fill-rule="evenodd"/><path d="M4.50005 437.9C4.50005 434.918 6.91772 432.5 9.90005 432.5L119.1 432.5C122.082 432.5 124.5 434.918 124.5 437.9L124.5 481.1C124.5 484.082 122.082 486.5 119.1 486.5L9.90005 486.5C6.91772 486.5 4.50005 484.082 4.50005 481.1Z" stroke="#000000" stroke-width="1.33333" stroke-miterlimit="8" fill="none" fill-rule="evenodd"/><text font-family="Times New Roman,Times New Roman_MSFontService,sans-serif" font-weight="400" font-size="24" transform="translate(20.8717 467)">/Desktop</text><path d="M181.5 410.5 181.5 421.313 200.83 421.313 200.83 432.125" stroke="#000000" stroke-width="1.33333" stroke-miterlimit="8" fill="none" fill-rule="evenodd"/><path d="M144.5 437.9C144.5 434.918 146.918 432.5 149.9 432.5L251.1 432.5C254.082 432.5 256.5 434.918 256.5 437.9L256.5 481.1C256.5 484.082 254.082 486.5 251.1 486.5L149.9 486.5C146.918 486.5 144.5 484.082 144.5 481.1Z" stroke="#000000" stroke-width="1.33333" stroke-miterlimit="8" fill="none" fill-rule="evenodd"/><text font-family="Times New Roman,Times New Roman_MSFontService,sans-serif" font-weight="400" font-size="24" transform="translate(160.866 467)">/<tspan font-size="24" x="6.66667" y="0">Maildir</tspan></text><path d="M181.5 410.5 181.5 421.313 321.757 421.313 321.757 432.125" stroke="#000000" stroke-width="1.33333" stroke-miterlimit="8" fill="none" fill-rule="evenodd"/><path d="M281.5 437.9C281.5 434.918 283.918 432.5 286.9 432.5L357.1 432.5C360.082 432.5 362.5 434.918 362.5 437.9L362.5 481.1C362.5 484.082 360.082 486.5 357.1 486.5L286.9 486.5C283.918 486.5 281.5 484.082 281.5 481.1Z" stroke="#000000" stroke-width="1.33333" stroke-miterlimit="8" fill="none" fill-rule="evenodd"/><text font-family="Times New Roman,Times New Roman_MSFontService,sans-serif" font-weight="400" font-size="24" transform="translate(309.12 467)">…</text><path d="M710.344 335.5 710.344 346.313 286.5 346.313 286.5 357.125" stroke="#000000" stroke-width="1.33333" stroke-miterlimit="8" fill="none" fill-rule="evenodd"/><path d="M246.5 361.9C246.5 358.918 248.918 356.5 251.9 356.5L322.1 356.5C325.082 356.5 327.5 358.918 327.5 361.9L327.5 405.1C327.5 408.082 325.082 410.5 322.1 410.5L251.9 410.5C248.918 410.5 246.5 408.082 246.5 405.1Z" stroke="#000000" stroke-width="1.33333" stroke-miterlimit="8" fill="none" fill-rule="evenodd"/><text font-family="Times New Roman,Times New Roman_MSFontService,sans-serif" font-weight="400" font-size="24" transform="translate(267.618 391)">/bin</text><path d="M710.922 335.5 710.922 346.313 392.5 346.313 392.5 357.125" stroke="#34599C" stroke-width="1.33333" stroke-miterlimit="8" fill="none" fill-rule="evenodd"/><path d="M351.5 361.9C351.5 358.918 353.918 356.5 356.9 356.5L427.1 356.5C430.082 356.5 432.5 358.918 432.5 361.9L432.5 405.1C432.5 408.082 430.082 410.5 427.1 410.5L356.9 410.5C353.918 410.5 351.5 408.082 351.5 405.1Z" stroke="#000000" stroke-width="1.33333" stroke-miterlimit="8" fill="none" fill-rule="evenodd"/><text font-family="Times New Roman,Times New Roman_MSFontService,sans-serif" font-weight="400" font-size="24" transform="translate(367.04 391)">/boot</text><path d="M710.5 335.5 710.5 346.313 497.5 346.313 497.5 357.125" stroke="#34599C" stroke-width="1.33333" stroke-miterlimit="8" fill="none" fill-rule="evenodd"/><path d="M457.5 361.9C457.5 358.918 459.918 356.5 462.9 356.5L533.1 356.5C536.082 356.5 538.5 358.918 538.5 361.9L538.5 405.1C538.5 408.082 536.082 410.5 533.1 410.5L462.9 410.5C459.918 410.5 457.5 408.082 457.5 405.1Z" stroke="#000000" stroke-width="1.33333" stroke-miterlimit="8" fill="none" fill-rule="evenodd"/><text font-family="Times New Roman,Times New Roman_MSFontService,sans-serif" font-weight="400" font-size="24" transform="translate(476.468 391)">/dev</text><path d="M711.078 335.5 711.078 346.313 603.5 346.313 603.5 357.125" stroke="#000000" stroke-width="1.33333" stroke-miterlimit="8" fill="none" fill-rule="evenodd"/><path d="M562.5 361.9C562.5 358.918 564.918 356.5 567.9 356.5L638.1 356.5C641.082 356.5 643.5 358.918 643.5 361.9L643.5 405.1C643.5 408.082 641.082 410.5 638.1 410.5L567.9 410.5C564.918 410.5 562.5 408.082 562.5 405.1Z" stroke="#000000" stroke-width="1.33333" stroke-miterlimit="8" fill="none" fill-rule="evenodd"/><text font-family="Times New Roman,Times New Roman_MSFontService,sans-serif" font-weight="400" font-size="24" transform="translate(585.23 391)">/<tspan font-size="24" x="6.66669" y="0">etc</tspan></text><path d="M710.456 335.5 710.456 346.313 708.3 346.313 708.3 357.125" stroke="#000000" stroke-width="1.33333" stroke-miterlimit="8" fill="none" fill-rule="evenodd"/><path d="M667.5 361.9C667.5 358.918 669.918 356.5 672.9 356.5L744.1 356.5C747.082 356.5 749.5 358.918 749.5 361.9L749.5 405.1C749.5 408.082 747.082 410.5 744.1 410.5L672.9 410.5C669.918 410.5 667.5 408.082 667.5 405.1Z" stroke="#000000" stroke-width="1.33333" stroke-miterlimit="8" fill="none" fill-rule="evenodd"/><text font-family="Times New Roman,Times New Roman_MSFontService,sans-serif" font-weight="400" font-size="24" transform="translate(677.979 391)">/home</text><path d="M710.5 335.5 710.5 346.313 813.766 346.313 813.766 357.125" stroke="#000000" stroke-width="1.33333" stroke-miterlimit="8" fill="none" fill-rule="evenodd"/><path d="M773.5 361.9C773.5 358.918 775.918 356.5 778.9 356.5L849.1 356.5C852.082 356.5 854.5 358.918 854.5 361.9L854.5 405.1C854.5 408.082 852.082 410.5 849.1 410.5L778.9 410.5C775.918 410.5 773.5 408.082 773.5 405.1Z" stroke="#000000" stroke-width="1.33333" stroke-miterlimit="8" fill="none" fill-rule="evenodd"/><text font-family="Times New Roman,Times New Roman_MSFontService,sans-serif" font-weight="400" font-size="24" transform="translate(794.737 391)">/var</text><path d="M710.5 335.5 710.5 346.313 919.188 346.313 919.188 357.125" stroke="#000000" stroke-width="1.33333" stroke-miterlimit="8" fill="none" fill-rule="evenodd"/><path d="M878.5 361.9C878.5 358.918 880.918 356.5 883.9 356.5L954.1 356.5C957.082 356.5 959.5 358.918 959.5 361.9L959.5 405.1C959.5 408.082 957.082 410.5 954.1 410.5L883.9 410.5C880.918 410.5 878.5 408.082 878.5 405.1Z" stroke="#000000" stroke-width="1.33333" stroke-miterlimit="8" fill="none" fill-rule="evenodd"/><text font-family="Times New Roman,Times New Roman_MSFontService,sans-serif" font-weight="400" font-size="24" transform="translate(902.816 391)">/lib</text><path d="M710.5 335.5 710.5 346.313 1024.61 346.313 1024.61 357.125" stroke="#000000" stroke-width="1.33333" stroke-miterlimit="8" fill="none" fill-rule="evenodd"/><path d="M984.5 361.9C984.5 358.918 986.918 356.5 989.9 356.5L1060.1 356.5C1063.08 356.5 1065.5 358.918 1065.5 361.9L1065.5 405.1C1065.5 408.082 1063.08 410.5 1060.1 410.5L989.9 410.5C986.918 410.5 984.5 408.082 984.5 405.1Z" stroke="#000000" stroke-width="1.33333" stroke-miterlimit="8" fill="none" fill-rule="evenodd"/><text font-family="Times New Roman,Times New Roman_MSFontService,sans-serif" font-weight="400" font-size="24" transform="translate(1006.24 391)">/<tspan font-size="24" x="6.66669" y="0">usr</tspan></text><path d="M1024.92 410.5 1024.92 421.313 919.5 421.313 919.5 432.125" stroke="#000000" stroke-width="1.33333" stroke-miterlimit="8" fill="none" fill-rule="evenodd"/><path d="M878.5 437.9C878.5 434.918 880.918 432.5 883.9 432.5L954.1 432.5C957.082 432.5 959.5 434.918 959.5 437.9L959.5 481.1C959.5 484.082 957.082 486.5 954.1 486.5L883.9 486.5C880.918 486.5 878.5 484.082 878.5 481.1Z" stroke="#000000" stroke-width="1.33333" stroke-miterlimit="8" fill="none" fill-rule="evenodd"/><text font-family="Times New Roman,Times New Roman_MSFontService,sans-serif" font-weight="400" font-size="24" transform="translate(900.149 467)">/bin</text><path d="M1024.3 410.5 1024.3 432.125" stroke="#000000" stroke-width="1.33333" stroke-miterlimit="8" fill="none" fill-rule="evenodd"/><path d="M984.5 437.9C984.5 434.918 986.918 432.5 989.9 432.5L1060.1 432.5C1063.08 432.5 1065.5 434.918 1065.5 437.9L1065.5 481.1C1065.5 484.082 1063.08 486.5 1060.1 486.5L989.9 486.5C986.918 486.5 984.5 484.082 984.5 481.1Z" stroke="#000000" stroke-width="1.33333" stroke-miterlimit="8" fill="none" fill-rule="evenodd"/><text font-family="Times New Roman,Times New Roman_MSFontService,sans-serif" font-weight="400" font-size="24" transform="translate(1008.24 467)">/lib</text><path d="M1024.5 410.5 1024.5 421.313 1129.92 421.313 1129.92 432.125" stroke="#000000" stroke-width="1.33333" stroke-miterlimit="8" fill="none" fill-rule="evenodd"/><path d="M1089.5 437.9C1089.5 434.918 1091.92 432.5 1094.9 432.5L1165.1 432.5C1168.08 432.5 1170.5 434.918 1170.5 437.9L1170.5 481.1C1170.5 484.082 1168.08 486.5 1165.1 486.5L1094.9 486.5C1091.92 486.5 1089.5 484.082 1089.5 481.1Z" stroke="#000000" stroke-width="1.33333" stroke-miterlimit="8" fill="none" fill-rule="evenodd"/><text font-family="Times New Roman,Times New Roman_MSFontService,sans-serif" font-weight="400" font-size="24" transform="translate(1117.66 467)">…</text><path d="M710.5 335.5 710.5 346.313 1132.19 346.313 1132.19 357.125" stroke="#000000" stroke-width="1.33333" stroke-miterlimit="8" fill="none" fill-rule="evenodd"/><path d="M1089.5 361.9C1089.5 358.918 1091.92 356.5 1094.9 356.5L1170.1 356.5C1173.08 356.5 1175.5 358.918 1175.5 361.9L1175.5 405.1C1175.5 408.082 1173.08 410.5 1170.1 410.5L1094.9 410.5C1091.92 410.5 1089.5 408.082 1089.5 405.1Z" stroke="#000000" stroke-width="1.33333" stroke-miterlimit="8" fill="none" fill-rule="evenodd"/><text font-family="Times New Roman,Times New Roman_MSFontService,sans-serif" font-weight="400" font-size="24" transform="translate(1099.16 391)">/media</text><path d="M710.5 335.5 710.5 345.962 1232.3 345.962 1232.3 356.423" stroke="#000000" stroke-width="1.33333" stroke-miterlimit="8" fill="none" fill-rule="evenodd"/><path d="M1191.5 361.9C1191.5 358.918 1193.92 356.5 1196.9 356.5L1267.1 356.5C1270.08 356.5 1272.5 358.918 1272.5 361.9L1272.5 405.1C1272.5 408.082 1270.08 410.5 1267.1 410.5L1196.9 410.5C1193.92 410.5 1191.5 408.082 1191.5 405.1Z" stroke="#000000" stroke-width="1.33333" stroke-miterlimit="8" fill="none" fill-rule="evenodd"/><text font-family="Times New Roman,Times New Roman_MSFontService,sans-serif" font-weight="400" font-size="24" transform="translate(1219.93 390)">…</text><rect x="0.500053" y="263.5" width="1280" height="240" stroke="#000000" stroke-linejoin="round" stroke-miterlimit="10" fill="none"/></g></svg>