<svg width="858" height="570" xmlns="http://www.w3.org/2000/svg" xmlns:xlink="http://www.w3.org/1999/xlink" overflow="hidden"><defs><clipPath id="clip0"><rect x="212" y="75" width="858" height="570"/></clipPath></defs><g clip-path="url(#clip0)" transform="translate(-212 -75)"><path d="M214 318.9C214 314.537 217.537 311 221.9 311L363.1 311C367.463 311 371 314.537 371 318.9L371 382.1C371 386.463 367.463 390 363.1 390L221.9 390C217.537 390 214 386.463 214 382.1Z" stroke="#000000" stroke-width="2" stroke-miterlimit="8" fill="#FFFFFF" fill-rule="evenodd"/><text font-family="SimSun,SimSun_MSFontService,sans-serif" font-weight="400" font-size="24" transform="translate(244.58 358)">修改权限</text><path d="M371.114 350.766 433.941 232.748" stroke="#000000" stroke-width="1.33333" stroke-miterlimit="8" fill="none" fill-rule="evenodd"/><path d="M434 200.9C434 196.537 437.537 193 441.9 193L583.1 193C587.463 193 591 196.537 591 200.9L591 264.1C591 268.463 587.463 272 583.1 272L441.9 272C437.537 272 434 268.463 434 264.1Z" stroke="#000000" stroke-width="2" stroke-miterlimit="8" fill="#FFFFFF" fill-rule="evenodd"/><text font-family="SimSun,SimSun_MSFontService,sans-serif" font-weight="400" font-size="24" transform="translate(464.476 240)">文件所属</text><path d="M591.01 232.748 653.838 187.591" stroke="#000000" stroke-width="1.33333" stroke-miterlimit="8" fill="none" fill-rule="evenodd"/><path d="M654 155.9C654 151.537 657.537 148 661.9 148L1054.1 148C1058.46 148 1062 151.537 1062 155.9L1062 219.1C1062 223.463 1058.46 227 1054.1 227L661.9 227C657.537 227 654 223.463 654 219.1Z" stroke="#000000" stroke-width="2" stroke-miterlimit="8" fill="#FFFFFF" fill-rule="evenodd"/><text font-family="SimSun,SimSun_MSFontService,sans-serif" font-weight="400" font-size="24" transform="translate(686.584 195)">文件夹递归处理<tspan font-family="Times New Roman,Times New Roman_MSFontService,sans-serif" font-size="24" x="174" y="0">chown</tspan><tspan font-family="Times New Roman,Times New Roman_MSFontService,sans-serif" font-size="24" x="243.987" y="0">-</tspan><tspan font-family="Times New Roman,Times New Roman_MSFontService,sans-serif" font-size="24" x="251.98" y="0">R u:g file</tspan></text><path d="M591.01 232.748 653.838 277.905" stroke="#000000" stroke-width="1.33333" stroke-miterlimit="8" fill="none" fill-rule="evenodd"/><path d="M654 246.8C654 242.492 657.492 239 661.8 239L1056.2 239C1060.51 239 1064 242.492 1064 246.8L1064 309.2C1064 313.508 1060.51 317 1056.2 317L661.8 317C657.492 317 654 313.508 654 309.2Z" stroke="#000000" stroke-width="2" stroke-miterlimit="8" fill="#FFFFFF" fill-rule="evenodd"/><text font-family="Times New Roman,Times New Roman_MSFontService,sans-serif" font-weight="400" font-size="24" transform="translate(789.705 285)">chown<tspan font-size="24" x="69.9866" y="0">u:g file</tspan></text><path d="M371.114 350.766 433.941 468.783" stroke="#000000" stroke-width="1.33333" stroke-miterlimit="8" fill="none" fill-rule="evenodd"/><path d="M434 437.8C434 433.492 437.492 430 441.8 430L583.2 430C587.508 430 591 433.492 591 437.8L591 500.2C591 504.508 587.508 508 583.2 508L441.8 508C437.492 508 434 504.508 434 500.2Z" stroke="#000000" stroke-width="2" stroke-miterlimit="8" fill="#FFFFFF" fill-rule="evenodd"/><text font-family="SimSun,SimSun_MSFontService,sans-serif" font-weight="400" font-size="24" transform="translate(464.476 476)">文件权限</text><path d="M591.01 468.783 653.838 405.157" stroke="#000000" stroke-width="1.33333" stroke-miterlimit="8" fill="none" fill-rule="evenodd"/><path d="M654 373.8C654 369.492 657.492 366 661.8 366L803.2 366C807.508 366 811 369.492 811 373.8L811 436.2C811 440.508 807.508 444 803.2 444L661.8 444C657.492 444 654 440.508 654 436.2Z" stroke="#000000" stroke-width="2" stroke-miterlimit="8" fill="#FFFFFF" fill-rule="evenodd"/><text font-family="Times New Roman,Times New Roman_MSFontService,sans-serif" font-weight="400" font-size="24" transform="translate(714.372 413)">ugo</text><path d="M810.906 405.157 873.734 368.22" stroke="#000000" stroke-width="1.33333" stroke-miterlimit="8" fill="none" fill-rule="evenodd"/><path d="M874 336.8C874 332.492 877.492 329 881.8 329L1057.2 329C1061.51 329 1065 332.492 1065 336.8L1065 399.2C1065 403.508 1061.51 407 1057.2 407L881.8 407C877.492 407 874 403.508 874 399.2Z" stroke="#000000" stroke-width="2" stroke-miterlimit="8" fill="#FFFFFF" fill-rule="evenodd"/><text font-family="SimSun,SimSun_MSFontService,sans-serif" font-weight="400" font-size="24" transform="translate(885.386 375)">使用加减法完成</text><path d="M810.906 405.157 873.734 450.314" stroke="#000000" stroke-width="1.33333" stroke-miterlimit="8" fill="none" fill-rule="evenodd"/><path d="M874 425.2C874 421.776 876.776 419 880.2 419L1059.8 419C1063.22 419 1066 421.776 1066 425.2L1066 474.8C1066 478.224 1063.22 481 1059.8 481L880.2 481C876.776 481 874 478.224 874 474.8Z" stroke="#000000" stroke-width="2" stroke-miterlimit="8" fill="#FFFFFF" fill-rule="evenodd"/><text font-family="Times New Roman,Times New Roman_MSFontService,sans-serif" font-weight="400" font-size="24" transform="translate(884.438 458)">chmod<tspan font-size="24" x="71.32" y="0">a+rwx</tspan><tspan font-size="24" x="138.833" y="0">file</tspan></text><path d="M591.01 468.783 653.838 532.409" stroke="#000000" stroke-width="1.33333" stroke-miterlimit="8" fill="none" fill-rule="evenodd"/><path d="M654 500.9C654 496.537 657.537 493 661.9 493L803.1 493C807.463 493 811 496.537 811 500.9L811 564.1C811 568.463 807.463 572 803.1 572L661.9 572C657.537 572 654 568.463 654 564.1Z" stroke="#000000" stroke-width="2" stroke-miterlimit="8" fill="#FFFFFF" fill-rule="evenodd"/><text font-family="SimSun,SimSun_MSFontService,sans-serif" font-weight="400" font-size="24" transform="translate(708.372 539)">数字</text><path d="M811.5 532.804 874.327 532.804" stroke="#000000" stroke-width="1.33333" stroke-miterlimit="8" fill="none" fill-rule="evenodd"/><path d="M874 500.9C874 496.537 877.537 493 881.9 493L1057.1 493C1061.46 493 1065 496.537 1065 500.9L1065 564.1C1065 568.463 1061.46 572 1057.1 572L881.9 572C877.537 572 874 568.463 874 564.1Z" stroke="#000000" stroke-width="2" stroke-miterlimit="8" fill="#FFFFFF" fill-rule="evenodd"/><text font-family="Times New Roman,Times New Roman_MSFontService,sans-serif" font-weight="400" font-size="24" transform="translate(896.639 540)">chmod<tspan font-size="24" x="71.32" y="0">777 file</tspan></text></g></svg>