<svg width="989" height="248" xmlns="http://www.w3.org/2000/svg" xmlns:xlink="http://www.w3.org/1999/xlink" overflow="hidden"><defs><clipPath id="clip0"><rect x="84" y="201" width="989" height="248"/></clipPath><clipPath id="clip1"><rect x="85" y="181" width="131" height="225"/></clipPath><clipPath id="clip2"><rect x="85" y="243" width="131" height="225"/></clipPath><clipPath id="clip3"><rect x="85" y="304" width="131" height="225"/></clipPath></defs><g clip-path="url(#clip0)" transform="translate(-84 -201)"><path d="M216 201.205 216 447.825" stroke="#000000" stroke-width="1.33333" stroke-linejoin="round" stroke-miterlimit="10" fill="none" fill-rule="evenodd"/><path d="M282.835 201.205 282.835 386.503" stroke="#000000" stroke-width="1.33333" stroke-linejoin="round" stroke-miterlimit="10" fill="none" fill-rule="evenodd"/><path d="M381.376 201.205 381.376 386.503" stroke="#000000" stroke-width="1.33333" stroke-linejoin="round" stroke-miterlimit="10" fill="none" fill-rule="evenodd"/><path d="M479.916 201.205 479.916 447.825" stroke="#000000" stroke-width="1.33333" stroke-linejoin="round" stroke-miterlimit="10" fill="none" fill-rule="evenodd"/><path d="M578.456 201.205 578.456 386.503" stroke="#000000" stroke-width="1.33333" stroke-linejoin="round" stroke-miterlimit="10" fill="none" fill-rule="evenodd"/><path d="M676.997 201.205 676.997 386.503" stroke="#000000" stroke-width="1.33333" stroke-linejoin="round" stroke-miterlimit="10" fill="none" fill-rule="evenodd"/><path d="M775.537 201.205 775.537 447.825" stroke="#000000" stroke-width="1.33333" stroke-linejoin="round" stroke-miterlimit="10" fill="none" fill-rule="evenodd"/><path d="M874.077 201.205 874.077 386.503" stroke="#000000" stroke-width="1.33333" stroke-linejoin="round" stroke-miterlimit="10" fill="none" fill-rule="evenodd"/><path d="M972.618 201.205 972.618 386.503" stroke="#000000" stroke-width="1.33333" stroke-linejoin="round" stroke-miterlimit="10" fill="none" fill-rule="evenodd"/><path d="M85.0878 263.193 1071.82 263.193" stroke="#000000" stroke-width="1.33333" stroke-linejoin="round" stroke-miterlimit="10" fill="none" fill-rule="evenodd"/><path d="M85.0878 324.515 1071.82 324.515" stroke="#000000" stroke-width="1.33333" stroke-linejoin="round" stroke-miterlimit="10" fill="none" fill-rule="evenodd"/><path d="M85.0878 385.836 1071.82 385.836" stroke="#000000" stroke-width="1.33333" stroke-linejoin="round" stroke-miterlimit="10" fill="none" fill-rule="evenodd"/><path d="M85.7544 201.205 85.7544 447.825" stroke="#000000" stroke-width="1.33333" stroke-linejoin="round" stroke-miterlimit="10" fill="none" fill-rule="evenodd"/><path d="M1071.16 201.205 1071.16 447.825" stroke="#000000" stroke-width="1.33333" stroke-linejoin="round" stroke-miterlimit="10" fill="none" fill-rule="evenodd"/><path d="M85.0878 201.871 1071.82 201.871" stroke="#000000" stroke-width="1.33333" stroke-linejoin="round" stroke-miterlimit="10" fill="none" fill-rule="evenodd"/><path d="M85.0878 447.158 1071.82 447.158" stroke="#000000" stroke-width="1.33333" stroke-linejoin="round" stroke-miterlimit="10" fill="none" fill-rule="evenodd"/><text font-family="SimSun,SimSun_MSFontService,sans-serif" font-weight="400" font-size="27" transform="translate(110.877 243)">权限项<tspan font-size="27" x="125.207" y="0">读</tspan><tspan font-size="27" x="207.895" y="0">写</tspan><tspan font-size="27" x="293.102" y="0">执行</tspan><tspan font-size="27" x="404.976" y="0">读</tspan><tspan font-size="27" x="503.516" y="0">写</tspan><tspan font-size="27" x="588.723" y="0">执行</tspan><tspan font-size="27" x="700.597" y="0">读</tspan><tspan font-size="27" x="799.137" y="0">写</tspan><tspan font-size="27" x="884.344" y="0">执行</tspan></text><g clip-path="url(#clip1)"><text font-family="SimSun,SimSun_MSFontService,sans-serif" font-weight="400" font-size="27" transform="translate(97.5439 304)">字符表示</text></g><text font-family="Times New Roman,Times New Roman_MSFontService,sans-serif" font-weight="400" font-size="27" transform="translate(245.001 304)">r<tspan font-size="27" x="77.4378" y="0">w</tspan><tspan font-size="27" x="178.978" y="0">x</tspan><tspan font-size="27" x="279.769" y="0">r</tspan><tspan font-size="27" x="373.059" y="0">w</tspan><tspan font-size="27" x="474.599" y="0">x</tspan><tspan font-size="27" x="575.39" y="0">r</tspan><tspan font-size="27" x="668.68" y="0">w</tspan><tspan font-size="27" x="770.22" y="0">x</tspan></text><g clip-path="url(#clip2)"><text font-family="SimSun,SimSun_MSFontService,sans-serif" font-weight="400" font-size="27" transform="translate(97.5439 365)">数字表示</text></g><text font-family="Times New Roman,Times New Roman_MSFontService,sans-serif" font-weight="400" font-size="27" transform="translate(242.751 365)">4<tspan font-size="27" x="82.6878" y="0">2</tspan><tspan font-size="27" x="181.228" y="0">1</tspan><tspan font-size="27" x="279.768" y="0">4</tspan><tspan font-size="27" x="378.309" y="0">2</tspan><tspan font-size="27" x="476.849" y="0">1</tspan><tspan font-size="27" x="575.39" y="0">4</tspan><tspan font-size="27" x="673.93" y="0">2</tspan><tspan font-size="27" x="772.47" y="0">1</tspan></text><g clip-path="url(#clip3)"><text font-family="SimSun,SimSun_MSFontService,sans-serif" font-weight="400" font-size="27" transform="translate(97.5439 426)">权限分配</text></g><text font-family="SimSun,SimSun_MSFontService,sans-serif" font-weight="400" font-size="27" transform="translate(281.291 426)">文件所有者<tspan font-size="27" x="253.102" y="0">文件所属组用户</tspan><tspan font-size="27" x="588.723" y="0">其他用户</tspan></text></g></svg>